<?xml version="1.0" standalone="no"?>
<!DOCTYPE svg PUBLIC "-//W3C//DTD SVG 1.1//EN" "http://www.w3.org/Graphics/SVG/1.1/DTD/svg11.dtd" >
<svg xmlns="http://www.w3.org/2000/svg" xmlns:xlink="http://www.w3.org/1999/xlink" version="1.1">
<metadata></metadata>
<defs>
<font id="inkpen2_scriptregular" horiz-adv-x="792" >
<font-face units-per-em="2048" ascent="1638" descent="-410" />
<missing-glyph horiz-adv-x="657" />
<glyph horiz-adv-x="0" />
<glyph horiz-adv-x="682" />
<glyph horiz-adv-x="342" d="M94 -53q0 -14 13.5 -25.5t37.5 -11.5q25 0 47.5 11t40 26.5t27.5 34t10 32.5q0 20 -17 33.5t-56 15.5q4 6 7 14.5t7 16.5l-49 -4q-4 -12 -17.5 -31.5t-13.5 -40.5q0 -25 16 -24q12 0 24.5 9t39.5 9q16 0 16 -6q0 -4 -11 -14t-40 -27h-16q-23 0 -23 8q0 6 -10 7h-4 q-29 -10 -29 -33z" />
<glyph horiz-adv-x="342" d="M94 -53q0 -14 13.5 -25.5t37.5 -11.5q25 0 47.5 11t40 26.5t27.5 34t10 32.5q0 20 -17 33.5t-56 15.5q4 6 7 14.5t7 16.5l-49 -4q-4 -12 -17.5 -31.5t-13.5 -40.5q0 -25 16 -24q12 0 24.5 9t39.5 9q16 0 16 -6q0 -4 -11 -14t-40 -27h-16q-23 0 -23 8q0 6 -10 7h-4 q-29 -10 -29 -33z" />
<glyph unicode=" "  horiz-adv-x="657" />
<glyph unicode="&#x09;" horiz-adv-x="657" />
<glyph unicode="&#xa0;" horiz-adv-x="657" />
<glyph unicode="!" horiz-adv-x="313" d="M37 999q0 -158 9 -313.5t20 -284.5v-14q0 -10 21.5 -20.5t31.5 -14.5h4q2 0 3 -1t3 -1h25q27 0 45 17.5t30 38.5q-10 104 -18 220.5t-13 227.5t-7.5 207t-2.5 162v16q-8 8 -14 10l-12 6q-4 4 -15.5 6.5t-21.5 4.5h-12q-23 0 -42.5 -6.5t-31.5 -20.5q-2 -29 -2 -61v-68 v-111zM66 31q0 -12 17 -19.5t32.5 -8.5t17.5 -1h-6q4 -2 14 -2h27q31 0 48 11.5t26.5 28.5t12.5 37.5t3 37.5v24q0 53 -14.5 67.5t-26.5 14.5q-6 0 -10 -1t-6 -1h-35q-29 0 -53.5 -9t-44.5 -32v-49q-2 -25 -2 -51v-47z" />
<glyph unicode="&#x22;" horiz-adv-x="401" d="M18 1280q0 -41 5.5 -83t19.5 -76t37.5 -55.5t60.5 -21.5q10 0 22.5 12.5t12.5 37.5v36q0 8 -1 16.5t-1 16.5v21q0 27 -3 53.5t-3 52.5v96q-6 0 -18.5 7.5t-26.5 15.5t-28.5 15.5t-24.5 7.5q-14 0 -26 -5.5t-24 -11.5q0 -8 -1 -15t-1 -18v-102zM207 1395q0 -6 1 -11.5 t1 -13.5v-213q0 -16 3 -33.5t3 -33.5v-9q0 -8 13.5 -18t30.5 -19.5t31 -15.5l15 -6l-4 2q8 -2 13 -3t12 -1h2q18 0 23 38t5 77v104q0 59 -11 95t-27.5 54.5t-35 24.5t-32.5 6h-6q-12 -2 -19.5 -8t-17.5 -16z" />
<glyph unicode="#" horiz-adv-x="632" d="M45 440q0 -12 2 -24.5t2 -26.5v-22q0 -29 3 -50.5t9 -21.5q31 12 75 36.5t73 47.5l-2 -68q-53 -35 -80 -50t-38 -23.5t-12 -15.5t-3 -25v-25q0 -33 3 -65.5t9 -45.5v-2q0 -4 4 -4h2q4 0 21 4l12 7q53 29 66.5 34.5t15.5 8.5q-2 -25 -3 -53.5t-1 -69.5v-37q0 -20 2 -43v-8 v-23q0 -12 4 -25q-2 -2 -2 -6q0 -10 12 -11t21 -1q14 10 25 12t28 19l2 14q6 43 6 82v27q0 20 2 28q-2 10 -2 29v39q0 12 1 24.5t1 26.5l2 29l66 41v-25q0 -35 -2 -78t-2 -94v-43q0 -20 18 -20h4q25 0 40 11t22.5 26.5t9.5 34t2 30.5l4 127q0 4 1 6t1 6t-1 6.5t-1 6.5l2 12 q0 4 -1 6t-1 6l2 12q-2 2 -2 9q0 4 2 8l2 2q12 12 44 28.5t48 32.5l8 4q2 2 4.5 3.5t4.5 3.5l2 2q12 12 16 56t6 85v37q-4 10 -4 24q0 16 -6 17h-2q-35 0 -58.5 -7.5t-38 -17.5t-21.5 -19t-7 -14l4 62q41 23 76 43t63 49h2q0 2 7.5 18.5t11.5 28.5l2 6q8 23 12 58.5t4 62.5 v14q0 12 -2 17v10q-4 4 -6 7t-6 3q-74 -45 -105.5 -62.5t-50.5 -27.5q0 123 13.5 246t23.5 242l10 127q4 33 5 63.5t6 63.5l-2 4q-2 4 -11 4q-12 0 -31.5 -24.5t-27.5 -35.5l-33 -55q-8 -18 -13 -36.5t-5 -35.5l-6 -49q-10 -96 -17.5 -186t-7.5 -182v-62q-4 -33 -6 -65.5 t-2 -65.5v-16q-2 -2 -10.5 -4t-12.5 -7l-6 -6q-4 -4 -10 -7t-10 -7v35q-2 4 -2 14q0 8 2 14v31q0 72 3 153t3 144q0 59 -4 83t-9 24h-2q-29 -29 -54 -68t-42 -80l-8 -141q-4 -18 -4 -37v-33v-22v-25q0 -10 -2 -22v-150q-10 -10 -25.5 -20.5t-34.5 -22.5l-6 -6 q-61 -41 -78.5 -65.5t-17.5 -47.5zM313 387v74q12 12 27.5 18t26.5 15v-74q-16 -10 -26.5 -16.5t-27.5 -16.5z" />
<glyph unicode="$" horiz-adv-x="870" d="M78 803q0 -66 18.5 -126.5t52 -106.5t84 -72.5t115.5 -26.5h21q10 0 20 2q0 -14 2 -27.5t2 -31.5l-2 -62q-8 4 -16 6l-33 7q-12 4 -26.5 5t-28.5 3h-27q-16 0 -28.5 -5.5t-12.5 -15.5v-6q0 -31 -6 -72t-12 -85t-12.5 -89t-6.5 -82q14 -2 31 -2h33q35 0 75.5 1t86.5 1v-59 q0 -57 2 -119.5t9 -114t19.5 -85t32.5 -33.5q16 0 27.5 21.5t17.5 48t9 49t3 26.5v2v-2q0 6 1 10.5t1 6.5q-14 35 -18 63.5t-4 52.5q0 18 1 35t1 33v72q31 0 62.5 7t58.5 23l12 6q47 31 80 72t65 117l13 49q6 29 10 58.5t4 58.5v39q-4 27 -6 44t-6 31l-6 19 q-6 20 -20.5 38.5t-22.5 35.5l-17 16q-29 29 -65.5 46t-74.5 27.5t-71.5 14.5t-58.5 4v246l12 6q49 23 70 82v6q4 4 4 8v11v16q0 12 -9 33.5t-9 29.5l-13 19q-6 10 -14 21.5t-19 21.5l-12 12q-6 5 -18 17v73q0 16 1 31.5t1 32.5v121q-2 31 -3 56t-7 52v4q-4 10 -5 17 q0 6 -4 10l-6 12q-4 6 -10 6l-4 2q-18 0 -28.5 -20.5t-12.5 -39t-2 -20.5v2q-6 -18 -7 -52t-1 -74v-244q-293 -152 -293 -426zM227 811v6q0 4 1 12.5t5 12.5l7 12q2 4 8 10l8 8q20 20 54 38t61 28q0 -14 -2 -33.5t-2 -36.5v-57v-39q0 -20 4 -29l-72 7q-33 6 -51 24l-10 10 q-2 4 -4.5 7.5t-4.5 7.5v2q-2 4 -2 10zM492 397v23v41h4q16 0 29.5 3t29.5 3q41 0 67.5 -11.5t43.5 -43.5v-4q0 -6 -2 -11l-2 -6q0 -12 -10.5 -20.5t-24 -13.5t-26.5 -8t-19 -3h-68q-10 0 -13 14.5t-9 36.5z" />
<glyph unicode="%" horiz-adv-x="1122" d="M49 502q0 -61 15.5 -103.5t38 -68t48 -37.5t48.5 -12q45 0 101 32.5t106.5 85t84 116t33.5 124.5q0 47 -14 95t-40 87t-60.5 63.5t-73.5 24.5h-14q-55 -2 -105.5 -47t-87.5 -108.5t-58.5 -132t-21.5 -119.5zM186 569q0 41 20.5 82t53.5 49q4 2 14 2q18 0 39 -11 t37.5 -27.5t26.5 -37t10 -40.5q0 -18 -12.5 -36t-32.5 -31t-44 -20t-46 -7q-35 0 -50.5 21.5t-15.5 55.5zM295 -231q0 -18 9 -36t30 -18q27 0 51.5 45t49 114t50 148.5t54.5 147.5q53 125 100 249t94 250t98.5 259t112.5 278q4 25 6 43.5t2 32.5q0 37 -14 37 q-12 0 -32.5 -25.5t-43.5 -72.5q-59 -133 -115.5 -268.5t-115 -279t-119.5 -298t-131 -326.5q-8 -35 -22.5 -72.5t-29 -75.5t-24.5 -72t-10 -60zM637 219q0 -119 34 -169t87 -50q41 0 100.5 30.5t113.5 80t93 113t39 130.5q0 45 -12.5 91.5t-37 83t-59 60t-77.5 25.5h-15 q-86 0 -161.5 -101t-104.5 -282v-12zM762 270q0 41 23.5 81t60.5 52h8q18 0 39.5 -10t39 -27.5t29 -39t11.5 -41.5q0 -33 -42 -59.5t-97 -26.5q-41 0 -56.5 20.5t-15.5 50.5z" />
<glyph unicode="&#x26;" horiz-adv-x="886" d="M27 395q0 -59 10 -126.5t37.5 -125t77 -94.5t127.5 -37q29 0 51 6.5t45.5 17.5t52.5 27.5t72 38.5l24 17q4 4 8.5 11t6.5 7l59 43q10 -8 22.5 -15t20.5 -20l25 -24q37 -29 60.5 -46.5t36.5 -27.5t18 -13l5 -3h2l-2 2q0 2 5 2q6 0 11 -7.5t36 -7.5l36 7q20 0 37 30.5 t17 51.5q0 10 -4 16v25q-18 10 -27.5 14t-13.5 14l-9 6q-39 39 -64.5 69t-70.5 75l-12 8l19.5 19.5t32 33t28.5 34.5t12 23v5q8 4 16.5 16t10.5 20l31 56q8 8 11 20.5t3 16.5v16q-6 25 -37 25q-20 0 -39.5 -15.5t-40.5 -56.5l2 2l-28 -41q-10 -10 -15.5 -16.5t-11.5 -10.5 l-16 -16q0 -6 -3 -8l-16 -15q-8 -12 -14 -16l-17 -20q-12 8 -16 18v-2q-8 12 -14.5 22.5t-16.5 20.5q-31 31 -64.5 88t-64 123.5t-56.5 132.5t-40 115q53 104 79.5 195t26.5 151q0 70 -26.5 114t-54.5 62q4 0 4 6q-12 6 -24.5 9t-22.5 7h-35q-39 0 -76 -19t-64.5 -54 t-44 -85t-16.5 -112q6 -57 19.5 -149.5t50.5 -182.5q-172 -236 -172 -473zM182 504q0 55 17.5 113.5t48.5 117.5l4 -10q45 -104 87 -178t74.5 -123t56.5 -78t34 -43q-43 -37 -107 -37q-53 0 -94 20.5t-67.5 53.5t-40 76t-13.5 88zM281 1251q0 33 15 74t50 59q23 -4 28 -38.5 t5 -71.5v-31q0 -35 -17.5 -84t-37.5 -84q-10 37 -26.5 88t-16.5 88z" />
<glyph unicode="'" horiz-adv-x="233" d="M12 1110q4 -10 18.5 -24.5t34 -30t42 -25.5t45.5 -10q10 16 13 77.5t3 121.5v47v26q0 14 -2 27l-6 37q-12 33 -33 55.5t-74 22.5q-12 0 -18 -3l-19 -8v-86q0 -4 1 -9t1 -11v-53q0 -72 -6 -146v-8z" />
<glyph unicode="(" horiz-adv-x="622" d="M16 180q0 -117 30 -227.5t105.5 -195.5t204.5 -137t330 -52h51q29 0 58.5 16.5t54 42t40 55t15.5 58.5q0 35 -25.5 60.5t-88.5 31.5v-2q-172 4 -288 45t-185.5 112.5t-99.5 170t-30 217.5q0 117 30 248t75 258t98 244.5t98 207.5q16 33 24.5 73t8.5 75q0 31 -7 50t-21 19 q-10 0 -49 -58t-92.5 -159.5t-113 -236.5t-108.5 -288t-82 -313.5t-33 -314.5z" />
<glyph unicode=")" horiz-adv-x="581" d="M-184 1626q0 -45 40 -79t119 -34q96 0 161 -48t104 -121.5t55 -165t16 -177.5q0 -68 -14 -154.5t-49 -200.5t-93.5 -256t-144.5 -322v-5q-14 -35 -19 -60.5t-5 -41.5q0 -25 10 -35t24 -10q20 0 40 13.5t26 27.5q207 432 310.5 754.5t103.5 545.5q0 111 -30 206.5t-86 165 t-141 109.5t-196 40q-57 0 -100 -13.5t-73 -35t-44 -49t-14 -54.5z" />
<glyph unicode="*" horiz-adv-x="587" d="M6 969q0 -14 4 -25q43 23 93.5 48.5t97.5 62.5q-2 -25 -2 -56v-61v-45q0 -20 2 -37q16 12 45.5 29.5t38.5 42.5v106q33 -20 72.5 -42.5t78.5 -45.5q12 16 37 52t39 63q-16 10 -39.5 23.5t-48.5 26.5t-47.5 26.5t-36.5 23.5q25 18 56.5 37t59 36t47 31.5t19.5 22.5 q0 18 -16.5 42t-34.5 24q-25 0 -48.5 -11.5t-47 -27t-45.5 -33t-47 -29.5v29q0 29 1 49.5t1 40.5v19q0 8 -2 16v4q0 14 -13 14q-39 0 -50 -54t-11 -128q-27 29 -52.5 51.5t-50.5 53.5q-20 -23 -42.5 -58t-26.5 -61q14 -25 40.5 -41.5t49.5 -38.5q-16 -12 -36.5 -26.5 t-39 -31t-32 -38t-13.5 -52.5v-32z" />
<glyph unicode="+" horiz-adv-x="931" d="M2 489q0 -39 10.5 -60t44 -30.5t97 -11.5t172.5 -2q0 -57 -3.5 -122.5t-3.5 -125.5q0 -31 25 -48t55 -17q25 0 47.5 12t34.5 39v283q43 2 104.5 26.5t119 55t100.5 60.5t51 42q6 14 6 37t-5 47t-13 45.5t-19.5 36t-21.5 14.5q-29 0 -71 -18.5t-88 -40t-92 -40t-83 -18.5 q-4 119 -4 217v144v2q0 14 -25 14t-57.5 -15.5t-42.5 -43.5v-191q0 -29 1 -51t1 -39q0 -20 -4 -32.5t-18.5 -18.5t-41 -8t-69.5 -2h-55h-54q-23 0 -43 -2q-29 -4 -42 -48t-13 -90z" />
<glyph unicode="," horiz-adv-x="411" d="M0 193q41 0 64.5 -11.5t36 -26t16.5 -28.5t4 -21v-2q2 -6 4 -14t2 -14v-27q0 -53 -16.5 -89t-18.5 -40v-2q8 8 15.5 14.5t15.5 12.5l24 18q51 39 85 61.5t57.5 46t40 52.5t32.5 80v6q0 2 1.5 3t1.5 3v8q0 4 1 6t1 7v22q0 29 -14.5 56.5t-37.5 37.5l-36 13q-6 2 -15.5 4 t-17.5 2q-27 -18 -58.5 -43t-64.5 -48.5t-62.5 -45t-54.5 -35.5z" />
<glyph unicode="-" horiz-adv-x="729" d="M8 444q0 -23 10 -47h123t151 2t146.5 6.5t110.5 12.5q16 10 31.5 33.5t26.5 50t18.5 53.5t7.5 43q0 18 -8 18h-4q-10 -2 -51.5 -3t-98.5 -2t-122.5 -3t-122 -4t-97.5 -6t-47 -8q-29 -18 -51.5 -60.5t-22.5 -85.5z" />
<glyph unicode="." horiz-adv-x="307" d="M6 8l1 -1t3 -1h33q23 0 45.5 1t44.5 1h25q20 20 31.5 44t18.5 46.5t13 45t19 40.5q-16 0 -33 4.5t-33 4.5h-20h-23q-10 0 -18 -5h-9l-1 -1q-1 -1 -3 -1h-4q-4 0 -9 -2t-9 -4q-27 -43 -35 -76.5t-27 -72.5l-4 -8q-2 -4 -3 -7.5t-3 -7.5z" />
<glyph unicode="/" horiz-adv-x="815" d="M-27 -43q0 -63 39 -63q23 0 49.5 23.5t51.5 70.5q96 180 167.5 335.5t140 299t147.5 281.5t190 284q8 14 8 31q0 27 -21.5 44t-50.5 17q-18 0 -38.5 -8t-37.5 -27q-92 -137 -176 -275.5t-160.5 -284.5t-148 -300t-139.5 -322q-20 -61 -21 -106z" />
<glyph unicode="0" horiz-adv-x="821" d="M33 659q0 -102 32.5 -218.5t87 -215t125 -164t146.5 -65.5q72 0 130 56.5t99 139t63.5 179t22.5 176.5v18q-6 150 -15 273t-32.5 226t-64.5 191t-109 168q-35 31 -82 31q-59 0 -111.5 -38t-97.5 -101.5t-80.5 -146.5t-61.5 -171t-39 -176t-13 -162zM176 758v24 q27 172 74 250t108 78q45 0 84 -38t67 -102.5t43 -149.5t15 -179q0 -61 -9 -117.5t-27.5 -101.5t-48 -76t-70.5 -39h-2q-35 0 -76 37t-76 98.5t-58.5 143.5t-23.5 172z" />
<glyph unicode="1" horiz-adv-x="710" d="M20 111q0 -33 15.5 -69t32.5 -42h6q23 2 47 2h53h70q16 0 31.5 -1t31.5 -1h88q35 -2 68 -2t65 -2h84q2 0 4 1t5 1l20 2q12 8 25.5 20.5t13.5 36.5v27q-4 37 -10 60.5t-25.5 37t-55.5 18.5t-95 5h-78q-2 10 -2 22t-2 27v22q0 4 -1 10.5t-1 12.5v33q-2 47 -2 98v109v221 q2 51 2 102t2 105v20q2 61 2 121q0 59 2 117v121q-2 12 -4 23t-13 22l-8 8q-18 14 -37 14q-8 0 -12 -2h-6q-23 -12 -31 -19.5t-9 -11.5t-1 -8q0 -2 -6 -8v-2q-2 -4 -2 -12v-7q0 -10 2 -14v-4q0 -72 -28 -129t-64.5 -100t-72.5 -71t-50 -40l-6 -6q-12 -12 -21 -27v-2 q-12 -25 -12 -55v-21q0 -35 23.5 -57t52.5 -22q35 0 58.5 12t38.5 28.5t24.5 33t17.5 26.5q0 -35 1 -96.5t2 -134t2 -149.5t2 -143.5t2 -114.5t1 -62q-6 0 -13 -2.5t-18 -2.5h-59q-51 0 -95 -12t-55 -43v-24z" />
<glyph unicode="2" horiz-adv-x="796" d="M20 1147q0 -31 7.5 -61.5t19.5 -55t26.5 -40t28.5 -15.5q20 25 49 49.5t62 42.5t65.5 29.5t61.5 11.5q35 0 59.5 -25.5t40 -59.5t21.5 -68.5t6 -53.5q0 -72 -35 -159t-88 -167q-25 -37 -77 -92t-106.5 -116.5t-94 -125t-39.5 -116.5v-6q0 -53 52 -85t183 -32h45 q43 0 107.5 -5t124.5 -5q39 0 69.5 3t52 18.5t31.5 45t10 82.5q0 49 -15 89t-50 40q-33 -8 -72 -15t-76.5 -13t-74.5 -10.5t-66 -4.5q-35 0 -56.5 6.5t-21.5 22.5q0 18 25 43q98 98 165.5 191.5t108.5 179.5t58.5 164.5t17.5 148.5q0 125 -36 199.5t-86 114.5t-105.5 51.5 t-93.5 11.5q-66 0 -128.5 -25.5t-134.5 -91.5q-23 -14 -32 -39.5t-9 -56.5z" />
<glyph unicode="3" horiz-adv-x="669" d="M57 1204q0 -45 14.5 -85t37.5 -44q72 0 130 12.5t126 18.5h20q27 0 36 -7t9 -18q0 -16 -13.5 -32.5t-23.5 -26.5q-37 -59 -66.5 -94t-58 -54.5t-60.5 -29.5t-71 -19q-12 0 -22.5 -13t-17.5 -32.5t-10 -44t-3 -49.5q0 -37 8 -63.5t27 -26.5q51 10 95 16t85 6 q106 0 167.5 -33.5t61.5 -86.5q0 -29 -27.5 -70t-67.5 -78t-83 -64.5t-76 -29.5q-37 12 -67 12q-51 0 -82 -28.5t-31 -75.5q0 -37 13.5 -65.5t35 -50t48 -33t51.5 -11.5q49 0 98 28.5t94 70.5t81 91.5t54 90.5q70 152 70 266q0 117 -66.5 180.5t-179.5 63.5q33 33 67 83 t61.5 108t44 118.5t16.5 114.5q0 72 -36 117.5t-124 45.5h-10q-14 0 -52 -3t-85.5 -11t-95.5 -22t-83 -37q-20 -10 -29.5 -40t-9.5 -65z" />
<glyph unicode="4" horiz-adv-x="798" d="M53 391q0 -25 2 -44t12.5 -33.5t30 -21.5t56.5 -7q49 0 130 14t203 43q10 -29 19.5 -66.5t16.5 -80.5t13.5 -88.5t12.5 -86.5q20 -6 47 -6t55 6q0 131 -14 219.5t-23 151.5q14 6 35 10.5t40.5 13.5t32.5 26.5t13 52.5q0 57 -5 116.5t-7 75.5q-41 -14 -73 -27.5t-79 -27.5 q-10 133 -12 272t-6 252t-13.5 184.5t-29.5 71.5q-29 0 -68 -49t-81 -126t-85 -169t-78.5 -178t-62 -153.5t-37.5 -94.5q-14 -43 -29.5 -114.5t-15.5 -135.5zM213 559q27 86 77 199.5t132 242.5q2 -47 5 -99t6 -104.5t9.5 -101.5t14.5 -88q-53 -14 -119 -29.5t-125 -19.5z " />
<glyph unicode="5" horiz-adv-x="593" d="M39 156q23 -74 63.5 -107t92.5 -33q63 0 131.5 43t125 117t92.5 171t36 206q0 70 -16.5 129t-45.5 103t-68.5 69t-87.5 25q-63 0 -129 -48v33q0 41 -2 80t-2 74q0 57 15.5 81.5t45 35t74 15.5t103.5 24q23 49 24 108.5t5 108.5q-102 -20 -172 -37t-116 -37.5t-71.5 -47 t-38 -66.5t-14.5 -96t-2 -134v-37q0 -55 6 -119.5t16.5 -119t23.5 -90.5t30 -36q4 0 8 4q41 39 79 54.5t70 15.5q35 0 63 -14.5t48 -36t30.5 -47t10.5 -49.5v-11q-2 -41 -27.5 -80.5t-61.5 -73.5t-78 -54.5t-79 -20.5q-29 0 -43 17.5t-24.5 39t-21.5 40t-32 18.5 q-20 0 -31.5 -27t-17.5 -62.5t-8 -72.5t-4 -55z" />
<glyph unicode="6" horiz-adv-x="757" d="M39 471q0 -86 15.5 -169t48 -147.5t83 -104.5t119.5 -40q47 0 97.5 24.5t99.5 77t95 135.5t85 199q23 68 34 124.5t11 101.5q0 100 -63.5 144t-208.5 44q-45 0 -96.5 -17.5t-94.5 -37.5q4 18 9.5 67.5t13.5 100.5t20 91t31 40q8 0 15 -1t16 -1q20 0 33.5 20.5t21.5 48 t10 58.5t2 53q0 45 -7 69.5t-18.5 37t-25.5 15.5t-29 3q-33 0 -68.5 -39t-70.5 -106.5t-67.5 -158.5t-57 -195.5t-39 -216t-14.5 -220.5zM225 479q0 33 5.5 63.5t15.5 53.5q18 2 45.5 11t59.5 19.5t63.5 17.5t60.5 7q35 0 59.5 -16.5t28.5 -63.5v-8q0 -59 -30.5 -110.5 t-70.5 -89t-78 -60t-54 -22.5q-27 0 -46.5 17t-32.5 46t-19.5 63.5t-6.5 71.5z" />
<glyph unicode="7" horiz-adv-x="694" d="M37 1276q6 -84 4 -163t4 -163q82 27 173 56.5t190 29.5q37 0 73.5 -5t75.5 -19q-25 -147 -80 -388t-123 -571q23 -20 42.5 -34.5t35.5 -14.5q25 0 47 33q37 150 69 272.5t61.5 249.5t58 271.5t59.5 338.5q2 10 3 20.5t1 20.5q0 47 -18.5 79t-51 51.5t-75.5 27.5t-92 8 q-61 0 -127 -10t-127.5 -25.5t-114.5 -33t-88 -31.5z" />
<glyph unicode="8" horiz-adv-x="722" d="M59 385q0 -72 25 -141.5t70 -125t106.5 -89t134.5 -33.5q53 0 103.5 23.5t88.5 70.5t61.5 115.5t23.5 161.5q0 131 -59.5 218t-147.5 154q41 43 55.5 86t14.5 90q0 66 -15.5 147t-50.5 150.5t-89 116.5t-132 47q-31 0 -61.5 -16.5t-55.5 -52t-41 -94t-16 -142.5 q0 -68 19.5 -121t47 -94t56.5 -71t47 -50q-31 -29 -62.5 -63.5t-59.5 -77.5t-45.5 -95.5t-17.5 -113.5zM215 1069q2 35 18.5 56.5t40.5 21.5q12 0 34 -10.5t41.5 -32t33.5 -55t14 -80.5q0 -39 -12 -75t-39 -54q-66 66 -98.5 116t-32.5 113zM219 408q0 47 28.5 98t98.5 127 q74 -47 115 -119t41 -139q0 -27 -8.5 -54.5t-26.5 -51t-47 -38t-68 -14.5q-57 0 -90 29.5t-33 72.5q0 13 2 19q-12 37 -12 70z" />
<glyph unicode="9" horiz-adv-x="690" d="M55 954q0 -92 38 -172t96.5 -138t128 -92t135.5 -34q-16 -47 -46 -79.5t-68 -56.5t-79 -41t-78 -34q-16 -4 -25.5 -33.5t-9.5 -68.5q0 -33 6.5 -67t17.5 -62.5t28.5 -47t40.5 -18.5h4q100 6 180 81t137 190.5t88 257t31 282.5q0 104 -20.5 211t-64.5 191t-111.5 137 t-161.5 53q-61 0 -110.5 -45t-84.5 -112.5t-53.5 -148.5t-18.5 -153zM221 1016v16q16 63 53 91t78 28q51 0 85 -39t53.5 -91t26.5 -108.5t7 -89.5q0 -40 -8 -73q-41 2 -92 20t-96 51t-76 81t-31 114z" />
<glyph unicode=":" horiz-adv-x="327" d="M2 698q4 -6 35 -8t65 -2h9q33 0 55 15.5t35.5 36t19.5 41t8 30.5q2 8 2 14q0 8 2 19v16q0 10 -25.5 12t-47.5 2h-33q-2 0 -4 -1t-4 -1h-21q-10 0 -14 1l-4 1q-6 -4 -18.5 -25.5t-24.5 -49t-22.5 -54t-12.5 -38.5v-5v-4zM31 109q4 -4 25.5 -8.5t54.5 -4.5h43 q37 0 59.5 23.5t34.5 52.5t17 56.5t5 37.5v4l-1 -1t-1 -3v6q-8 8 -34.5 11.5t-43.5 3.5h-20q-20 0 -41 -3.5t-27 -9.5l-2 -2q-12 -16 -22 -39l-12 -24q-10 -31 -22.5 -57.5t-12.5 -40.5v-2z" />
<glyph unicode=";" horiz-adv-x="415" d="M-6 287h14q59 0 93 -35t34 -92v-25q0 -16 -4 -29v-8q-6 -23 -13 -45t-16 -45q70 53 118 91t79 72t44 69.5t13 87.5q0 16 -2 24v10q-12 23 -19 42.5t-17.5 33t-28 21.5t-47.5 8h-6q-47 -10 -86 -39t-76 -66l-31 -30q-14 -10 -24.5 -22.5t-24.5 -22.5zM39 881q2 -25 41 -29 h59q31 4 60.5 21.5t36.5 35.5l4 4q18 27 23 51.5t5 55.5q0 12 -7 19.5t-17 13.5h-4q-18 8 -43 9t-45 1h-11q-2 0 -3 -1t-3 -1h-4q-20 0 -31.5 -24.5t-29.5 -61.5q-6 -6 -7 -12l-6 -13q-8 -18 -13 -32.5t-5 -24.5v-12z" />
<glyph unicode="&#x3c;" horiz-adv-x="821" d="M0 285q0 -6 39 -22.5t97.5 -36t127 -40t131 -38t108.5 -28.5t58 -11h4q33 20 57.5 37.5t46 36t43 39t48.5 46.5v2q0 4 -27.5 10.5t-69.5 12.5t-90.5 12t-90.5 13.5t-70.5 13.5t-28.5 14t35 26.5t86 45t110.5 59.5t106.5 70q2 2 2 6q0 6 -8 16.5t-19.5 19.5t-25 16 t-23.5 7q-4 0 -12 -4q-115 -63 -227.5 -117.5t-202.5 -97.5t-146.5 -70.5t-58.5 -37.5z" />
<glyph unicode="=" horiz-adv-x="804" d="M-2 477h2v-2v-2q2 -2 4 -2q47 0 95 -2t96 -2h122h58q29 0 53 2h21q41 6 80.5 11t71.5 18.5t51.5 42t19.5 84.5v30q0 8 -2 13v4q0 4 -3 6t-8 6h-6q-10 -4 -20 -4h-19h-18q-16 0 -34.5 -2t-35.5 -2h-307q-29 0 -67.5 -16.5t-72.5 -43t-57.5 -60.5t-23.5 -71v-8zM82 201 q0 -23 31.5 -28t68.5 -5h131q8 0 16.5 1t16.5 1h33q63 8 126.5 7t123.5 3h20q20 10 38 40t30 63.5t18 63.5t6 40q0 12 -6 12h-2q-2 0 -2 -2h-2h-8q-4 0 -6 -1t-6 -1h-144q-49 0 -100 2t-98 2h-58q-41 0 -68.5 -2t-31.5 -6l-16 -16q0 -10 -14.5 -31.5t-32 -44.5t-33 -40 t-17.5 -17v2q-4 -16 -9 -25.5t-5 -17.5z" />
<glyph unicode="&#x3e;" horiz-adv-x="851" d="M2 494q0 -7 4 -9q31 -14 96.5 -25t132 -21.5t117.5 -19.5t51 -20q0 -8 -26.5 -20t-67.5 -27.5t-88 -34t-88 -35t-67.5 -30.5t-26.5 -23v-2q20 -41 39.5 -53t50.5 -16q20 10 76.5 34.5t128.5 55.5t148.5 65.5t140 65.5t105.5 53.5t42 30.5q0 6 -38 21.5t-96 35t-128 41 t-134.5 38.5t-113.5 29.5t-67 14.5q-27 -4 -60 -23.5t-62.5 -43t-49 -47t-19.5 -35.5z" />
<glyph unicode="?" horiz-adv-x="886" d="M-4 1153q4 -8 6 -8h4q20 0 31 2h18q78 4 154 8t135 4q88 0 137 -7t75 -17.5t33 -20.5t11 -16q8 -14 8 -33q0 -37 -23.5 -78t-61.5 -95t-87 -125t-100 -169v-23q4 -49 37 -75.5t76 -36.5h24q18 0 37.5 11t36.5 28l14 14q41 59 50.5 92t9.5 49q0 45 -39 74 q33 49 73.5 108.5t75.5 119t58.5 119t23.5 108.5q0 55 -20.5 90t-56.5 59.5t-82 45t-95 44.5l-61 13q-35 8 -73 11t-67 3q-63 0 -113 -8t-87 -14h-6q-25 -4 -51.5 -39t-50 -80t-39 -89t-15.5 -63v-6zM356 100q0 -35 25 -56t45 -21q25 0 49.5 25.5t44 57t31.5 63.5t12 44 q0 29 -24.5 53.5t-53.5 24.5h-6q-12 0 -22 -10q0 -16 -15.5 -35t-35 -40.5t-35 -44t-15.5 -44.5v-17z" />
<glyph unicode="@" horiz-adv-x="1222" d="M8 600q0 -98 25.5 -178t66.5 -152l13 -18q74 -113 186.5 -174.5t241.5 -61.5h28q33 6 89.5 20.5t121 37t130 55.5t117.5 80t86 108.5t34 139.5q0 27 -12 49l-2 2q-12 12 -25 12h-14q-35 0 -58 -18.5t-41 -30.5l-37 -31q-43 -41 -96 -78.5t-108.5 -65.5t-108.5 -44 t-96 -16h-23q-25 0 -59.5 9t-69.5 25.5t-65.5 40t-44.5 54.5l-19 24q-25 49 -45 99.5t-22 121.5v21q0 121 36.5 231.5t95 195.5t130.5 135t141 50q68 0 118 -25.5t85 -62.5t56.5 -82t34.5 -82t18 -63l6 -25v4v-10q0 -16 -3.5 -32.5t-9.5 -28.5l-6 -13q-8 -8 -13 -14t-11 -12 q-41 63 -68 121.5t-52.5 104.5t-56 73.5t-77.5 27.5h-9q-84 0 -141 -50t-94 -126t-53.5 -165t-16.5 -167v-14q4 -127 59.5 -184.5t131.5 -57.5h20q59 4 119.5 37t103.5 86q18 -25 50 -37l32 -12h29q33 0 65.5 25.5t60.5 61.5t47.5 72t23.5 54q8 20 15 39t11 37l6 25 q4 16 6.5 31.5t4.5 29.5v8v21q0 10 2 20v19q0 172 -51.5 290.5t-127 193.5t-160.5 108.5t-155 33.5h-33q-72 -18 -154.5 -57t-160.5 -121t-142.5 -220t-99.5 -355q0 -29 -3 -61t-3 -60v-29zM475 686v19q0 33 9.5 63.5t24.5 54t32.5 36.5t36.5 13q6 0 14 -4t14 -4l4 -4 q12 -8 21 -22l6 -13q4 -6 7 -17t3 -20v-8q0 -35 -10 -63.5t-24.5 -48t-32 -30.5t-31.5 -11h-6q-16 0 -26.5 7t-20.5 17q-8 8 -14.5 15.5t-6.5 19.5z" />
<glyph unicode="A" horiz-adv-x="706" d="M6 135q4 -37 5 -57.5t2 -32.5t4.5 -18.5t9.5 -12.5q20 -2 35.5 -4t31.5 -2h10q10 0 17.5 9.5t13.5 17.5l6 12q33 84 38 125t8 62.5t17.5 36t67.5 46.5l37 19q31 10 60.5 21.5t62.5 15.5v-86q6 -84 14.5 -124t15.5 -56.5t13 -16.5q8 0 10 -4l19 -18q27 -16 57 -17h14 q2 0 3.5 1t3.5 1l6 2q23 6 30 20.5t13 26.5v4q-18 193 -29.5 369t-23 331t-26.5 285t-40 230l-6 18q-14 39 -31.5 63.5t-42.5 24.5q-20 0 -45 -21.5t-39 -43.5l-12 -19q-47 -66 -90 -154.5t-80 -192t-66.5 -213t-50 -216t-32 -204t-11.5 -175.5v-53zM229 596 q0 43 14.5 100.5t34 111.5t39 96t29.5 52l6 -6q18 -39 24.5 -86t6.5 -82v-32q0 -47 -18.5 -82t-45.5 -45l-4 -5q-29 -8 -44 -15t-42 -7z" />
<glyph unicode="B" horiz-adv-x="800" d="M-4 885q0 -47 26.5 -68.5t65.5 -21.5q24 0 55 10q-2 -96 -8 -185.5t-16 -207.5q-57 -57 -85 -115.5t-28 -112.5q0 -72 47 -119t135 -47q131 0 233.5 57.5t174.5 141.5t109.5 181.5t37.5 176.5q0 94 -45 166t-141 99q80 139 114 239.5t34 167.5q0 92 -49.5 130t-120.5 38 q-92 0 -168 -37t-135.5 -93t-103.5 -122.5t-73.5 -125t-44 -101.5t-14.5 -51zM258 231q0 86 7.5 169t21.5 151q35 33 86 52.5t98 19.5q57 0 88 -29t31 -98q0 -43 -30 -90.5t-75 -85t-101 -63.5t-108 -26h-18zM285 930q0 37 4 65.5t10 57.5q2 8 18.5 29.5t41 44t53 39 t53.5 16.5q12 0 26.5 -7.5t14.5 -27.5q0 -23 -17.5 -61.5t-46 -80.5t-68.5 -81t-85 -64q-2 20 -3 36.5t-1 33.5z" />
<glyph unicode="C" horiz-adv-x="878" d="M4 606q0 -141 39 -277t127 -247q33 -41 96.5 -57.5t141.5 -16.5q86 0 173.5 16.5t155.5 45.5q35 31 50.5 70.5t15.5 80.5q0 70 -43 119q-74 -23 -148.5 -32t-140.5 -9q-90 0 -148.5 16.5t-93 50t-48 82t-13.5 113.5q0 115 53 242t150 227q43 55 82 55q37 0 68.5 -49 t58 -108.5t52 -108.5t50.5 -49q29 0 46 26.5t26.5 62.5t12.5 73t3 57q0 104 -21.5 186t-58.5 137.5t-87 85t-105 29.5q-80 0 -167 -65.5t-160 -177t-120 -261t-47 -317.5z" />
<glyph unicode="D" horiz-adv-x="962" d="M2 422q2 -55 4 -98t3 -82t2 -77t3 -81q18 -23 48 -38t75 -24.5t108.5 -12.5t151.5 -3h80q43 0 90 2q80 33 141.5 121t101.5 208t60.5 258t20.5 271q0 174 -27.5 284t-80 172t-125 86t-160.5 24q-135 0 -247 -76t-226 -215q-4 -33 -5.5 -67t-2.5 -73.5t-2 -87t-7 -102.5 q23 12 36 19.5t30 21.5q2 -25 4 -63.5t5 -85t5 -97.5t2 -100q0 -29 -1 -56.5t-3 -52.5q-23 6 -43 13.5t-41 11.5zM190 930q43 37 91.5 65.5t95.5 47t90 27.5t78 9q45 0 78.5 -22.5t54 -58t31 -83t10.5 -96.5q0 -63 -22.5 -145t-68.5 -153.5t-118 -122t-168 -50.5 q-55 0 -115 14q4 41 6.5 93.5t2.5 107.5q0 92 -9.5 188.5t-36.5 178.5z" />
<glyph unicode="E" d="M6 518q0 -145 3 -278.5t14 -233.5q70 0 127 1t108 3t101.5 4t109.5 4q37 2 74 3.5t66.5 26t47 81.5t17.5 170q0 16 -14.5 26.5t-55.5 10.5h-22q-109 -6 -200 -14.5t-171 -8.5q-4 57 -6 92t-2 84q49 16 95 33t112 35q45 8 68.5 15.5t32.5 21.5t10 43t1 80v6q0 14 1 27.5 t1 27.5q0 27 -10 46.5t-49 19.5q-25 0 -57.5 -8.5t-68.5 -20.5t-72 -25.5t-66 -21.5q-2 43 -4 93t-2 97v35q0 19 2 33q27 25 83 34t120.5 13t127 7t101.5 18q18 4 33.5 38.5t26.5 79t16.5 88.5t4.5 68q0 27 -14 41t-55 14q-51 0 -115.5 -4t-132 -11t-133 -17.5t-117 -23.5 t-83 -27.5t-31.5 -30.5q-4 -61 -8.5 -150.5t-7.5 -195t-5 -220t-2 -229.5z" />
<glyph unicode="F" horiz-adv-x="724" d="M8 248q0 -135 15.5 -188.5t60.5 -53.5q25 0 40 26.5t23.5 68.5t11 93.5t4 99.5t2.5 88t7 58q123 55 198.5 75t117.5 37t57.5 51t15.5 118v29q0 45 -7 66.5t-36 21.5t-82 -14.5t-108.5 -31t-102.5 -30.5t-63 -17v27q0 31 2 66.5t4 73.5t5 73t3 62q41 20 98.5 33.5 t116 22.5t111.5 15t90 15q20 2 31.5 24.5t17.5 55t7 69.5t1 72t-17.5 57.5t-82.5 22.5q-59 0 -142 -11.5t-160 -28t-130.5 -35t-55.5 -32.5q-10 -115 -19 -258t-17.5 -290.5t-12.5 -287t-4 -243.5z" />
<glyph unicode="G" horiz-adv-x="944" d="M10 524q0 -92 16.5 -184t56.5 -166t107.5 -120t167.5 -46q90 0 185.5 58.5t175.5 197.5q-2 -92 -5 -169t-8.5 -141.5t-8.5 -122t-5 -112.5q10 -31 35 -30q23 0 48.5 22.5t41.5 50.5q8 100 18.5 197.5t18.5 187t13 167t5 137.5q0 100 -22.5 163.5t-59 100.5t-81.5 50 t-88 13q-51 0 -94.5 -10t-63.5 -18q-2 -27 -6 -64t-9.5 -78t-8.5 -85t-3 -83q35 4 49.5 5t18.5 1q6 0 11 -3t38 -9q-61 -33 -112.5 -47t-92.5 -14q-90 0 -131 61.5t-41 151.5q0 94 37 192q8 39 34.5 95.5t62.5 108.5t77 88t78 36q33 0 54.5 -43t42 -95.5t46 -95.5t66.5 -43 q39 0 58.5 43t19.5 123q0 94 -18.5 179.5t-51.5 148.5t-80 101t-104 38q-61 0 -121 -41t-114 -110.5t-100 -161.5t-80 -196.5t-53.5 -214t-19.5 -214.5z" />
<glyph unicode="H" horiz-adv-x="761" d="M6 53q0 -29 24.5 -43t57.5 -14q29 0 55.5 11t38.5 34q6 109 15.5 212t11.5 173q37 -6 63 -6q49 0 87 11t92 26v-15q0 -92 6 -188t18 -175t31.5 -130t44.5 -51q29 0 58.5 13t38.5 26q-6 76 -10.5 167t-7.5 190t-4 201.5t-1 204.5q0 111 2 214.5t6 192.5t10 159.5t16 115.5 q-12 16 -32.5 22.5t-42.5 6.5q-23 0 -43.5 -5t-36.5 -13q-18 -49 -28.5 -130t-16.5 -172.5t-8 -178.5t-2 -148q-59 -29 -123 -34t-117 -9v35q0 55 2 124.5t4 142.5t5 144.5t7 132.5q-16 12 -59 13q-29 0 -56.5 -7.5t-43.5 -25.5q-6 -147 -9.5 -285.5t-9.5 -285t-15 -306 t-28 -346.5v-4z" />
<glyph unicode="I" horiz-adv-x="342" d="M14 715q0 -117 3 -227.5t6.5 -206t7.5 -167t4 -108.5q28 -22 64 -22h3q39 0 61.5 15t35 39.5t16.5 56.5t4 67q0 186 -7 378.5t-7 385.5q0 102 4 200.5t16 190.5q-35 29 -82 29q-53 0 -86 -33q-27 -119 -35 -276.5t-8 -321.5z" />
<glyph unicode="J" horiz-adv-x="964" d="M29 1075q0 -53 27.5 -97t66.5 -44q18 0 58 4t84 9t82 9.5t54 4.5l9 -3q6 -96 15 -172.5t18.5 -146.5t17.5 -140.5t16 -152.5q0 -35 -22 -35q-18 0 -49 20.5t-65 44t-67.5 44t-60.5 20.5q-16 0 -28.5 -11t-19.5 -27.5t-11 -36t-4 -35.5q0 -78 34.5 -138.5t89 -101.5 t118 -62.5t120.5 -21.5q84 0 113.5 46t29.5 116q0 51 -8 98q-35 213 -49 351.5t-14 240.5q0 63 6 125q31 14 82 22.5t100 26t85 53t36 105.5q0 47 -28.5 85t-94.5 38q-4 0 -10 -1t-12 -1l-578 -94q-78 -12 -109.5 -50.5t-31.5 -91.5z" />
<glyph unicode="K" d="M6 506q0 -156 5 -284t18 -214q27 -4 53 -4h55q23 0 38 8t15 41v33q0 18 -2 33q25 -2 52.5 -10.5t67.5 -21.5t100.5 -34.5t152.5 -48.5q2 20 3 41t1 41q0 59 -4 116.5t-6 110.5q-90 35 -170 73t-121 106q37 43 84 106.5t96.5 140t96.5 160.5t84 167t59.5 161t22.5 139v12 q-20 18 -46 26.5t-53 8.5q-14 0 -27.5 -2t-25.5 -6q-72 -186 -163 -353t-218 -313q-4 41 -6 79t-2 75q0 117 10 215t10 166q0 59 -12 84.5t-59 25.5q-29 0 -53.5 -6t-36.5 -12q-6 -209 -12.5 -433t-6.5 -427z" />
<glyph unicode="L" horiz-adv-x="745" d="M10 625q0 -162 17.5 -313.5t60.5 -284.5q4 -14 18.5 -20.5t57.5 -6.5q27 0 67.5 2t99 5t137.5 6t181 7q-4 66 -5 113t-1 84q0 53 1 86t1 55v23q-74 -4 -150.5 -9t-142.5 -5q-76 0 -124 11t-48 46q-10 66 -13 138.5t-3 150.5q0 100 5 201.5t10 187.5t10.5 148.5t5.5 88.5 q-31 37 -84 37q-34 0 -50 -16q-18 -174 -34.5 -361.5t-16.5 -373.5z" />
<glyph unicode="M" horiz-adv-x="1089" d="M4 100q0 -63 32 -79.5t79 -16.5q20 0 41.5 1t44.5 1q4 47 11 124t15.5 149.5t16.5 126t16 53.5q51 -70 86 -124t60.5 -91t44 -55.5t34.5 -18.5q20 0 44 28.5t59 89t88 151.5t135 216q14 23 25 23q10 0 14 -28.5t4 -80.5q0 -53 -2 -120.5t-2 -141.5q0 -78 4 -156.5 t18 -144.5q23 -4 52.5 -13t52.5 -9q25 0 24 18v4q-14 141 -19 266t-5 240q0 262 19.5 463t29.5 364q-12 25 -40 51.5t-44 26.5q-8 0 -10 -6l-432 -821l-322 762q-16 2 -29.5 3t-23.5 1q-39 0 -72 -21q2 -35 2 -69v-70q0 -154 -8 -308.5t-17.5 -298t-17.5 -268t-8 -221.5z " />
<glyph unicode="N" horiz-adv-x="964" d="M8 39q4 -18 23.5 -26.5t42.5 -8.5q31 0 57.5 12.5t28.5 32.5q2 80 3 163t1 159t1 139t7 104q49 -25 100.5 -84t114 -145t141 -195.5t183.5 -236.5q12 -4 32.5 -9t42.5 -5q39 0 54 14q-4 100 -9.5 178t-9.5 145.5t-6 129t-2 131.5q0 68 3 145.5t9 179t16.5 230.5t26.5 297 q-24 28 -68 28h-3q-43 0 -74 -24q-10 -63 -23.5 -136t-25.5 -157t-21.5 -182.5t-9.5 -212.5v-46t2 -45q-156 203 -267.5 325t-156.5 175q8 41 10 73t2 56q-23 29 -67 29q-43 0 -72 -23q-31 -164 -48 -326.5t-25.5 -312t-10.5 -275.5t-2 -214v-82z" />
<glyph unicode="O" horiz-adv-x="808" d="M10 657q0 -172 23.5 -295.5t63.5 -201.5t91.5 -115t106.5 -37q66 0 128 37t112.5 90t85 115.5t47.5 111.5q29 123 46 216.5t17 181.5q0 131 -23.5 242.5t-64.5 192.5t-100.5 127t-128.5 46q-94 0 -186.5 -77t-151.5 -224q-37 -117 -51.5 -217t-14.5 -193zM184 672 q0 78 17.5 152.5t52.5 123.5q66 57 129 58q43 0 78 -25t60.5 -66t39.5 -93t14 -109q0 -37 -13 -94.5t-40.5 -110.5t-73 -91t-106.5 -38q-41 0 -69.5 24.5t-49 65.5t-30 94t-9.5 109z" />
<glyph unicode="P" horiz-adv-x="778" d="M14 1120q6 -106 12.5 -243.5t12.5 -287t13.5 -300t17.5 -285.5q10 -4 36 -4q23 0 50.5 3t56.5 5q0 43 1 86t0 86q0 51 -1.5 103.5t-5.5 111.5q43 16 124 53t160.5 113t139 203t59.5 323q0 66 -25.5 132.5t-71.5 120t-111.5 86t-145.5 32.5q-47 0 -93 -16.5t-88 -56 t-78 -104t-63 -161.5zM180 885q0 37 6 80q49 98 92.5 136t77.5 38q39 0 66 -26t43 -55.5t25 -55.5l8 -25q-2 -37 -39 -77t-86 -73.5t-99.5 -55t-80.5 -23.5q-4 37 -8.5 69.5t-4.5 67.5z" />
<glyph unicode="Q" horiz-adv-x="837" d="M10 502q0 -250 78 -374t201 -124q115 0 252 109q20 -23 40.5 -59t49.5 -64q29 35 65.5 69.5t65.5 61.5q-29 43 -55.5 97t-65.5 104q31 92 43 187t12 187q0 166 -22.5 289t-63.5 205t-97 123t-122 41q-47 0 -93 -20.5t-85 -55.5t-69 -82t-46 -100q-47 -178 -67.5 -325.5 t-20.5 -268.5zM180 627q0 74 19.5 144.5t60.5 121.5q0 2 -2 2v2q0 14 36 36.5t83 22.5q29 0 57.5 -12t52 -45t38 -87t14.5 -136v-31t-2 -46.5t-4.5 -41.5t-6.5 -18q-8 0 -23.5 27.5t-23.5 41.5q-57 -35 -101 -66.5t-69 -62.5q12 -35 38 -74.5t50 -76.5q-10 -2 -26 -2 q-47 0 -83 25.5t-59.5 67.5t-36 96t-12.5 112z" />
<glyph unicode="R" horiz-adv-x="796" d="M-29 856q0 -76 24.5 -127t78.5 -51h6q20 -145 24.5 -316.5t4.5 -349.5q37 -16 63 -16q43 0 86 37q-4 10 -4 20v25v16v19q0 10 -2 20q51 -18 84 -38.5t62.5 -39t64.5 -33t92 -20.5q2 37 14.5 74t26.5 72.5t25.5 73.5t11.5 79q-53 18 -87 30.5t-60.5 25t-47 26.5t-45.5 37 q88 111 147.5 206t96.5 182t53.5 168t16.5 165q0 139 -52.5 215t-175.5 76q-63 0 -150 -36t-167 -107.5t-135.5 -180.5t-55.5 -252zM203 872q16 41 35.5 83t50 76t74 56.5t104.5 28.5q76 -18 76 -67q0 -31 -21.5 -74t-59.5 -99.5t-89 -128t-109 -157.5q2 10 2 18v21 q0 39 -5 79t-14 73.5t-20.5 58t-23.5 32.5z" />
<glyph unicode="S" horiz-adv-x="921" d="M4 852q0 -63 14.5 -120.5t39 -101.5t54 -72t60.5 -34q231 -12 340 -50t109 -71q0 -12 -14.5 -23t-36 -19.5t-46 -14.5t-43.5 -8q-45 0 -65.5 13.5t-33.5 30.5t-26.5 30.5t-40.5 13.5q-47 0 -95 -13.5t-79 -45.5q-6 -57 -15 -110.5t-18.5 -99.5t-17.5 -84t-10 -65 q119 -12 215 -12q156 0 261.5 35t168.5 99.5t90 158.5t27 213q0 70 -20.5 127t-71 101t-136.5 71.5t-217 40.5q-80 8 -110.5 14t-30.5 31v6q6 39 39 69.5t81 53t106.5 39t117.5 28t113.5 17.5t93.5 10q18 35 30.5 87t12.5 106q0 61 -20.5 106t-71.5 45q-219 -25 -364.5 -88 t-231.5 -148t-122 -180.5t-36 -185.5z" />
<glyph unicode="T" horiz-adv-x="839" d="M-4 973h14q37 0 97.5 6t156.5 22q-14 -133 -18 -269t-4 -286v-442q53 0 106 7t88 7h8q-6 182 -10 317.5t-4 256.5q0 106 5 206.5t16 217.5q29 4 65.5 9t76.5 8t77 5t65 2h17q16 49 27.5 101.5t21.5 102.5t20 93t23 74q-39 8 -81 11t-87 3q-74 0 -153 -8t-155.5 -18 t-146.5 -23.5t-127 -21.5q-18 -47 -33.5 -97.5t-28 -100.5t-21.5 -97t-15 -86z" />
<glyph unicode="U" horiz-adv-x="925" d="M4 727q0 -170 31 -332t104 -317q16 -27 43 -40t58.5 -19.5t64.5 -9.5t62 -5h90q57 0 110.5 12.5t99.5 69.5t83.5 175t64.5 329q16 141 26.5 261t10.5 216q0 111 -24.5 196t-96.5 146q-49 -39 -87 -107.5t-48 -156.5q53 -47 72.5 -126t19.5 -202q0 -72 -4 -152.5 t-24.5 -150.5t-62.5 -116t-116 -46q-96 0 -158.5 32t-98.5 85t-50 125t-14 151q0 129 20.5 290t36.5 351q-45 16 -74 17q-42 0 -71 -35q-29 -170 -48.5 -328.5t-19.5 -312.5z" />
<glyph unicode="V" horiz-adv-x="813" d="M10 829q0 -104 17.5 -194t51.5 -186.5t83 -208t114 -254.5q29 18 65 53t67 67q14 96 45.5 225.5t74.5 285t97.5 332.5t113.5 372q6 43 6 68q0 31 -9 41t-27 10q-16 0 -39 -4t-56 -9q-35 -96 -67.5 -189t-65 -199.5t-64.5 -233.5t-65 -289q-53 72 -86 143.5t-51 140 t-24.5 132t-6.5 117.5q0 29 1 53t3 47q-61 -2 -97 -22.5t-53.5 -54.5t-22.5 -77t-5 -88v-78z" />
<glyph unicode="W" horiz-adv-x="1228" d="M4 647q0 -123 16.5 -239.5t48 -205.5t76.5 -143.5t101 -54.5q43 0 91 40t97 130q23 -35 57.5 -66.5t76.5 -56t89.5 -40t96.5 -15.5q66 0 138.5 40t133.5 135t101 254t40 398q0 94 -13 189.5t-34.5 172.5t-49.5 125t-54 48q-25 0 -49.5 -33t-49 -81t-48 -104.5 t-46.5 -103.5q98 -63 141.5 -151t43.5 -178q0 -61 -17.5 -118t-48.5 -100t-73 -68.5t-89 -25.5q-70 0 -116 40t-73.5 97.5t-38.5 119t-11 102.5q0 59 9 112.5t15 108.5q-10 27 -32.5 44t-49.5 17q-23 0 -45 -17.5t-35 -62.5q-70 -612 -127 -612q-51 0 -67 494v30 q0 137 17.5 266.5t29.5 243.5q-35 8 -76 8q-43 0 -74 -12q-51 -197 -76.5 -382t-25.5 -345z" />
<glyph unicode="X" horiz-adv-x="989" d="M4 1030q0 -53 37 -122.5t89 -140.5t107.5 -136.5t94.5 -114.5q-23 -41 -49.5 -101.5t-51 -128t-43 -137t-26.5 -129.5q68 31 112.5 53.5t94.5 59.5q23 59 49 118.5t39 92.5q12 -25 36.5 -62.5t54.5 -83.5t61.5 -96.5t58.5 -101.5h114q12 41 23.5 78t22 73.5t19.5 77.5 t21 90q-31 76 -63.5 131.5t-65 100.5t-61.5 84t-53 82q51 72 100 156.5t87 172t61.5 171t25.5 155.5q-43 -16 -106.5 -44t-108.5 -52v-16q0 -39 -17.5 -89.5t-45 -104.5t-59.5 -106.5t-60 -95.5q-61 82 -111.5 156t-95.5 135.5t-89 111.5t-91 89q-47 -59 -79 -147.5 t-32 -178.5z" />
<glyph unicode="Y" horiz-adv-x="946" d="M4 1176q0 -20 8 -31l418 -586q-16 -61 -37.5 -129t-45 -134.5t-49.5 -129t-52 -115.5v-6q0 -20 30.5 -32.5t71.5 -12.5q35 0 65.5 11.5t45.5 39.5q18 74 57 182.5t90 261t111.5 351t120.5 452.5q2 6 2 21q0 33 -23.5 50t-52.5 17q-47 0 -65.5 -26.5t-35 -86t-42 -156.5 t-82.5 -238l-326 432q-16 25 -47 24q-25 0 -53.5 -16t-53 -40t-40 -51.5t-15.5 -51.5z" />
<glyph unicode="Z" horiz-adv-x="884" d="M0 1057q53 16 124 23t138 7q61 0 112.5 -6t74.5 -16q-49 -53 -99.5 -127t-97.5 -157t-89 -170t-73 -166.5t-49 -146.5t-18 -108q0 -33 9 -65.5t31.5 -58t59.5 -41t92 -15.5q70 0 132.5 3t121.5 8.5t117.5 8.5t122.5 3h96q0 10 -1 18t-1 19q0 45 4 88t4 82q0 35 -6 65.5 t-26.5 52t-56.5 33.5t-93 12h-21q-59 -2 -97 -6t-66.5 -9t-53 -8t-55.5 -3h-25q-12 0 -26 2q14 59 50 126.5t81 138.5t93 141.5t89 139t66.5 132t25.5 119.5q0 63 -38 104t-92 62.5t-112.5 29.5t-99.5 8q-68 0 -124 -10t-101 -20q-25 -47 -42.5 -83t-30.5 -69t-24.5 -66.5 t-25.5 -74.5z" />
<glyph unicode="[" horiz-adv-x="610" d="M-2 539q0 -59 7 -151.5t27.5 -180.5t53.5 -150.5t86 -62.5q27 0 51.5 1t67.5 1h63q53 33 90 82t37 98q0 23 -18.5 37t-46 21.5t-60 10.5t-63.5 3q-27 0 -47.5 -1t-34.5 -1q-41 96 -64.5 231t-23.5 277q0 137 25.5 259t82.5 195q23 0 39.5 1t38.5 1q33 0 107 -6 q25 57 54.5 115.5t29.5 110.5q0 16 -2 24q-53 0 -100.5 2t-88.5 2q-29 0 -56.5 -2t-51.5 -6q-92 -219 -147.5 -453.5t-55.5 -457.5z" />
<glyph unicode="\" horiz-adv-x="1011" d="M33 1319q0 -18 16.5 -48t36.5 -56.5t37.5 -46t19.5 -19.5v2q100 -127 179 -276.5t148 -300t132.5 -291t130.5 -250.5l12 -13q4 0 7.5 -4t7.5 -4l4 -4q6 -2 14 -6l23 2q16 0 20 15.5t4 25.5v6v-2v25q0 4 -1 6t-1 6v6q0 23 -5 37l-15 43q-92 236 -187.5 434.5t-184.5 354 t-165 263t-131 162.5h-4q-6 0 -13 2.5t-12 2.5h-10q-29 -4 -46 -21.5t-17 -30.5v-20z" />
<glyph unicode="]" horiz-adv-x="487" d="M4 1268q0 -41 27 -66q23 4 48 6t50 2t46.5 -2t35.5 -6q20 -37 37.5 -111.5t30 -172t18.5 -205t6 -207.5q0 -76 -4 -142.5t-12 -117.5h-168q-25 -35 -37 -90.5t-12 -100.5q0 -23 3 -40t9 -21q43 4 101.5 5t140.5 1q25 59 43 139t30.5 172t19.5 194.5t7 205.5 q0 111 -10.5 239.5t-32 240.5t-57 185.5t-84.5 73.5q-29 0 -57.5 -3t-59.5 -3h-27q-12 0 -24 4q-23 -35 -45.5 -85t-22.5 -95z" />
<glyph unicode="^" horiz-adv-x="782" d="M18 1081q6 -16 22.5 -24t33.5 -13h4q6 -2 10 -2q6 0 12 -2h50q10 4 16 6.5t8 2.5v2q18 41 41 66.5t41 39.5t31.5 19.5t15.5 5.5h4q10 0 28.5 -22.5t32 -41t15.5 -22.5v2q35 -47 58.5 -59.5t27.5 -12.5l29 6q43 18 58 26.5t22.5 14.5t15.5 17.5t35 37.5q4 12 4 19v6 q0 25 -20.5 54.5t-47 56t-51.5 48t-31 27.5q-35 35 -57.5 53.5t-36.5 26.5t-20.5 10.5t-8.5 2.5h-2q-10 0 -22 -9.5t-31 -19.5l-6 -6q-39 -20 -86 -67.5t-89 -98.5t-72 -91t-34 -44v-15z" />
<glyph unicode="_" horiz-adv-x="1024" d="M18 -162q0 -27 15 -47h196q119 0 242 2t233.5 6t178.5 13q27 10 51 33.5t42.5 50t30 53t11.5 43.5q0 18 -17 18h-4q-14 -2 -80.5 -3t-158.5 -2t-196.5 -3t-196 -4t-156 -6t-74.5 -8q-47 -18 -82 -60.5t-35 -85.5z" />
<glyph unicode="`" horiz-adv-x="417" d="M8 1409q35 -66 78 -139.5t84 -161.5q20 -16 36.5 -20.5t37.5 -4.5q16 0 33.5 1t39.5 1h13q0 14 -18.5 52.5t-45 86.5t-55.5 97t-49 84q-20 12 -47 20.5t-52 8.5q-18 0 -33.5 -5.5t-21.5 -19.5z" />
<glyph unicode="a" horiz-adv-x="622" d="M6 98q0 -4 1 -15t3 -15v-7q0 -12 4.5 -28.5t8.5 -20.5q16 -4 28 -4h31q25 0 37 21.5t18 52.5t8 61.5t9 49.5v2q8 25 28.5 40t43 24t41 12t22.5 3h2h-2q8 4 18 8.5t21 4.5l24 6q6 0 14.5 3t14.5 3q0 -96 11 -147.5t25.5 -74t25 -24.5t8.5 -2q14 -10 43 -10q10 0 22 2t19 8 l12 12q2 2 2 3q0 2 2 4v2q4 4 4 12v2q-12 121 -21.5 246t-18.5 242.5t-20.5 221t-27.5 180.5t-36.5 122t-49.5 45q-33 0 -66.5 -37t-66.5 -94.5t-62.5 -128t-54.5 -138t-42 -125t-26 -88.5q-23 -86 -40 -177t-17 -169v-65v-23zM203 477q0 49 11 94t24.5 80t24.5 54.5 t11 17.5q10 14 15.5 24.5t13.5 18.5q18 -18 25.5 -42t9.5 -46.5t1 -37.5t-1 -17v-33q0 -29 -15.5 -55.5t-41.5 -38.5l-31 -13q-10 0 -21.5 -3t-21.5 -3h-4z" />
<glyph unicode="b" horiz-adv-x="704" d="M-2 709q0 -37 23.5 -55.5t58.5 -18.5q10 0 22.5 2t24.5 6q-2 -78 -7 -147.5t-16 -165.5q-51 -45 -74.5 -93.5t-23.5 -89.5q0 -57 41 -95t119 -38q115 0 206 46t153.5 114t96 145.5t33.5 141.5q0 76 -40 132t-123 79q70 111 99.5 191.5t29.5 133.5q0 74 -44.5 105 t-105.5 31q-82 0 -148.5 -30t-119.5 -75t-91 -98t-63.5 -100.5t-38 -81t-12.5 -39.5zM227 184q0 68 7.5 135.5t17.5 120.5q29 27 75 42.5t89 15.5q51 0 77.5 -23.5t26.5 -77.5q0 -35 -25.5 -72.5t-66.5 -68.5t-90 -51.5t-94 -20.5h-17zM250 743q0 31 4 53.5t10 45.5 q0 6 14.5 23.5t36 35t47 30.5t48.5 13q12 0 24 -5t12 -21q0 -18 -15 -49t-40.5 -65t-61.5 -64.5t-75 -51.5q-2 16 -3 29.5t-1 25.5z" />
<glyph unicode="c" horiz-adv-x="772" d="M2 485q0 -74 14.5 -158.5t54.5 -156.5t109.5 -119t179.5 -47q74 0 152 14t137 37q29 25 43.5 56.5t14.5 64.5q0 55 -37 96q-66 -18 -130.5 -25t-123.5 -7q-80 0 -132.5 14t-83 41t-42 64.5t-11.5 84.5q0 39 21.5 111t56.5 140.5t82 119.5t96 51q31 0 57.5 -39t50.5 -86 t45.5 -86t43.5 -39q27 0 42 20.5t23.5 49.5t10.5 58.5t2 48.5q0 166 -69.5 258t-168.5 92q-72 0 -148.5 -52.5t-141 -142.5t-106.5 -208.5t-42 -254.5z" />
<glyph unicode="d" horiz-adv-x="847" d="M2 338q2 -45 3 -80t3 -65.5t3 -60.5t3 -64q33 -39 109 -51.5t233 -12.5q33 0 68 1t76 1q70 27 124 97.5t89 166t53 207t18 217.5q0 141 -25.5 229.5t-70.5 137.5t-108.5 66.5t-139.5 17.5q-121 0 -218 -60.5t-199 -171.5q-9 -46 -9 -98q0 -8 0.5 -15.5t0.5 -16.5 q0 -56 -9 -134q20 10 31.5 16.5t28.5 16.5q0 -20 3 -52t5 -70t4 -80t2 -81q0 -23 -1 -43.5t-3 -38.5q-20 4 -39 10.5t-35 10.5zM166 743q78 59 164 90t149 31q39 0 67.5 -18.5t47 -47t28 -66.5t9.5 -77q0 -53 -19.5 -117.5t-59.5 -123t-101.5 -97t-147.5 -38.5 q-45 0 -102 12q2 35 4 75t2 83q0 74 -8 151t-33 143z" />
<glyph unicode="e" horiz-adv-x="698" d="M6 432q0 -121 3 -232.5t11 -195.5q61 0 110.5 1t94.5 3t90 3t97 3q33 2 65.5 3t59 20.5t42 66t15.5 136.5q0 12 -12.5 20t-49.5 8h-20q-96 -4 -176 -11t-152 -7q-2 47 -4 74.5t-2 66.5q45 12 85 25.5t97 29.5q39 6 59.5 11.5t29 17.5t9.5 34.5t1 63.5v7q0 10 1 22t1 23 q0 20 -9.5 34.5t-41.5 14.5q-51 0 -114 -21.5t-120 -38.5q-2 33 -3 73t-1 75v31q0 16 2 28q29 23 68 29t82 6h71q45 0 86 6t73 31t51.5 72t19.5 131q0 20 -12.5 32.5t-51.5 12.5q-66 0 -158 -7.5t-176 -19.5t-143 -28.5t-59 -34.5q-4 -49 -7.5 -118t-6.5 -151t-4 -171 t-1 -179z" />
<glyph unicode="f" horiz-adv-x="636" d="M8 209q0 -113 13.5 -159t52.5 -46q33 0 46 45t18 104.5t6 117t8 81.5q111 47 177 62.5t103 29t49.5 40t12.5 94.5v20q0 37 -5.5 54.5t-31.5 17.5q-27 0 -73 -11.5t-95 -24.5t-91 -24.5t-57 -13.5v12q0 25 2 54.5t4.5 61.5t5.5 61.5t3 52.5q37 16 86 26t100 17.5t99 12.5 t79 11q18 2 28.5 21.5t15.5 46t6 56.5t1 56q0 29 -14 45.5t-72 16.5q-53 0 -126.5 -9.5t-141 -22.5t-115 -27.5t-49.5 -26.5q-8 -90 -16 -201.5t-14.5 -228.5t-10.5 -227.5t-4 -194.5z" />
<glyph unicode="g" horiz-adv-x="831" d="M10 420q0 -76 14.5 -150.5t50.5 -133t94 -94.5t146 -36q80 0 163 46t155 159q-2 -74 -5 -135.5t-7.5 -113.5t-7.5 -97t-5 -90q8 -25 31 -25q20 0 43 18.5t37 41.5q6 80 15 158.5t16.5 151.5t12.5 134t5 108q0 80 -20.5 131.5t-52 80t-70.5 39t-78 10.5q-55 0 -88 -13.5 t-50.5 -37t-21.5 -57.5t-4 -75v-88q33 4 44 5t15 1q6 0 11.5 -3t33.5 -7q-55 -27 -101 -38t-81 -11q-80 0 -115.5 49t-35.5 121q0 10 6 45t19.5 81t33.5 97t49 94t64.5 71t81.5 28q29 0 47 -35t36.5 -76t42 -75.5t60.5 -34.5q35 0 51.5 34.5t16.5 100.5q0 76 -16.5 142.5 t-45.5 117.5t-70 80.5t-92 29.5q-82 0 -158.5 -70.5t-137 -180t-96.5 -241.5t-36 -257z" />
<glyph unicode="h" horiz-adv-x="671" d="M4 43q0 -23 22.5 -35t51.5 -12q25 0 48.5 9t33.5 28q4 86 13 169t11 138q16 -2 28.5 -3t25.5 -1q43 0 77.5 9t81.5 20v-15q0 -74 5.5 -150.5t16.5 -139t27.5 -102.5t38.5 -40q25 0 50.5 10.5t34.5 20.5q-10 123 -15.5 285.5t-5.5 324.5q0 88 2 171t6 154.5t10 129 t15 92.5q-12 12 -31 17t-39 5q-35 0 -68 -14q-16 -39 -25 -103.5t-14.5 -137t-7.5 -143.5t-2 -120q-53 -23 -108.5 -25.5t-102.5 -6.5v26q0 45 2 100.5t4.5 114t5.5 115.5t5 106q-14 10 -51 11q-25 0 -50 -6.5t-41 -20.5q-6 -117 -9 -228.5t-7 -228t-13.5 -244.5t-25.5 -278 v-2z" />
<glyph unicode="i" horiz-adv-x="301" d="M10 578q0 -94 3 -184.5t6.5 -167t7.5 -134t4 -88.5q20 -18 57 -18q35 0 55.5 12t31.5 32.5t14 47t4 55.5q0 147 -6.5 299t-6.5 303q0 84 4 163t15 155q-30 24 -71 24h-3.5h-2.5q-43 0 -73 -26q-23 -94 -31 -219t-8 -254z" />
<glyph unicode="j" horiz-adv-x="747" d="M4 868q0 -43 22.5 -77.5t53.5 -34.5q14 0 46 3t66.5 7t65.5 7t43 3q10 0 8 -2q0 -78 9.5 -139.5t18.5 -116.5t17 -111.5t8 -121.5q0 -29 -18 -29q-14 0 -38.5 16.5t-51.5 35t-54.5 34.5t-47.5 16q-29 0 -40.5 -30.5t-11.5 -55.5q0 -66 29 -113.5t73 -80.5t95 -49.5 t94 -16.5q68 0 91.5 38t23.5 93q0 37 -6 78q-14 86 -23.5 154.5t-15.5 126t-9 104.5t-3 88q0 27 1 51.5t3 49.5q27 12 67.5 18t79.5 20.5t67.5 43t28.5 84.5q0 39 -22.5 67.5t-75.5 28.5l-481 -76q-63 -6 -88 -40t-25 -73z" />
<glyph unicode="k" horiz-adv-x="698" d="M6 406q0 -125 4 -228.5t15 -171.5q12 -2 22 -2h25q23 0 47 1t47 1v88q23 -2 46.5 -8t58 -17.5t88 -27.5t135.5 -37q2 16 3 34.5t1 35.5q0 47 -3 91t-6 85q-80 29 -150.5 59.5t-107.5 83.5q49 51 116 139.5t128.5 187.5t104.5 199.5t43 174.5v8q-18 16 -42 22t-46 6 q-27 0 -46 -6q-66 -147 -145.5 -281t-189.5 -251q-6 61 -6 121q0 92 9 173t9 134q0 47 -12.5 67.5t-53.5 20.5q-23 0 -45 -5t-32 -9q-6 -166 -11.5 -346.5t-5.5 -341.5z" />
<glyph unicode="l" horiz-adv-x="655" d="M10 498q0 -129 14.5 -251t51.5 -227q4 -10 16 -14t49 -4q47 0 147.5 5t282.5 9q-6 104 -6 160q0 41 1 65.5t1 43.5v20q-66 -4 -133 -7t-125 -3q-66 0 -108.5 8t-42.5 37q-8 51 -11.5 108.5t-3.5 116.5q0 82 4.5 164t10.5 150.5t10 120t4 71.5q-27 31 -74 31 q-29 -1 -45 -15q-16 -139 -29.5 -289.5t-13.5 -299.5z" />
<glyph unicode="m" horiz-adv-x="946" d="M45 100q0 -51 25.5 -64t64.5 -13q16 0 32.5 1t33.5 1q2 37 8 98t12 119.5t13.5 101.5t13.5 43l2 -2q39 -55 66.5 -97t48 -72t35 -44t28.5 -14q16 0 34.5 22.5t47.5 70.5t72 120.5t108 173.5q12 18 19 18q10 0 13 -24.5t3 -65.5t-2 -94t-2 -111q0 -63 4 -126.5t14 -116.5 q18 -4 43 -11.5t41 -7.5q18 0 19 17v2q-10 111 -14.5 210t-4.5 191q0 211 14.5 373t24.5 293q-10 20 -31.5 40.5t-35.5 20.5q-4 0 -9 -4l-346 -657l-256 610q-12 2 -22 2h-19q-33 0 -59 -14q0 -27 1 -52.5t1 -54.5q0 -123 -6 -248t-13.5 -240.5t-14.5 -217t-7 -177.5z" />
<glyph unicode="n" horiz-adv-x="849" d="M6 31q4 -16 20.5 -22.5t36.5 -6.5q27 0 50.5 10.5t25.5 26.5q4 63 5 130t1 128t1 111.5t6 83.5q43 -20 88 -67.5t100 -116t125 -157t162 -188.5q25 -10 65 -10q14 0 26.5 2t20.5 8q-4 80 -9 141.5t-8 114.5t-5 102.5t-2 104.5q0 53 2 116.5t8 144.5t15.5 184.5 t23.5 238.5q-23 25 -64 25q-35 0 -65 -21q-8 -51 -19.5 -109.5t-22.5 -126t-19.5 -146.5t-8.5 -171q0 -16 1 -33.5t1 -35.5q-137 162 -234 260t-138 139q6 33 8 58.5t2 45.5q-18 20 -58 21q-37 0 -63 -17q-29 -135 -44 -269t-22.5 -256t-9.5 -224.5t-2 -169.5v-49z" />
<glyph unicode="o" horiz-adv-x="710" d="M25 524q0 -139 19 -236.5t51 -161t74 -92t85 -28.5q78 0 134 37t95 94.5t61.5 128t36 137t17.5 122t4 83.5q0 104 -18.5 192.5t-52 154t-81 102.5t-102.5 37q-76 0 -149.5 -61.5t-120.5 -180.5q-31 -92 -42 -174t-11 -154zM164 537q0 61 13 120.5t42 100.5q29 25 54.5 35 t48.5 10q33 0 61.5 -19.5t49 -52.5t31.5 -75t11 -87q0 -80 -40 -155.5t-132 -110.5h-14q-33 0 -56.5 19.5t-39 52.5t-22.5 75t-7 87z" />
<glyph unicode="p" horiz-adv-x="684" d="M14 897q6 -86 10.5 -195.5t10.5 -229.5t12 -241t14 -227q16 -4 33 -4q20 0 44 2l48 4q2 41 3 79t1 79q0 35 -2 72.5t-6 78.5q27 10 69 25.5t89 42.5t94 66.5t86 98t62.5 138.5t23.5 184q0 53 -22.5 106.5t-63.5 95.5t-98 68.5t-127 26.5q-84 0 -160 -59t-121 -211z M158 705q0 30 6 67q43 78 81 107.5t68 29.5q35 0 58.5 -20.5t39 -44t21.5 -43t6 -17.5q0 -31 -31.5 -62.5t-75.5 -59t-90 -45t-73 -19.5q-4 29 -7 54.5t-3 52.5z" />
<glyph unicode="q" horiz-adv-x="724" d="M10 403q0 -199 62.5 -298t160.5 -99q92 0 201 86q16 -18 32.5 -47t41.5 -51q23 29 52.5 56.5t51.5 47.5q-23 35 -44 78t-52 84q25 72 35 147.5t10 147.5q0 262 -68.5 396t-177.5 134q-76 0 -141 -60t-92 -146q-37 -141 -54.5 -260t-17.5 -216zM139 502q0 59 16.5 116.5 t49.5 98.5q0 2 -2 2v2q0 10 29.5 27.5t66.5 17.5q23 0 46.5 -10.5t42 -35t29.5 -67.5t11 -108v-25q0 -18 -2 -36.5t-4 -34t-4 -15.5q-8 0 -20.5 22.5t-18.5 32.5q-45 -29 -80 -54t-55 -50q10 -27 29.5 -59.5t39.5 -61.5q-8 -2 -20 -2q-37 0 -65.5 20.5t-48 53.5t-30 76 t-10.5 90z" />
<glyph unicode="r" horiz-adv-x="700" d="M-25 686q0 -59 20.5 -101t67.5 -42h7q18 -117 21 -254t3 -279q35 -14 58 -14q35 0 75 31q-4 10 -4 32v15v14q0 8 -2 18q45 -14 75 -30.5t55.5 -31.5t57 -26.5t80.5 -15.5q2 31 12.5 59.5t23 57t22.5 59.5t10 64q-47 14 -76.5 24t-53.5 20.5t-42 21.5t-39 28 q76 88 129 163.5t85 144.5t46.5 134.5t14.5 130.5q0 115 -44.5 176.5t-154.5 61.5q-55 0 -132 -28.5t-146.5 -86t-119 -144.5t-49.5 -202zM178 698q14 33 32.5 66t44.5 60.5t63.5 46t91.5 22.5q67 -14 67 -54q0 -48 -70.5 -137.5t-175.5 -230.5q2 10 2 16v19 q0 63 -17.5 121.5t-37.5 70.5z" />
<glyph unicode="s" horiz-adv-x="811" d="M4 676q0 -113 40 -172.5t100.5 -85t130 -28.5t130 -5t100.5 -12.5t40 -48.5q0 -10 -12.5 -19.5t-31 -15.5t-40 -11.5t-37.5 -7.5q-39 0 -57.5 11.5t-30.5 24.5t-22.5 24.5t-34.5 11.5q-41 0 -84 -11.5t-70 -37.5q-10 -92 -30.5 -168t-24.5 -119q51 -4 98 -7t88 -3 q141 0 234.5 27.5t148.5 80t77.5 128t22.5 169.5q0 55 -17 101.5t-61.5 82.5t-120 58.5t-192.5 30.5q-70 8 -96.5 10t-26.5 25v6q8 47 65.5 77.5t133.5 51t155 31t130 14.5q16 29 27.5 72t11.5 83q0 47 -17.5 83t-62.5 36q-193 -20 -321 -71.5t-203.5 -120t-107.5 -146 t-32 -149.5z" />
<glyph unicode="t" horiz-adv-x="800" d="M-4 778h18q35 0 85.5 5t131.5 18q-12 -106 -15 -215t-3 -230v-141v-104q0 -51 -2 -107q47 0 93 5t77 5h10q-4 147 -8 256t-4 207q0 86 4 165t14 171q25 4 56.5 7t65.5 6t66.5 4t57.5 1h19q27 80 43 164t38 133q-68 12 -151 13q-66 0 -134.5 -6.5t-135 -15.5t-128 -18.5 t-110.5 -17.5q-33 -74 -55.5 -157.5t-32.5 -147.5z" />
<glyph unicode="u" horiz-adv-x="815" d="M4 578q0 -135 25.5 -263.5t91.5 -253.5q14 -20 38.5 -31.5t52.5 -15.5t56.5 -6t53.5 -4h81q49 0 96.5 10.5t87.5 56.5t73.5 139t56.5 261q16 113 24.5 209t8.5 174q0 90 -22.5 156.5t-82.5 115.5q-45 -31 -77.5 -85t-43.5 -126q47 -39 64.5 -101t17.5 -161 q0 -53 -3 -118.5t-20.5 -122t-54 -94t-102.5 -37.5q-86 0 -140.5 24.5t-87 66.5t-45 98t-12.5 122q0 104 18.5 234t33.5 284q-37 12 -64 12h-2q-36 0 -64 -28q-25 -135 -42 -264.5t-17 -251.5z" />
<glyph unicode="v" horiz-adv-x="716" d="M10 662q0 -84 15.5 -156t45 -148.5t72.5 -166t101 -203.5q25 16 55.5 43.5t58.5 54.5q14 76 42 179.5t66 227t85 266t100 298.5q4 16 4 28v25q0 25 -7 34t-23 9q-14 0 -35 -3l-49 -7q-29 -78 -58.5 -153t-58.5 -160t-57.5 -186t-55.5 -230q-47 57 -75.5 114.5t-45 112.5 t-22.5 106.5t-6 94.5q0 23 1 42.5t3 35.5q-55 -2 -86 -18.5t-46.5 -43.5t-19.5 -61.5t-4 -73.5v-61z" />
<glyph unicode="w" horiz-adv-x="1081" d="M4 516q0 -98 14.5 -191.5t42 -164t67.5 -113.5t89 -43q39 0 81 32t85 103q20 -29 50 -54.5t67 -45t79 -31.5t85 -12q57 0 121.5 31.5t117.5 108.5t89 204t36 319q0 74 -11 150t-30.5 137.5t-44 100t-49.5 38.5q-20 0 -42 -25.5t-43.5 -64.5t-43 -84t-39.5 -82 q86 -51 124 -121.5t38 -142.5q0 -49 -15.5 -94t-42 -80t-62.5 -55.5t-79 -20.5q-59 0 -100 32t-65.5 77t-36 94t-11.5 84q0 47 8.5 90t14.5 88q-10 23 -31 36t-43 13q-20 0 -38.5 -14t-29.5 -49q-63 -489 -114 -490q-16 0 -37 97.5t-21 296.5q0 117 12.5 226.5t28.5 205.5 q-16 4 -33.5 6t-33.5 2q-33 0 -64 -10q-45 -158 -67.5 -306.5t-22.5 -277.5z" />
<glyph unicode="x" horiz-adv-x="870" d="M2 823q0 -43 33 -98t79 -111.5t96 -109.5t83 -90q-20 -35 -44 -83t-45.5 -102.5t-39 -110t-23.5 -102.5q59 25 99.5 43.5t83.5 46.5q23 47 45 95.5t32 72.5q10 -20 32 -49.5t48.5 -66.5t55 -77t51.5 -81h102q23 66 38 122t36 134q-27 59 -55.5 103t-57 80t-55.5 68 t-47 66q45 57 89 125t78 137.5t54.5 137t20.5 125.5q-37 -12 -93.5 -35t-95.5 -43v-12q0 -31 -15.5 -71t-40 -83t-52 -86t-52.5 -76q-55 66 -99 124t-84 107.5t-78 90t-79 71.5q-41 -47 -70.5 -118.5t-29.5 -143.5z" />
<glyph unicode="y" d="M25 942q0 -16 8 -24l334 -469q-29 -100 -67 -210t-81 -196v-4q0 -16 24.5 -26.5t57.5 -10.5q29 0 53.5 9t34.5 32q16 57 47 145t71 210t88 281t97 361q0 4 1 7.5t1 7.5q0 29 -18.5 43t-42.5 14q-37 0 -52.5 -21.5t-27.5 -69.5t-32.5 -126t-67.5 -190l-260 346 q-14 20 -37 20q-20 0 -43 -13.5t-42.5 -32.5t-32.5 -41.5t-13 -41.5z" />
<glyph unicode="z" horiz-adv-x="780" d="M0 846q47 12 108.5 18t120.5 6q55 0 100.5 -4t65.5 -14q-63 -63 -129.5 -160.5t-121 -200t-89.5 -194.5t-35 -145q0 -57 36 -99.5t132 -44.5h23q123 0 223.5 9.5t214.5 9.5h58v22q0 39 4 76t4 70q0 29 -6.5 52t-23.5 40.5t-48 27t-82 9.5h-18q-53 -2 -87 -5.5t-58.5 -7.5 t-47 -7t-51.5 -3h-21q-10 0 -22 2q12 49 44 103.5t72 109.5t83 112.5t78.5 113t58 106.5t22.5 94q0 51 -33.5 83t-81 49.5t-98.5 23.5t-88 6q-59 0 -109.5 -8.5t-88.5 -16.5q-23 -37 -38.5 -66.5t-26.5 -55t-21.5 -52t-22.5 -59.5z" />
<glyph unicode="{" horiz-adv-x="733" d="M12 326q0 -88 45 -173t146 -139q39 0 93 -1t112 -1q59 0 116.5 -1t104.5 -1q10 10 10 37q0 55 -10.5 90t-27.5 55.5t-40.5 27.5t-50.5 7q-14 0 -26.5 -1t-24.5 -1h-43q-27 0 -59.5 2t-62.5 11.5t-49.5 27t-19.5 47.5q0 37 19.5 70t42 63.5t42 59.5t19.5 53 q0 18 -14.5 38.5t-31.5 41t-31.5 40t-14.5 34.5q0 18 13.5 37.5t29.5 43t29.5 52t13.5 65.5q0 27 -13.5 54.5t-30.5 56.5t-30.5 57.5t-13.5 57.5q0 23 13.5 38t47.5 17q35 0 73 -3t122 -11q4 0 4 14q0 16 -7 49t-18.5 69t-27 70t-33.5 54q-57 0 -112.5 5t-108.5 5h-29 q-66 -8 -93.5 -60.5t-27.5 -121.5q0 -94 39 -183q10 -16 22.5 -36.5t12.5 -53.5q0 -27 -14.5 -53.5t-30.5 -53t-30.5 -52t-14.5 -50.5q0 -23 13.5 -40t30.5 -32.5t30.5 -30.5t13.5 -36q0 -25 -18.5 -56.5t-40 -71.5t-40 -87t-18.5 -100z" />
<glyph unicode="|" horiz-adv-x="299" d="M8 1020q0 -143 4 -290.5t9.5 -289t10.5 -271.5t5 -237v-26q23 -41 44 -55.5t36 -14.5q27 0 43 12.5t25.5 27.5t13.5 31.5t4 24.5q0 170 -7.5 368t-14.5 391.5t-14 367.5t-7 297v100q0 8 -8.5 17.5t-18.5 15.5t-18.5 9t-5.5 3q-4 0 -7 2h-4q-2 0 -3 1t-3 1h-16 q-29 0 -44.5 -19.5t-17.5 -21.5t-2 -4t-2 -4q-2 -20 -2 -41v-43v-352z" />
<glyph unicode="}" horiz-adv-x="718" d="M14 47q0 -37 11 -45q45 2 103 3t116.5 2t111.5 1h95q88 47 126.5 122t38.5 157q0 61 -21.5 115.5t-48 100.5t-48 83t-21.5 63q0 18 12.5 32.5t25.5 29t25.5 30t12.5 35.5q0 25 -16.5 53.5t-37 59.5t-37 60.5t-16.5 56.5q0 29 8.5 54t17.5 52t17.5 54.5t8.5 60.5 q0 96 -42 153.5t-139 57.5q-43 0 -86 -4t-86 -4q-10 0 -21.5 1t-21.5 1q-16 -18 -29.5 -48t-22.5 -62t-14 -62.5t-5 -51.5q0 -29 10 -28q66 4 100.5 8t63.5 4q59 0 79.5 -15.5t20.5 -46.5q0 -27 -10 -52t-23.5 -49.5t-23.5 -48.5t-10 -48q0 -41 16 -75t36.5 -61.5t37 -50 t16.5 -40.5q0 -12 -12.5 -30t-26.5 -36t-26.5 -37.5t-12.5 -36.5q0 -27 21.5 -56.5t48 -62t48.5 -69.5t22 -76q0 -27 -16.5 -42t-40 -23.5t-51.5 -10.5t-52 -2h-43q-18 0 -35.5 1t-38.5 1q-53 0 -84 -34.5t-31 -143.5z" />
<glyph unicode="~" horiz-adv-x="704" d="M-2 440q2 -20 14 -34l11 -11q2 -2 10 -6q23 39 46 60.5t54 35.5h4q18 6 37 7q33 0 70 -14.5t72.5 -31t70.5 -31t68 -14.5h22q27 4 44.5 14.5t33.5 24.5l25 25q35 35 52 81t21 75v14q0 2 -2 2v2v4q-4 8 -10 10h-6q-90 -33 -133 -64.5t-62 -31.5h-4q-20 0 -28 2h-7 q-27 6 -54.5 19.5t-54 25.5t-52 22.5t-50.5 10.5h-18q-4 0 -7 -1t-7 -1l-6 -2q-23 0 -35.5 -6t-17.5 -12.5t-7 -12.5t-6 -6l-27 -27q-10 -12 -19 -24.5t-17 -22.5l-7 -12q-4 -6 -6 -13.5t-6 -11.5v-2q-4 -8 -4 -14v-6q0 -2 -1 -3t-1 -3v-17z" />
<glyph unicode="&#xa1;" horiz-adv-x="296" d="M12 -70v-2q14 -14 35 -19t39 -5q12 0 18 2h7q14 0 30.5 12t20.5 12q0 98 11 208t13 227v69q0 10 1 22.5t1 22.5v88q2 59 3.5 113.5t3.5 101.5l-5 4l-8 9l-1 1t-3 1l-6 6q-8 4 -16.5 7t-18.5 7h-6q-4 2 -14 2q-8 0 -25 -4h-4q-23 -12 -38 -44t-23.5 -75t-11.5 -96t-3 -108 q0 -86 4 -168t4 -142v-84q-4 -51 -6 -96t-2 -72zM16 975q4 -12 21.5 -18.5t30.5 -6.5h59q14 2 25.5 8.5t21.5 8.5l12 6q0 4 6.5 7t8.5 5l6 6v6q4 10 2 22.5t2 22.5v15q0 4 1 6t1 6v10q0 31 6 60l-6 6q-20 16 -38.5 19t-16.5 3h-6q-8 2 -21 2q-41 0 -64.5 -16t-35 -41 t-13.5 -55.5t-2 -61.5v-20z" />
<glyph unicode="&#xa2;" horiz-adv-x="772" d="M2 485q0 -74 14.5 -158.5t54.5 -156.5t109.5 -119t179.5 -47q74 0 152 14t137 37q29 25 43.5 56.5t14.5 64.5q0 55 -37 96q-66 -18 -130.5 -25t-123.5 -7q-80 0 -132.5 14t-83 41t-42 64.5t-11.5 84.5q0 39 21.5 111t56.5 140.5t82 119.5t96 51q31 0 57.5 -39t50.5 -86 t45.5 -86t43.5 -39q27 0 42 20.5t23.5 49.5t10.5 58.5t2 48.5q0 166 -69.5 258t-168.5 92q-72 0 -148.5 -52.5t-141 -142.5t-106.5 -208.5t-42 -254.5zM295 930q0 -143 4 -290.5t9.5 -289t10.5 -271.5t5 -237v-26q23 -41 44 -55.5t36 -14.5q27 0 43 12.5t25.5 27.5 t13.5 31.5t4 24.5q0 170 -7.5 368t-14.5 391.5t-14 367.5t-7 297v100q0 8 -8.5 17.5t-18.5 15.5t-18.5 9t-5.5 3q-4 0 -7 2h-4q-2 0 -3 1t-3 1h-16q-29 0 -44.5 -19.5t-17.5 -21.5t-2 -4t-2 -4q-2 -20 -2 -41v-43v-352z" />
<glyph unicode="&#xa3;" horiz-adv-x="1015" d="M-4 580q0 -45 11 -77t26.5 -52.5t31 -29.5t21.5 -9q23 0 57.5 15t94.5 34q4 -39 10 -89t6 -98q0 -45 -13.5 -76.5t-30.5 -56t-30.5 -45t-13.5 -45.5q0 -35 28.5 -59.5t84.5 -24.5q10 0 21 1t22 3q68 23 163 41.5t181 37t146 36.5t60 41q0 18 -7 42t-16 45.5t-19.5 36.5 t-16.5 15h-2q-33 -8 -91 -22.5t-120.5 -28.5t-119 -25.5t-85.5 -11.5q-20 0 -20 8v2q4 29 6 57.5t2 57.5q0 51 -5 97t-9 83q66 27 129 45.5t112 37t79 44t30 66.5q0 88 -7 129t-30 41q-18 0 -67.5 -16.5t-106.5 -36t-107.5 -37t-68.5 -19.5q-4 25 -7 51.5t-3 55.5 q0 94 35.5 148.5t92 83t125 41.5t134.5 28q25 4 34 35.5t9 74.5v39q0 53 -12.5 96.5t-65.5 43.5q-41 0 -99.5 -13.5t-119 -36t-112.5 -54t-81 -68.5q-51 -72 -69.5 -145t-18.5 -144q0 -74 12.5 -143.5t22.5 -133.5q-59 -20 -100 -34.5t-66 -26.5t-36 -24.5t-11 -30.5z" />
<glyph unicode="&#xa5;" horiz-adv-x="1024" d="M4 1004q0 -172 70.5 -268.5t193.5 -96.5q51 0 101 14q0 -55 -3.5 -138t-8.5 -174t-9 -180t-8 -157h156q29 170 48 338t19 303q0 16 -1 33.5t-1 34.5q166 117 257 274.5t91 355.5v41q0 29 -12 48.5t-66 19.5q-39 0 -50 -13.5t-16 -41t-13.5 -68.5t-38 -97t-92 -127 t-175.5 -155q-59 -43 -102 -43q-55 0 -84 63.5t-29 170.5q0 51 6.5 110t20.5 125q-6 2 -20 2q-84 0 -130.5 -41t-70 -100t-28.5 -123.5t-5 -109.5zM18 375q2 0 2 -2v-2q3 -2 5 -2q47 0 95 -2t95 -2h123h57q29 0 54 2h20q41 6 81 11t71.5 18.5t51 42t19.5 83.5v31q0 8 -2 12 v4q0 4 -3 6.5t-7 6.5h-6q-10 -4 -21 -4h-18h-19q-16 0 -34.5 -2.5t-34.5 -2.5h-307q-29 0 -68 -16t-72.5 -43t-57.5 -60.5t-24 -70.5v-8zM102 98q0 -23 32 -27.5t69 -4.5h131q8 0 16 1t17 1h32q63 8 127 7t123 3h21q20 10 37.5 39.5t30 63.5t18.5 63.5t6 40.5q0 12 -6 12h-2 q-2 0 -2 -2h-2h-9q-4 0 -6 -1t-6 -1h-143q-49 0 -100.5 2t-98.5 2h-57q-41 0 -69 -2t-32 -6l-16 -17q0 -10 -14.5 -31.5t-31.5 -44t-32.5 -40t-17.5 -17.5v2q-4 -16 -9.5 -25.5t-5.5 -17.5z" />
<glyph unicode="&#xa6;" horiz-adv-x="296" d="M6 1296q0 -68 6 -139.5t11 -138.5v-29q2 -31 2 -65q0 -35 4 -66t15 -52.5t40 -27.5h4q8 -2 25 -2h16q18 8 32.5 12.5t37.5 32.5q-4 76 -10.5 160t-12.5 164t-11 150.5t-7 123.5v68q-4 0 -29 10t-35 12h-22q-18 -4 -33 -8t-31 -14q-2 -23 -2 -49v-54v-88zM47 635 q0 -31 3 -85t5 -121t4 -138.5t2 -138.5v-148q0 -43 19.5 -53t48.5 -25h6q6 -2 19 -2h8q8 0 20.5 5t23.5 10.5t17 9.5l6 4q0 92 -4 201.5t-8 207.5v37q-6 51 -8 98.5t-9 83t-21.5 56t-45.5 20.5h-22q-29 0 -37 -5z" />
<glyph unicode="&#xa8;" horiz-adv-x="573" d="M111 1305q6 0 11 -1t11 -1q16 0 32.5 2t33.5 2q6 0 11 -1t9 -1q23 29 33 60.5t27 66.5q-37 6 -64 6q-30 0 -53 -8q-16 -29 -27.5 -64t-23.5 -61zM313 1300q8 -2 29 -2q16 0 32.5 1t33.5 1h14q23 29 33 61t26 66q-35 6 -59 7q-30 -1 -57 -11q-16 -27 -27.5 -61.5 t-24.5 -61.5z" />
<glyph unicode="&#xa9;" horiz-adv-x="1363" d="M6 694q0 -113 37 -233.5t116 -221t201.5 -165t292.5 -64.5q59 0 122 8.5t114 34.5l37 19q25 16 45 31.5t38.5 33t37 39t40.5 49.5l17 35q23 53 41 103.5t31.5 104.5t20.5 115.5t7 135.5q0 80 -13 167t-46 170t-90.5 156.5t-145.5 124.5q-18 16 -28.5 19.5t-20.5 13.5 l-55 14q-6 6 -27.5 12.5t-47 10.5t-49.5 6t-34 2q-66 0 -132 -18.5t-126 -50.5l-37 -19q-10 -4 -14 -9t-14 -9q-59 -68 -110.5 -126.5t-90.5 -111.5t-61.5 -105.5t-22.5 -109.5q-14 -51 -17.5 -86t-15.5 -76zM166 719q0 51 17.5 103t54 101.5t96 93.5t145.5 79q70 25 158 24 q86 0 164 -24.5t138 -75.5t95 -133t35 -195q0 -82 -32.5 -148.5t-88 -114.5t-130.5 -73.5t-161 -25.5q-63 0 -147 20.5t-161 66.5t-130 120.5t-53 181.5zM440 688q0 -43 6.5 -96t21.5 -99.5t44 -78t76 -31.5q41 0 92 5t98 5h21q29 29 28 78q0 23 -7 43.5t-21 34.5 q-35 -4 -69 -7t-66 -3q-86 0 -122 37.5t-36 111.5q0 25 10 65t27.5 77.5t40 64.5t47.5 27q18 0 24.5 -29t6.5 -70q0 -29 -1.5 -57.5t-3.5 -50.5q16 -37 50 -37q35 0 44 35t9 69v39q0 123 -34 191.5t-89 68.5q-16 0 -49 -10t-66 -50t-57.5 -118t-24.5 -215z" />
<glyph unicode="&#xab;" horiz-adv-x="946" d="M6 408q0 -10 27.5 -35t72 -56.5t96.5 -66.5t100 -67.5t87 -59.5t53 -41q23 6 35 23.5t29 74.5v4q0 12 -21.5 35t-52.5 49.5t-68.5 54t-68.5 53t-52.5 46.5t-21.5 31q0 14 36 42.5t79 59.5t79 59.5t36 47.5q0 14 -10.5 33.5t-27 39t-36 35.5t-37.5 23q-12 -4 -42 -31 t-66.5 -67t-76.5 -86t-73 -88t-54.5 -73.5t-21.5 -39.5zM340 432q0 -10 29.5 -36.5t74.5 -62.5t99.5 -75t104.5 -76t89 -65.5t54 -42.5q23 6 36 23.5t27 74.5v4q0 18 -43 53t-94 73t-94 71t-43 47q0 16 41 38.5t91 47t91 50.5t41 48q0 16 -9.5 39t-22.5 45.5t-30.5 41 t-36.5 24.5q-12 -4 -46.5 -25.5t-80 -54.5t-94.5 -72t-90 -73.5t-67.5 -61.5t-26.5 -35z" />
<glyph unicode="&#xad;" horiz-adv-x="729" d="M8 444q0 -23 10 -47h123t151 2t146.5 6.5t110.5 12.5q16 10 31.5 33.5t26.5 50t18.5 53.5t7.5 43q0 18 -8 18h-4q-10 -2 -51.5 -3t-98.5 -2t-122.5 -3t-122 -4t-97.5 -6t-47 -8q-29 -18 -51.5 -60.5t-22.5 -85.5z" />
<glyph unicode="&#xae;" horiz-adv-x="745" d="M2 995q0 -74 25.5 -129t62.5 -95t79 -64.5t77 -36.5l39 -8q10 -6 26.5 -9.5t28.5 -3.5h57q98 20 151.5 63.5t78 97.5t28.5 117.5t4 129.5v39q0 86 -24.5 143t-56 92t-60.5 49.5t-35 14.5h-2l4 -4q-23 14 -45 19t-45 11h-16q-6 0 -12.5 1t-12.5 1q-41 0 -82 -13t-96 -42 q-86 -76 -130 -174t-44 -199zM86 1032q0 59 41 117.5t133 95.5q37 14 88 15q47 0 90 -13.5t76 -41t52.5 -71.5t19.5 -104q0 -43 -18.5 -81t-50.5 -65.5t-74 -43t-91 -15.5q-35 0 -81 12.5t-87 38t-69.5 64.5t-28.5 92zM203 1104q0 -23 8 -39t29 -16h4q2 -10 6 -39t9 -58.5 t12.5 -52t17.5 -22.5q18 0 33 8q-4 6 -5.5 11t-3.5 15q35 -10 71 -21t73 -13q0 12 1 24t1 23q0 12 -14.5 22t-33 16.5t-36 11.5t-21.5 9q41 49 59.5 87t18.5 75q0 41 -17.5 67.5t-64.5 26.5q-20 0 -45.5 -9t-48.5 -25.5t-38 -42t-15 -58.5zM279 1098q8 20 21 39.5t56 21.5 q27 -2 27 -18t-23.5 -44t-54.5 -71q0 23 -9 45.5t-17 26.5z" />
<glyph unicode="&#xaf;" horiz-adv-x="1060" d="M18 1313q0 -27 15 -47h196q119 0 242 2t233.5 6t178.5 13q27 10 51 33.5t42.5 50t30 53t11.5 43.5q0 18 -17 18h-4q-14 -2 -80.5 -3t-158.5 -2t-196.5 -3t-196 -4t-156 -6t-74.5 -8q-47 -18 -82 -60.5t-35 -85.5z" />
<glyph unicode="&#xb0;" horiz-adv-x="475" d="M19 722q0 -62 19.5 -131.5t52 -129t75 -98.5t88.5 -39q43 0 78 33.5t59.5 83.5t38 107.5t13.5 105.5v11q-3 90 -8.5 164t-19.5 136t-39 114.5t-66 100.5q-21 19 -49 19q-35 0 -66.5 -23t-59 -61t-48.5 -87.5t-37 -102.5t-23.5 -106t-7.5 -97zM105 781v15q16 103 44.5 150 t64.5 47q27 0 50.5 -23t40.5 -62t26 -90t9 -107q0 -37 -5.5 -71t-16.5 -61t-29 -45.5t-42 -23.5h-2q-21 0 -45.5 22.5t-45.5 59.5t-35 86t-14 103z" />
<glyph unicode="&#xb1;" horiz-adv-x="931" d="M2 796q0 -39 10.5 -60t44 -30.5t97 -11.5t172.5 -2q0 -57 -3.5 -122.5t-3.5 -125.5q0 -31 25 -48t55 -17q25 0 47.5 12t34.5 39v283q43 2 104.5 26.5t119 55t100.5 60.5t51 42q6 14 6 37t-5 47t-13 45.5t-19.5 36t-21.5 14.5q-29 0 -71 -18.5t-88 -40t-92 -40t-83 -18.5 q-4 119 -4 217v144v2q0 14 -25 14t-57.5 -15.5t-42.5 -43.5v-191q0 -29 1 -51t1 -39q0 -20 -4 -32.5t-18.5 -18.5t-41 -8t-69.5 -2h-55h-54q-23 0 -43 -2q-29 -4 -42 -48t-13 -90zM151 118q0 -23 10 -47h123t151 2t146.5 6.5t110.5 12.5q16 10 31.5 33.5t26.5 50t18.5 53.5 t7.5 43q0 18 -8 18h-4q-10 -2 -51.5 -3t-98.5 -2t-122.5 -3t-122 -4t-97.5 -6t-47 -8q-29 -18 -51.5 -60.5t-22.5 -85.5z" />
<glyph unicode="&#xb2;" horiz-adv-x="444" d="M1 1007q0 -18 4.5 -36.5t11.5 -33t16 -24t17 -9.5q12 15 29.5 29.5t37.5 25.5t39.5 18t36.5 7q21 0 36 -15.5t24 -36t12.5 -41t3.5 -31.5q0 -44 -21 -96t-52 -100q-15 -22 -46.5 -55t-64 -70t-56.5 -75t-24 -70v-4q0 -31 31.5 -50.5t109.5 -19.5h27q26 0 65 -3t75 -3 q23 0 41.5 2t31.5 11t19 27t6 50q0 29 -9 53t-31 24q-19 -5 -42.5 -9t-46 -7.5t-45 -6.5t-39.5 -3q-21 0 -34 4t-13 14t15 25q59 59 99.5 115t65 108t35 99t10.5 89q0 75 -21.5 119.5t-51.5 68.5t-63.5 31t-55.5 7q-40 0 -77.5 -15.5t-80.5 -54.5q-14 -9 -19.5 -24t-5.5 -34 z" />
<glyph unicode="&#xb3;" horiz-adv-x="413" d="M17 1051q0 -27 9 -51t23 -26q43 0 78 7.5t75 10.5h12q17 0 22.5 -4t5.5 -11q0 -9 -8.5 -19t-14.5 -16q-22 -36 -39.5 -57t-35 -32.5t-36.5 -17.5t-43 -11q-7 0 -13 -8t-10.5 -19.5t-6 -26.5t-1.5 -30q0 -22 4.5 -38t16.5 -16q30 6 56.5 9.5t51.5 3.5q64 0 100.5 -20 t36.5 -52q0 -17 -16.5 -42t-40.5 -47t-49.5 -38.5t-45.5 -17.5q-23 7 -41 7q-30 0 -48.5 -17t-18.5 -45q0 -23 8 -40t21 -30t28.5 -20t31.5 -7q29 0 58.5 17.5t56.5 42.5t48.5 55t32.5 54q42 92 42 160q0 70 -40 108.5t-108 38.5q20 19 40.5 49t37 65t26.5 71.5t10 68.5 q0 44 -21.5 71t-74.5 27h-6q-9 0 -31.5 -1.5t-51.5 -6.5t-57.5 -13.5t-49.5 -22.5q-12 -6 -18 -24t-6 -39z" />
<glyph unicode="&#xb4;" horiz-adv-x="399" d="M6 1085h12q23 0 40.5 -1t33.5 -1q20 0 36.5 4.5t37.5 20.5q41 88 84 161.5t78 139.5q-6 14 -21.5 19.5t-34.5 5.5q-25 0 -51 -8.5t-47 -20.5q-20 -35 -49 -84t-55.5 -97t-45 -86t-18.5 -53z" />
<glyph unicode="&#xb7;" horiz-adv-x="307" d="M6 643l1 -1t3 -1h33q23 0 45.5 1t44.5 1h25q20 20 31.5 44t18.5 46.5t13 45t19 40.5q-16 0 -33 4.5t-33 4.5h-20h-23q-10 0 -18 -5h-9l-1 -1q-1 -1 -3 -1h-4q-4 0 -9 -2t-9 -4q-27 -43 -35 -76.5t-27 -72.5l-4 -8q-2 -4 -3 -7.5t-3 -7.5z" />
<glyph unicode="&#xb8;" horiz-adv-x="331" d="M10 -180q0 -18 16.5 -34.5t51.5 -16.5q37 0 68.5 14t56 36.5t38 47t13.5 47.5q0 29 -23.5 48.5t-78.5 21.5q4 8 4 12q0 8 -10.5 14t-43.5 10q-4 -16 -22.5 -40.5t-18.5 -57.5q0 -35 23 -35q16 0 32.5 13.5t55.5 13.5q23 0 23 -8q0 -6 -15.5 -20.5t-56.5 -39.5 q-6 0 -11.5 -1t-9.5 -1q-16 0 -22 3t-9 8.5t-4 8.5t-10 3h-8q-39 -12 -39 -47z" />
<glyph unicode="&#xb9;" horiz-adv-x="399" d="M12 422q0 -20 9.5 -41.5t19.5 -25.5h3q14 1 29 1h31h42q10 0 19 -0.5t19 -0.5h53q21 -1 40 -1q20 0 39 -1h51q1 0 2 0.5t3 0.5l12 1q7 5 15.5 12.5t8.5 21.5v16q-3 23 -6.5 37t-15 22t-33.5 11t-57 3h-47q-1 6 -1 13t-1 16v14q0 2 -0.5 6t-0.5 7v20q-1 28 -1 59v65v133 q1 30 1 61t1 63v12q1 37 1 73q0 35 1 70v72l-2 14t-8 13l-5 5q-10 8 -22 8q-5 0 -7 -1h-4q-13 -7 -18 -11.5t-5.5 -7t-0.5 -4.5q0 -1 -4 -5v-1q-1 -3 -1 -7v-5q0 -6 1 -8v-2q0 -44 -16.5 -78t-38.5 -59.5t-43.5 -42.5t-30.5 -24l-3 -4q-7 -7 -13 -16v-1q-7 -15 -7 -33v-13 q0 -21 14 -34t32 -13q20 0 34.5 7t23.5 17t14.5 20t10.5 16q0 -21 0.5 -58t1 -80.5t1 -89.5t1.5 -86t1.5 -69t0.5 -37q-4 0 -8 -1.5t-11 -1.5h-35q-31 0 -57 -7t-33 -26v-14z" />
<glyph unicode="&#xbb;" horiz-adv-x="925" d="M-2 193q14 -57 26.5 -75t34.5 -24q14 14 53.5 46t88.5 71t102 83t97 82t73 67.5t29 39.5q0 8 -25.5 33t-65.5 56.5t-88.5 65.5t-92.5 63.5t-78.5 49t-47.5 23.5q-16 -6 -33.5 -24.5t-31.5 -42t-23.5 -46t-9.5 -38.5q0 -13 4 -17q20 -20 65.5 -39.5t91.5 -38t80 -35 t34 -30.5t-44 -50t-97.5 -78t-97.5 -81t-44 -57v-4zM346 201q14 -57 27.5 -74.5t36.5 -24.5q14 14 53 48t89 78t104.5 93.5t99.5 92.5t73.5 74.5t28.5 41.5q0 8 -22.5 33t-56.5 54.5t-75.5 63.5t-80.5 61.5t-70 48t-43 22.5q-18 -6 -37.5 -22.5t-36 -36t-27 -39t-10.5 -33.5 q0 -6 4 -14q20 -18 59.5 -46t76 -56.5t64.5 -53.5t28 -39q0 -10 -21.5 -29.5t-52.5 -45t-68.5 -54.5t-68.5 -55.5t-52.5 -49t-21.5 -34.5v-4z" />
<glyph unicode="&#xbc;" horiz-adv-x="1372" d="M21 483q0 -27 12.5 -55.5t25.5 -33.5h5q18 2 38 2h42h56q12 0 24.5 -1t25.5 -1h70q28 -2 54 -2q27 0 52 -1h67q2 0 3.5 0.5t4.5 0.5l15 2q10 6 21 16t11 30v21q-4 30 -8.5 48.5t-20 29.5t-44.5 15t-76 4h-62q-2 8 -2 17q0 10 -1 22v18q0 3 -1 8t-1 10v26q-1 38 -1 79v87 v176q1 41 1 82t2 84v16q1 48 1 96t2 94v97q-2 9 -3.5 18t-10.5 18l-6 6q-14 11 -30 11q-6 0 -9 -1h-5q-18 -10 -24.5 -16t-7.5 -9t-1 -7q0 -1 -4 -6v-2q-2 -3 -2 -9v-6q0 -8 2 -11v-3q0 -58 -22.5 -103.5t-51.5 -80t-58 -56.5t-40 -32l-5 -5q-9 -9 -16 -21v-2 q-10 -20 -10 -44v-17q0 -28 18.5 -45.5t42.5 -17.5q27 0 46 9.5t31 23t19.5 26.5t13.5 21q0 -28 1 -77t2 -107t1.5 -119.5t1.5 -114.5t1.5 -91.5t0.5 -49.5q-4 0 -10 -2t-14 -2h-47q-41 0 -76 -9.5t-44 -34.5v-19zM282 -43q0 -63 39 -63q23 0 49.5 23.5t51.5 70.5 q96 180 167.5 335.5t140 299t147.5 281.5t190 284q8 14 8 31q0 27 -21.5 44t-50.5 17q-18 0 -38.5 -8t-37.5 -27q-92 -137 -176 -275.5t-160.5 -284.5t-148 -300t-139.5 -322q-20 -61 -21 -106zM583 166q0 -20 2 -35.5t10 -27t24 -17t45 -5.5q40 0 104.5 11t162.5 35 q8 -24 15.5 -54t13.5 -64t11 -70.5t10 -69.5q16 -5 37 -5q22 0 45 5q0 105 -11.5 175.5t-18.5 121.5q11 5 28 8.5t32.5 10.5t26 21t10.5 42q0 46 -4 93.5t-6 60.5q-33 -11 -58.5 -22t-63.5 -22q-8 106 -9.5 217.5t-4.5 201.5t-10.5 147.5t-23.5 57.5q-24 0 -55 -39.5 t-64.5 -101t-68 -135t-63 -142.5t-50 -123t-29.5 -75q-12 -35 -24.5 -92t-12.5 -108zM712 300q21 69 61 160t106 194q2 -38 4 -79.5t4.5 -83.5t8 -81t11.5 -71q-42 -11 -95 -23.5t-100 -15.5z" />
<glyph unicode="&#xbd;" horiz-adv-x="1404" d="M27 470q0 -27 12.5 -55.5t25.5 -33.5h5q18 2 38 2h42h56q12 0 24.5 -1t25.5 -1h70q28 -2 54 -2q27 0 52 -1h67q2 0 3.5 0.5t4.5 0.5l15 2q10 6 21 16t11 30v21q-4 30 -8.5 48.5t-20 29.5t-44.5 15t-76 4h-62q-2 8 -2 17q0 10 -1 22v18q0 3 -1 8t-1 10v26q-1 38 -1 79v87 v176q1 41 1 82t2 84v16q1 48 1 96t2 94v97q-2 9 -3.5 18t-10.5 18l-6 6q-14 11 -30 11q-6 0 -9 -1h-5q-18 -10 -24.5 -16t-7.5 -9t-1 -7q0 -1 -4 -6v-2q-2 -3 -2 -9v-6q0 -8 2 -11v-3q0 -58 -22.5 -103.5t-51.5 -80t-58 -56.5t-40 -32l-5 -5q-9 -9 -16 -21v-2 q-10 -20 -10 -44v-17q0 -28 18.5 -45.5t42.5 -17.5q27 0 46 9.5t31 23t19.5 26.5t13.5 21q0 -28 1 -77t2 -107t1.5 -119.5t1.5 -114.5t1.5 -91.5t0.5 -49.5q-4 0 -10 -2t-14 -2h-47q-41 0 -76 -9.5t-44 -34.5v-19zM254 -43q0 -63 39 -63q23 0 49.5 23.5t51.5 70.5 q96 180 167.5 335.5t140 299t147.5 281.5t190 284q8 14 8 31q0 27 -21.5 44t-50.5 17q-18 0 -38.5 -8t-37.5 -27q-92 -137 -176 -275.5t-160.5 -284.5t-148 -300t-139.5 -322q-20 -61 -21 -106zM581 676q0 -25 6 -49.5t15.5 -44t21.5 -32t23 -12.5q16 20 39 39.5t49.5 34 t52.5 23.5t49 9q28 0 48 -20t32.5 -47.5t17 -55t4.5 -42.5q0 -58 -28 -127.5t-70 -133.5q-20 -30 -62 -74t-85.5 -93t-75 -100t-31.5 -93v-5q0 -42 41.5 -67.5t146.5 -25.5h36q34 0 86 -4t100 -4q31 0 55.5 2t42 14.5t25.5 36t8 66.5q0 39 -12.5 71t-40.5 32 q-26 -6 -57.5 -12t-61.5 -10.5t-59.5 -8t-52.5 -3.5q-28 0 -45.5 5t-17.5 18q0 14 20 34q79 79 133 153.5t87 143.5t47 131.5t14 118.5q0 100 -29 160t-69 92t-84.5 41t-74.5 9q-53 0 -103 -20.5t-108 -73.5q-19 -11 -26 -31.5t-7 -44.5z" />
<glyph unicode="&#xbe;" horiz-adv-x="1269" d="M3 1186q0 -36 11.5 -68t29.5 -35q58 0 104.5 10t100.5 15h16q22 0 29 -6t7 -14q0 -13 -10.5 -26.5t-18.5 -21.5q-30 -47 -53.5 -75t-46.5 -43.5t-48.5 -23.5t-56.5 -15q-10 0 -18.5 -10.5t-14 -26t-8 -35t-2.5 -39.5q0 -30 6.5 -51t21.5 -21q41 8 76.5 12.5t67.5 4.5 q85 0 134.5 -26.5t49.5 -69.5q0 -23 -22 -55.5t-54 -62.5t-66.5 -52t-61.5 -23q-29 9 -53 9q-41 0 -66 -22.5t-25 -60.5q0 -29 11 -52t28 -40t38.5 -26.5t41.5 -9.5q39 0 78 23t75 56.5t65 73t44 72.5q56 121 56 213q0 93 -53.5 144t-143.5 51q26 26 53 66t49.5 86.5 t35.5 95t13 91.5q0 57 -29 93.5t-99 36.5h-8q-11 0 -41.5 -2.5t-68.5 -8.5t-76.5 -17.5t-66.5 -29.5q-16 -8 -23.5 -32t-7.5 -52zM278 -43q0 -63 39 -63q23 0 49.5 23.5t51.5 70.5q96 180 167.5 335.5t140 299t147.5 281.5t190 284q8 14 8 31q0 27 -21.5 44t-50.5 17 q-18 0 -38.5 -8t-37.5 -27q-92 -137 -176 -275.5t-160.5 -284.5t-148 -300t-139.5 -322q-20 -61 -21 -106zM539 146q0 -20 2 -35.5t10 -27t24 -17t45 -5.5q40 0 104.5 11t162.5 35q8 -24 15.5 -54t13.5 -64t11 -70.5t10 -69.5q16 -5 37 -5q22 0 45 5q0 105 -11.5 175.5 t-18.5 121.5q11 5 28 8.5t32.5 10.5t26 21t10.5 42q0 46 -4 93.5t-6 60.5q-33 -11 -58.5 -22t-63.5 -22q-8 106 -9.5 217.5t-4.5 201.5t-10.5 147.5t-23.5 57.5q-24 0 -55 -39.5t-64.5 -101t-68 -135t-63 -142.5t-50 -123t-29.5 -75q-12 -35 -24.5 -92t-12.5 -108zM668 280 q21 69 61 160t106 194q2 -38 4 -79.5t4.5 -83.5t8 -81t11.5 -71q-42 -11 -95 -23.5t-100 -15.5z" />
<glyph unicode="&#xbf;" horiz-adv-x="720" d="M10 -53v-29q4 -55 34 -95t73 -67.5t95 -44t101 -26.5l31 -7q37 -8 69.5 -9t55.5 -1h25q98 0 148 11.5t72.5 30t30 41t21.5 46.5l18 37q12 35 27.5 63.5t15.5 57.5v4q0 16 -10 16h-10q-63 -4 -118.5 -7t-102.5 -7h-31q-10 0 -18.5 -1t-18.5 -1h-80q-78 2 -122 7 t-66.5 13.5t-28.5 18.5t-6 22v33q0 31 17.5 69t48.5 83l12 18q18 29 40.5 57.5t43.5 57.5l18 24q35 45 62.5 85t27.5 90v10q-6 29 -12 44t-13 22.5t-14.5 10.5t-13.5 9l-12 6q-16 10 -30.5 12t-29.5 6h-6q-37 0 -61.5 -21.5t-40.5 -49t-26.5 -53t-18.5 -33.5 q-2 -10 -3 -19.5t-1 -19.5q0 -20 7 -34.5t15 -24t13.5 -12.5t3.5 -1q-39 -51 -80 -110.5t-75 -119t-55.5 -114.5t-21.5 -98zM98 844q4 -29 23.5 -46.5t46.5 -23.5h25q4 2 9 3t9 5l4 4l55 68q33 49 50.5 81t25.5 53.5t9 34.5t3 26v10q0 25 -11 41t-32 16h-4 q-74 -74 -115.5 -116t-61 -64.5t-24 -31.5t-4.5 -19l-6 -17q-2 -6 -2 -16v-8z" />
<glyph unicode="&#xc0;" horiz-adv-x="706" d="M6 135q4 -37 5 -57.5t2 -32.5t4.5 -18.5t9.5 -12.5q20 -2 35.5 -4t31.5 -2h10q10 0 17.5 9.5t13.5 17.5l6 12q33 84 38 125t8 62.5t17.5 36t67.5 46.5l37 19q31 10 60.5 21.5t62.5 15.5v-86q6 -84 14.5 -124t15.5 -56.5t13 -16.5q8 0 10 -4l19 -18q27 -16 57 -17h14 q2 0 3.5 1t3.5 1l6 2q23 6 30 20.5t13 26.5v4q-18 193 -29.5 369t-23 331t-26.5 285t-40 230l-6 18q-14 39 -31.5 63.5t-42.5 24.5q-20 0 -45 -21.5t-39 -43.5l-12 -19q-47 -66 -90 -154.5t-80 -192t-66.5 -213t-50 -216t-32 -204t-11.5 -175.5v-53zM229 596 q0 43 14.5 100.5t34 111.5t39 96t29.5 52l6 -6q18 -39 24.5 -86t6.5 -82v-32q0 -47 -18.5 -82t-45.5 -45l-4 -5q-29 -8 -44 -15t-42 -7zM362 1602q0 -4 8.5 -23.5t19.5 -41t22.5 -38t15.5 -16.5h2q6 0 14.5 5t16.5 13t14 15.5t6 11.5v2q0 8 -8 26.5t-18.5 38t-19.5 35 t-13 15.5h-2q-10 0 -32.5 -17.5t-25.5 -25.5z" />
<glyph unicode="&#xc1;" horiz-adv-x="706" d="M6 135q4 -37 5 -57.5t2 -32.5t4.5 -18.5t9.5 -12.5q20 -2 35.5 -4t31.5 -2h10q10 0 17.5 9.5t13.5 17.5l6 12q33 84 38 125t8 62.5t17.5 36t67.5 46.5l37 19q31 10 60.5 21.5t62.5 15.5v-86q6 -84 14.5 -124t15.5 -56.5t13 -16.5q8 0 10 -4l19 -18q27 -16 57 -17h14 q2 0 3.5 1t3.5 1l6 2q23 6 30 20.5t13 26.5v4q-18 193 -29.5 369t-23 331t-26.5 285t-40 230l-6 18q-14 39 -31.5 63.5t-42.5 24.5q-20 0 -45 -21.5t-39 -43.5l-12 -19q-47 -66 -90 -154.5t-80 -192t-66.5 -213t-50 -216t-32 -204t-11.5 -175.5v-53zM229 596 q0 43 14.5 100.5t34 111.5t39 96t29.5 52l6 -6q18 -39 24.5 -86t6.5 -82v-32q0 -47 -18.5 -82t-45.5 -45l-4 -5q-29 -8 -44 -15t-42 -7zM375 1518q0 -4 6 -11.5t14 -15.5t16.5 -13t14.5 -5h2q4 0 15.5 16t22.5 37.5t19.5 41t8.5 23.5t-7.5 11.5t-16.5 15.5t-19.5 13t-14.5 5 h-2q-4 -2 -13 -17t-19.5 -35.5t-18.5 -39t-8 -24.5v-2z" />
<glyph unicode="&#xc2;" horiz-adv-x="706" d="M6 135q4 -37 5 -57.5t2 -32.5t4.5 -18.5t9.5 -12.5q20 -2 35.5 -4t31.5 -2h10q10 0 17.5 9.5t13.5 17.5l6 12q33 84 38 125t8 62.5t17.5 36t67.5 46.5l37 19q31 10 60.5 21.5t62.5 15.5v-86q6 -84 14.5 -124t15.5 -56.5t13 -16.5q8 0 10 -4l19 -18q27 -16 57 -17h14 q2 0 3.5 1t3.5 1l6 2q23 6 30 20.5t13 26.5v4q-18 193 -29.5 369t-23 331t-26.5 285t-40 230l-6 18q-14 39 -31.5 63.5t-42.5 24.5q-20 0 -45 -21.5t-39 -43.5l-12 -19q-47 -66 -90 -154.5t-80 -192t-66.5 -213t-50 -216t-32 -204t-11.5 -175.5v-53zM229 596 q0 43 14.5 100.5t34 111.5t39 96t29.5 52l6 -6q18 -39 24.5 -86t6.5 -82v-32q0 -47 -18.5 -82t-45.5 -45l-4 -5q-29 -8 -44 -15t-42 -7zM258 1507q0 -4 4 -8l2 -2q8 -8 20.5 -10t24.5 -2h2q27 0 41.5 20.5t26.5 32.5l14 14q4 4 8 4h2q8 -4 23.5 -25.5t19.5 -25.5l13 -12 q14 -14 22 -14h8q4 2 11 4l8 2l12 6q2 2 4 2t6 2l5 4q2 2 4 2t4 2l8 8q14 14 14 31v6q0 2 -1 3t-1 3l-6 7q-23 37 -46.5 59t-41.5 36.5t-29.5 19.5t-9.5 5h-4q-10 0 -25.5 -14t-21.5 -18l-23 -23q-20 -20 -44.5 -48t-53.5 -65v-6z" />
<glyph unicode="&#xc3;" horiz-adv-x="706" d="M6 135q4 -37 5 -57.5t2 -32.5t4.5 -18.5t9.5 -12.5q20 -2 35.5 -4t31.5 -2h10q10 0 17.5 9.5t13.5 17.5l6 12q33 84 38 125t8 62.5t17.5 36t67.5 46.5l37 19q31 10 60.5 21.5t62.5 15.5v-86q6 -84 14.5 -124t15.5 -56.5t13 -16.5q8 0 10 -4l19 -18q27 -16 57 -17h14 q2 0 3.5 1t3.5 1l6 2q23 6 30 20.5t13 26.5v4q-18 193 -29.5 369t-23 331t-26.5 285t-40 230l-6 18q-14 39 -31.5 63.5t-42.5 24.5q-20 0 -45 -21.5t-39 -43.5l-12 -19q-47 -66 -90 -154.5t-80 -192t-66.5 -213t-50 -216t-32 -204t-11.5 -175.5v-53zM229 596 q0 43 14.5 100.5t34 111.5t39 96t29.5 52l6 -6q18 -39 24.5 -86t6.5 -82v-32q0 -47 -18.5 -82t-45.5 -45l-4 -5q-29 -8 -44 -15t-42 -7zM285 1505q16 16 44.5 25.5t57.5 9.5q27 0 49.5 -11t40.5 -11q35 0 62.5 34.5t27.5 67.5v10q-27 -16 -44 -22t-31 -6q-16 0 -27.5 6 t-22 12t-20.5 12t-25 6q-35 0 -71.5 -35t-40.5 -98z" />
<glyph unicode="&#xc4;" horiz-adv-x="706" d="M6 135q4 -37 5 -57.5t2 -32.5t4.5 -18.5t9.5 -12.5q20 -2 35.5 -4t31.5 -2h10q10 0 17.5 9.5t13.5 17.5l6 12q33 84 38 125t8 62.5t17.5 36t67.5 46.5l37 19q31 10 60.5 21.5t62.5 15.5v-86q6 -84 14.5 -124t15.5 -56.5t13 -16.5q8 0 10 -4l19 -18q27 -16 57 -17h14 q2 0 3.5 1t3.5 1l6 2q23 6 30 20.5t13 26.5v4q-18 193 -29.5 369t-23 331t-26.5 285t-40 230l-6 18q-14 39 -31.5 63.5t-42.5 24.5q-20 0 -45 -21.5t-39 -43.5l-12 -19q-47 -66 -90 -154.5t-80 -192t-66.5 -213t-50 -216t-32 -204t-11.5 -175.5v-53zM229 596 q0 43 14.5 100.5t34 111.5t39 96t29.5 52l6 -6q18 -39 24.5 -86t6.5 -82v-32q0 -47 -18.5 -82t-45.5 -45l-4 -5q-29 -8 -44 -15t-42 -7zM285 1503q4 0 9 -1t9 -1q14 0 28.5 2t26.5 2q4 0 8.5 -1t8.5 -1q20 25 28.5 51.5t20.5 55.5q-14 2 -26.5 3t-22.5 1q-27 0 -47 -6 q-12 -23 -22.5 -52.5t-20.5 -52.5zM455 1499h12q14 0 27.5 1t27.5 1q16 0 23 -2q20 25 28.5 51.5t20.5 55.5q-16 2 -28.5 3t-22.5 1q-27 0 -45 -6q-14 -23 -23.5 -52.5t-19.5 -52.5z" />
<glyph unicode="&#xc5;" horiz-adv-x="565" d="M6 135q4 -37 5 -57.5t2 -32.5t4.5 -18.5t9.5 -12.5q20 -2 35.5 -4t31.5 -2h10q10 0 17.5 9.5t13.5 17.5l6 12q33 84 38 125t8 62.5t17.5 36t67.5 46.5l37 19q31 10 60.5 21.5t62.5 15.5v-86q6 -84 14.5 -124t15.5 -56.5t13 -16.5q8 0 10 -4l19 -18q27 -16 57 -17h14 q2 0 3.5 1t3.5 1l6 2q23 6 30 20.5t13 26.5v4q-18 193 -29.5 369t-23 331t-26.5 285t-40 230l-6 18q-14 39 -31.5 63.5t-42.5 24.5q-20 0 -45 -21.5t-39 -43.5l-12 -19q-47 -66 -90 -154.5t-80 -192t-66.5 -213t-50 -216t-32 -204t-11.5 -175.5v-53zM229 596 q0 43 14.5 100.5t34 111.5t39 96t29.5 52l6 -6q18 -39 24.5 -86t6.5 -82v-32q0 -47 -18.5 -82t-45.5 -45l-4 -5q-29 -8 -44 -15t-42 -7zM250 1651q0 -59 17.5 -90t38 -45.5t38.5 -17.5t23 -3l18 -4q6 -2 13.5 -4t13.5 -2h28q43 8 64.5 20.5t31 25.5t12.5 27.5t9 28.5v15 q6 6 7 31.5t1 47.5v19q0 4 -1 9t-1 11v6q-4 41 -21.5 67t-38 41t-40 20.5t-25.5 5.5q-2 0 -3 -1l-1 -1l1 -2q1 -1 3 -1h-8q-4 0 -5 1.5t-5 1.5q-12 0 -42 -6.5t-44 -20.5q-47 -41 -65.5 -89t-18.5 -91zM291 1673q0 27 18.5 54t63.5 45q18 6 41 6q45 0 80.5 -27t35.5 -84 q0 -43 -32.5 -69.5t-77.5 -26.5q-18 0 -40 6t-42.5 18.5t-33.5 32t-13 45.5z" />
<glyph unicode="&#xc6;" horiz-adv-x="1073" d="M0 158q0 -33 2 -67t9 -60.5t20.5 -43t38.5 -16.5q41 0 53 18.5t12 43.5q0 16 -2 30.5t-2 24.5v25q0 37 1 69.5t9 67.5q14 6 39 15t51.5 20.5t54 21.5t50.5 19q6 -33 12 -74t12.5 -82t12.5 -82t16 -74q16 0 32.5 -1t35.5 -1q98 0 216 7.5t240 11.5q14 0 25.5 19.5t21 50 t14.5 67.5t5 70q0 41 -8 68.5t-27 27.5q-45 -4 -99 -7t-108.5 -6.5t-102.5 -6.5t-79 -5q-6 27 -9 37t-4 15.5t-2 11.5t-3 24q23 8 54.5 21.5t66 27t68.5 26.5t58 26q16 4 24.5 33.5t8.5 70.5q0 29 -4 58.5t-10 54t-15.5 40t-19.5 15.5q-16 0 -49 -11t-73 -26.5t-83 -33 t-80 -29.5q-8 39 -13 90t-7 98t-2 84v51q39 18 138 37t286 27q10 0 18 17.5t13.5 45t8.5 61t3 68.5q0 53 -9.5 93t-25.5 40h-33q-41 0 -102.5 -4t-129 -11t-138 -18.5t-132 -25.5t-106.5 -31.5t-64 -38.5q-35 -70 -67.5 -184.5t-60 -251.5t-44 -286.5t-16.5 -290.5v-82z M158 532q0 37 9 91.5t23.5 107.5t31 98t28.5 62q4 0 10 -34t13.5 -80t13.5 -96t8 -83q-10 -6 -28.5 -16.5t-39 -19.5t-39 -17.5t-30.5 -12.5z" />
<glyph unicode="&#xc7;" horiz-adv-x="878" d="M4 606q0 -141 39 -277t127 -247q33 -41 96.5 -57.5t141.5 -16.5q86 0 173.5 16.5t155.5 45.5q35 31 50.5 70.5t15.5 80.5q0 70 -43 119q-74 -23 -148.5 -32t-140.5 -9q-90 0 -148.5 16.5t-93 50t-48 82t-13.5 113.5q0 115 53 242t150 227q43 55 82 55q37 0 68.5 -49 t58 -108.5t52 -108.5t50.5 -49q29 0 46 26.5t26.5 62.5t12.5 73t3 57q0 104 -21.5 186t-58.5 137.5t-87 85t-105 29.5q-80 0 -167 -65.5t-160 -177t-120 -261t-47 -317.5zM342 -135q0 -14 13.5 -25.5t37.5 -11.5q25 0 47.5 11t40 26.5t27.5 34t10 32.5q0 20 -17.5 34 t-56.5 16q4 6 7.5 14t7.5 16l-49 -4q-4 -12 -17.5 -31.5t-13.5 -39.5q0 -25 16 -25q12 0 24.5 9t39.5 9q16 0 16 -6q0 -4 -11 -14t-40 -27h-16q-23 0 -23 8q0 6 -10 7h-4q-29 -10 -29 -33z" />
<glyph unicode="&#xc8;" d="M6 518q0 -145 3 -278.5t14 -233.5q70 0 127 1t108 3t101.5 4t109.5 4q37 2 74 3.5t66.5 26t47 81.5t17.5 170q0 16 -14.5 26.5t-55.5 10.5h-22q-109 -6 -200 -14.5t-171 -8.5q-4 57 -6 92t-2 84q49 16 95 33t112 35q45 8 68.5 15.5t32.5 21.5t10 43t1 80v6q0 14 1 27.5 t1 27.5q0 27 -10 46.5t-49 19.5q-25 0 -57.5 -8.5t-68.5 -20.5t-72 -25.5t-66 -21.5q-2 43 -4 93t-2 97v35q0 19 2 33q27 25 83 34t120.5 13t127 7t101.5 18q18 4 33.5 38.5t26.5 79t16.5 88.5t5.5 68q0 27 -14.5 41t-55.5 14q-51 0 -115.5 -4t-132 -11t-133 -17.5 t-117 -23.5t-83 -27.5t-31.5 -30.5q-4 -61 -8.5 -150.5t-7.5 -195t-5 -220t-2 -229.5zM322 1620q0 -4 8 -23.5t19 -41t22.5 -38t15.5 -16.5h2q6 0 14.5 5t16.5 13.5t14 15.5t6 11v2q0 8 -8 26.5t-18.5 38t-19.5 35t-13 15.5h-2q-10 0 -32.5 -17.5t-24.5 -25.5z" />
<glyph unicode="&#xc9;" d="M6 518q0 -145 3 -278.5t14 -233.5q70 0 127 1t108 3t101.5 4t109.5 4q37 2 74 3.5t66.5 26t47 81.5t17.5 170q0 16 -14.5 26.5t-55.5 10.5h-22q-109 -6 -200 -14.5t-171 -8.5q-4 57 -6 92t-2 84q49 16 95 33t112 35q45 8 68.5 15.5t32.5 21.5t10 43t1 80v6q0 14 1 27.5 t1 27.5q0 27 -10 46.5t-49 19.5q-25 0 -57.5 -8.5t-68.5 -20.5t-72 -25.5t-66 -21.5q-2 43 -4 93t-2 97v35q0 19 2 33q27 25 83 34t120.5 13t127 7t101.5 18q18 4 33.5 38.5t26.5 79t16.5 88.5t5.5 68q0 27 -14.5 41t-55.5 14q-51 0 -115.5 -4t-132 -11t-133 -17.5 t-117 -23.5t-83 -27.5t-31.5 -30.5q-4 -61 -8.5 -150.5t-7.5 -195t-5 -220t-2 -229.5zM293 1538q0 -4 6 -11t14.5 -15.5t16.5 -13.5t14 -5h2q4 0 15.5 16.5t22.5 38t19.5 41t8.5 23.5t-7.5 11t-16.5 15.5t-19.5 13.5t-14.5 5h-2q-4 -2 -13 -17.5t-19.5 -36t-18.5 -39 t-8 -24.5v-2z" />
<glyph unicode="&#xca;" d="M6 518q0 -145 3 -278.5t14 -233.5q70 0 127 1t108 3t101.5 4t109.5 4q37 2 74 3.5t66.5 26t47 81.5t17.5 170q0 16 -14.5 26.5t-55.5 10.5h-22q-109 -6 -200 -14.5t-171 -8.5q-4 57 -6 92t-2 84q49 16 95 33t112 35q45 8 68.5 15.5t32.5 21.5t10 43t1 80v6q0 14 1 27.5 t1 27.5q0 27 -10 46.5t-49 19.5q-25 0 -57.5 -8.5t-68.5 -20.5t-72 -25.5t-66 -21.5q-2 43 -4 93t-2 97v35q0 19 2 33q27 25 83 34t120.5 13t127 7t101.5 18q18 4 33.5 38.5t26.5 79t16.5 88.5t5.5 68q0 27 -14.5 41t-55.5 14q-51 0 -115.5 -4t-132 -11t-133 -17.5 t-117 -23.5t-83 -27.5t-31.5 -30.5q-4 -61 -8.5 -150.5t-7.5 -195t-5 -220t-2 -229.5zM217 1507q0 -4 4 -8l2 -2q8 -8 20.5 -10t24.5 -2h2q27 0 41.5 20.5t26.5 32.5l14 14q4 4 8 4h2q8 -4 23.5 -25.5t20.5 -25.5l12 -12q14 -14 22 -14h9q4 2 11 4l7 2l12 6q2 2 4 2t6 2l5 4 q2 2 4 2t4 2l8 8q14 14 14 31v6q0 2 -1 3t-1 3l-6 7q-23 37 -46.5 59t-41.5 36.5t-29.5 19.5t-9.5 5h-4q-10 0 -25.5 -14t-21.5 -18l-23 -23q-20 -20 -44.5 -48t-53.5 -65v-6z" />
<glyph unicode="&#xcb;" d="M6 518q0 -145 3 -278.5t14 -233.5q70 0 127 1t108 3t101.5 4t109.5 4q37 2 74 3.5t66.5 26t47 81.5t17.5 170q0 16 -14.5 26.5t-55.5 10.5h-22q-109 -6 -200 -14.5t-171 -8.5q-4 57 -6 92t-2 84q49 16 95 33t112 35q45 8 68.5 15.5t32.5 21.5t10 43t1 80v6q0 14 1 27.5 t1 27.5q0 27 -10 46.5t-49 19.5q-25 0 -57.5 -8.5t-68.5 -20.5t-72 -25.5t-66 -21.5q-2 43 -4 93t-2 97v35q0 19 2 33q27 25 83 34t120.5 13t127 7t101.5 18q18 4 33.5 38.5t26.5 79t16.5 88.5t5.5 68q0 27 -14.5 41t-55.5 14q-51 0 -115.5 -4t-132 -11t-133 -17.5 t-117 -23.5t-83 -27.5t-31.5 -30.5q-4 -61 -8.5 -150.5t-7.5 -195t-5 -220t-2 -229.5zM223 1503q4 0 9.5 -1t9.5 -1q14 0 28.5 2t26.5 2q4 0 8 -1t8 -1q20 25 28.5 51.5t20.5 55.5q-14 2 -26 3t-23 1q-27 0 -47 -6q-12 -23 -22.5 -52.5t-20.5 -52.5zM393 1499h13q14 0 27 1 t28 1q16 0 22 -2q20 25 28.5 51.5t20.5 55.5q-16 2 -28 3t-23 1q-27 0 -45 -6q-14 -23 -23.5 -52.5t-19.5 -52.5z" />
<glyph unicode="&#xcc;" horiz-adv-x="342" d="M14 715q0 -117 3 -227.5t6.5 -206t7.5 -167t4 -108.5q29 -23 67 -22q39 0 61.5 15t35 39.5t16.5 56.5t4 67q0 186 -7 378.5t-7 385.5q0 102 4 200.5t16 190.5q-35 29 -82 29q-53 0 -86 -33q-27 -119 -35 -276.5t-8 -321.5zM55 1559q0 -4 8.5 -23.5t19.5 -41t22.5 -38 t15.5 -16.5h2q6 0 14 5t16.5 13t14.5 15.5t6 11.5v2q0 8 -8 26.5t-18.5 38t-19.5 35t-13 15.5h-2q-10 0 -33 -17.5t-25 -25.5z" />
<glyph unicode="&#xcd;" horiz-adv-x="342" d="M14 715q0 -117 3 -227.5t6.5 -206t7.5 -167t4 -108.5q29 -23 67 -22q39 0 61.5 15t35 39.5t16.5 56.5t4 67q0 186 -7 378.5t-7 385.5q0 102 4 200.5t16 190.5q-35 29 -82 29q-53 0 -86 -33q-27 -119 -35 -276.5t-8 -321.5zM88 1456q0 -4 6 -11t14.5 -15.5t16.5 -13.5 t14 -5h2q4 0 15.5 16.5t22.5 38t19.5 41t8.5 23.5t-7 11t-16.5 15.5t-19.5 13.5t-14 5h-3q-4 -2 -13 -17.5t-19.5 -36t-18.5 -39t-8 -24.5v-2z" />
<glyph unicode="&#xce;" horiz-adv-x="342" d="M0 1419l2 -10q2 -6 14.5 -11t18.5 -5h18q18 0 33.5 11t27 23.5t19.5 23.5t12 11q2 0 27 -30l6 -7q2 -2 3 -4t3 -4l6 -6l18.5 -18.5t10.5 -8.5h12q10 10 20.5 14.5t20 7.5t17.5 9t16 23v2v2q2 0 2 2v12q0 16 -15.5 34.5t-32.5 34t-31.5 26t-12.5 8.5q-6 6 -12 9t-10 7 l-7 6q-4 0 -8 3t-8 3q-29 0 -57.5 -23.5t-52 -53t-40 -57.5t-20.5 -34zM14 715q0 -117 3 -227.5t6.5 -206t7.5 -167t4 -108.5q29 -23 67 -22q39 0 61.5 15t35 39.5t16.5 56.5t4 67q0 186 -7 378.5t-7 385.5q0 102 4 200.5t16 190.5q-35 29 -82 29q-53 0 -86 -33 q-27 -119 -35 -276.5t-8 -321.5z" />
<glyph unicode="&#xcf;" horiz-adv-x="342" d="M-2 1462q4 0 9 -1t9 -1q14 0 28.5 2t27.5 2q4 0 8 -1t8 -1q20 25 28.5 51.5t20.5 55.5q-14 2 -26.5 3t-22.5 1q-27 0 -47 -6q-12 -23 -22.5 -52.5t-20.5 -52.5zM14 715q0 -117 3 -227.5t6.5 -206t7.5 -167t4 -108.5q29 -23 67 -22q39 0 61.5 15t35 39.5t16.5 56.5t4 67 q0 186 -7 378.5t-7 385.5q0 102 4 200.5t16 190.5q-35 29 -82 29q-53 0 -86 -33q-27 -119 -35 -276.5t-8 -321.5zM168 1458h12q14 0 27.5 1t28.5 1q16 0 22 -2q20 25 28.5 51.5t20.5 55.5q-16 2 -28.5 3t-22.5 1q-27 0 -45 -6q-14 -23 -23.5 -52.5t-19.5 -52.5z" />
<glyph unicode="&#xd0;" horiz-adv-x="1114" d="M-10 567q0 -23 10 -47h123t151 2t146.5 6.5t110.5 12.5q16 10 31.5 33.5t26.5 50t18.5 53.5t7.5 43q0 18 -8 18h-4q-10 -2 -51.5 -3t-98.5 -2t-122.5 -3t-122 -4t-97.5 -6t-47 -8q-29 -18 -51.5 -60.5t-22.5 -85.5zM154 422q2 -55 4 -98t3 -82t2 -77t3 -81q18 -23 48 -38 t75 -24.5t108.5 -12.5t151.5 -3h80q43 0 90 2q80 33 141.5 121t101.5 208t60.5 258t20.5 271q0 174 -27.5 284t-80 172t-125 86t-160.5 24q-135 0 -247 -76t-226 -215q-4 -33 -5.5 -67t-2.5 -73.5t-2 -87t-7 -102.5q23 12 36 19.5t30 21.5q2 -25 4 -63.5t5 -85t5 -97.5 t2 -100q0 -29 -1 -56.5t-3 -52.5q-23 6 -43 13.5t-41 11.5zM342 930q43 37 91.5 65.5t95.5 47t90 27.5t78 9q45 0 78.5 -22.5t54 -58t31 -83t10.5 -96.5q0 -63 -22.5 -145t-68.5 -153.5t-118 -122t-168 -50.5q-55 0 -115 14q4 41 6.5 93.5t2.5 107.5q0 92 -9.5 188.5 t-36.5 178.5z" />
<glyph unicode="&#xd1;" horiz-adv-x="964" d="M8 39q4 -18 23.5 -26.5t42.5 -8.5q31 0 57.5 12.5t28.5 32.5q2 80 3 163t1 159t1 139t7 104q49 -25 100.5 -84t114 -145t141 -195.5t183.5 -236.5q12 -4 32.5 -9t42.5 -5q39 0 54 14q-4 100 -9.5 178t-9.5 145.5t-6 129t-2 131.5q0 68 3 145.5t9 179t16.5 230.5t26.5 297 q-25 29 -71 28q-43 0 -74 -24q-10 -63 -23.5 -136t-25.5 -157t-21.5 -182.5t-9.5 -212.5v-46t2 -45q-156 203 -267.5 325t-156.5 175q8 41 10 73t2 56q-23 29 -67 29q-43 0 -72 -23q-31 -164 -48 -326.5t-25.5 -312t-10.5 -275.5t-2 -214v-82zM313 1446q16 16 45 25.5 t58 9.5q27 0 49 -11.5t41 -11.5q35 0 62.5 35t27.5 68v10q-27 -16 -44 -22.5t-32 -6.5q-16 0 -27.5 6t-21.5 12.5t-20.5 12.5t-24.5 6q-35 0 -72 -35t-41 -98z" />
<glyph unicode="&#xd2;" horiz-adv-x="808" d="M10 657q0 -172 23.5 -295.5t63.5 -201.5t91.5 -115t106.5 -37q66 0 128 37t112.5 90t85 115.5t47.5 111.5q29 123 46 216.5t17 181.5q0 131 -23.5 242.5t-64.5 192.5t-100.5 127t-128.5 46q-94 0 -186.5 -77t-151.5 -224q-37 -117 -51.5 -217t-14.5 -193zM184 672 q0 78 17.5 152.5t52.5 123.5q66 57 129 58q43 0 78 -25t60.5 -66t39.5 -93t14 -109q0 -37 -13 -94.5t-40.5 -110.5t-73 -91t-106.5 -38q-41 0 -69.5 24.5t-49 65.5t-30 94t-9.5 109zM322 1559q0 -4 8 -23.5t19 -41t22.5 -38t15.5 -16.5h2q6 0 14.5 5t16.5 13t14 15.5t6 11.5 v2q0 8 -8 26.5t-18.5 38t-19.5 35t-13 15.5h-2q-10 0 -32.5 -17.5t-24.5 -25.5z" />
<glyph unicode="&#xd3;" horiz-adv-x="808" d="M10 657q0 -172 23.5 -295.5t63.5 -201.5t91.5 -115t106.5 -37q66 0 128 37t112.5 90t85 115.5t47.5 111.5q29 123 46 216.5t17 181.5q0 131 -23.5 242.5t-64.5 192.5t-100.5 127t-128.5 46q-94 0 -186.5 -77t-151.5 -224q-37 -117 -51.5 -217t-14.5 -193zM184 672 q0 78 17.5 152.5t52.5 123.5q66 57 129 58q43 0 78 -25t60.5 -66t39.5 -93t14 -109q0 -37 -13 -94.5t-40.5 -110.5t-73 -91t-106.5 -38q-41 0 -69.5 24.5t-49 65.5t-30 94t-9.5 109zM334 1477q0 -4 6 -11.5t14 -15.5t16.5 -13t14.5 -5h2q4 0 15.5 16t22.5 37.5t19.5 41 t8.5 23.5t-7.5 11.5t-16.5 15.5t-19.5 13t-14.5 5h-2q-4 -2 -13 -17t-19.5 -35.5t-18.5 -39t-8 -24.5v-2z" />
<glyph unicode="&#xd4;" horiz-adv-x="808" d="M10 657q0 -172 23.5 -295.5t63.5 -201.5t91.5 -115t106.5 -37q66 0 128 37t112.5 90t85 115.5t47.5 111.5q29 123 46 216.5t17 181.5q0 131 -23.5 242.5t-64.5 192.5t-100.5 127t-128.5 46q-94 0 -186.5 -77t-151.5 -224q-37 -117 -51.5 -217t-14.5 -193zM184 672 q0 78 17.5 152.5t52.5 123.5q66 57 129 58q43 0 78 -25t60.5 -66t39.5 -93t14 -109q0 -37 -13 -94.5t-40.5 -110.5t-73 -91t-106.5 -38q-41 0 -69.5 24.5t-49 65.5t-30 94t-9.5 109zM217 1446q0 -4 4 -8l2 -2q8 -8 20.5 -10.5t24.5 -2.5h2q27 0 41.5 20.5t26.5 33.5l14 14 q4 4 8 4h2q8 -4 23.5 -25.5t20.5 -25.5l12 -12q14 -14 22 -15h9q4 2 11 4l7 2l12 7q2 2 4 2t6 2l5 4q2 2 4 2t4 2l8 8q14 14 14 31v6q0 2 -1 3t-1 3l-6 6q-23 37 -46.5 59.5t-41.5 37t-29.5 19.5t-9.5 5h-4q-10 0 -25.5 -14.5t-21.5 -18.5l-23 -22q-20 -20 -44.5 -48 t-53.5 -65v-6z" />
<glyph unicode="&#xd5;" horiz-adv-x="808" d="M10 657q0 -172 23.5 -295.5t63.5 -201.5t91.5 -115t106.5 -37q66 0 128 37t112.5 90t85 115.5t47.5 111.5q29 123 46 216.5t17 181.5q0 131 -23.5 242.5t-64.5 192.5t-100.5 127t-128.5 46q-94 0 -186.5 -77t-151.5 -224q-37 -117 -51.5 -217t-14.5 -193zM184 672 q0 78 17.5 152.5t52.5 123.5q66 57 129 58q43 0 78 -25t60.5 -66t39.5 -93t14 -109q0 -37 -13 -94.5t-40.5 -110.5t-73 -91t-106.5 -38q-41 0 -69.5 24.5t-49 65.5t-30 94t-9.5 109zM244 1419q16 16 44.5 25.5t57.5 9.5q27 0 49.5 -11t40.5 -11q35 0 62.5 34.5t27.5 67.5v10 q-27 -16 -44 -22t-31 -6q-16 0 -27.5 6t-22 12t-20.5 12t-25 6q-35 0 -71.5 -35t-40.5 -98z" />
<glyph unicode="&#xd6;" horiz-adv-x="808" d="M10 657q0 -172 23.5 -295.5t63.5 -201.5t91.5 -115t106.5 -37q66 0 128 37t112.5 90t85 115.5t47.5 111.5q29 123 46 216.5t17 181.5q0 131 -23.5 242.5t-64.5 192.5t-100.5 127t-128.5 46q-94 0 -186.5 -77t-151.5 -224q-37 -117 -51.5 -217t-14.5 -193zM184 672 q0 78 17.5 152.5t52.5 123.5q66 57 129 58q43 0 78 -25t60.5 -66t39.5 -93t14 -109q0 -37 -13 -94.5t-40.5 -110.5t-73 -91t-106.5 -38q-41 0 -69.5 24.5t-49 65.5t-30 94t-9.5 109zM264 1442q4 0 9.5 -1t9.5 -1q14 0 28.5 2t26.5 2q4 0 8 -1t8 -1q20 25 28.5 51.5 t20.5 54.5q-14 2 -26 3t-23 1q-27 0 -47 -6q-12 -23 -22.5 -52.5t-20.5 -51.5zM434 1438h12q14 0 27.5 1t28.5 1q16 0 22 -2q20 25 28.5 51.5t20.5 54.5q-16 2 -28.5 3t-22.5 1q-27 0 -45 -6q-14 -23 -23.5 -52.5t-19.5 -51.5z" />
<glyph unicode="&#xd8;" horiz-adv-x="1347" d="M-33 141q0 -20 16.5 -46.5t36.5 -26.5q27 0 84.5 39.5t174.5 142.5q57 -147 126.5 -205.5t143.5 -58.5t147.5 46t134 108.5t102.5 125t56 96.5q18 49 29.5 104.5t11.5 131.5q0 72 -11 162t-36 215q53 61 92 105t63.5 77t37 55.5t12.5 38.5q0 8 -7 21.5t-17.5 26t-23 20.5 t-22.5 8q-29 0 -74 -45t-131 -154q-31 70 -71.5 129.5t-87.5 101.5t-98.5 65.5t-104.5 23.5q-86 0 -168 -69.5t-145 -229.5q-27 -78 -38.5 -181.5t-11.5 -209.5t9.5 -198.5t25.5 -141.5q-68 -68 -116 -113t-79.5 -74.5t-46 -50t-14.5 -39.5zM356 713q0 43 3 91t10.5 95 t20 89t28.5 77q49 -51 102 -51q47 0 81 39t34 110q41 -10 80 -51t65 -108l-411 -441q-12 49 -13 150zM438 403l406 426q12 -59 12 -118q0 -92 -27.5 -175t-69.5 -145.5t-92.5 -99.5t-97.5 -37q-43 0 -78 34.5t-53 114.5z" />
<glyph unicode="&#xd9;" horiz-adv-x="925" d="M4 727q0 -170 31 -332t104 -317q16 -27 43 -40t58.5 -19.5t64.5 -9.5t62 -5h90q57 0 110.5 12.5t99.5 69.5t83.5 175t64.5 329q16 141 26.5 261t10.5 216q0 111 -24.5 196t-96.5 146q-49 -39 -87 -107.5t-48 -156.5q53 -47 72.5 -126t19.5 -202q0 -72 -4 -152.5 t-24.5 -150.5t-62.5 -116t-116 -46q-96 0 -158.5 32t-98.5 85t-50 125t-14 151q0 129 20.5 290t36.5 351q-45 16 -74 17q-42 0 -71 -35q-29 -170 -48.5 -328.5t-19.5 -312.5zM362 1579q0 -4 8.5 -23.5t19.5 -41t22.5 -38t15.5 -16.5h2q6 0 14.5 5t16.5 13.5t14 15.5t6 11v2 q0 8 -8 26.5t-18.5 38t-19.5 35t-13 15.5h-2q-10 0 -32.5 -17.5t-25.5 -25.5z" />
<glyph unicode="&#xda;" horiz-adv-x="925" d="M4 727q0 -170 31 -332t104 -317q16 -27 43 -40t58.5 -19.5t64.5 -9.5t62 -5h90q57 0 110.5 12.5t99.5 69.5t83.5 175t64.5 329q16 141 26.5 261t10.5 216q0 111 -24.5 196t-96.5 146q-49 -39 -87 -107.5t-48 -156.5q53 -47 72.5 -126t19.5 -202q0 -72 -4 -152.5 t-24.5 -150.5t-62.5 -116t-116 -46q-96 0 -158.5 32t-98.5 85t-50 125t-14 151q0 129 20.5 290t36.5 351q-45 16 -74 17q-42 0 -71 -35q-29 -170 -48.5 -328.5t-19.5 -312.5zM375 1497q0 -4 6 -11t14 -15.5t16.5 -13.5t14.5 -5h2q4 0 15.5 16.5t22.5 38t19.5 41t8.5 23.5 t-7.5 11t-16.5 15.5t-19.5 13.5t-14.5 5h-2q-4 -2 -13 -17.5t-19.5 -36t-18.5 -39t-8 -24.5v-2z" />
<glyph unicode="&#xdb;" horiz-adv-x="925" d="M4 727q0 -170 31 -332t104 -317q16 -27 43 -40t58.5 -19.5t64.5 -9.5t62 -5h90q57 0 110.5 12.5t99.5 69.5t83.5 175t64.5 329q16 141 26.5 261t10.5 216q0 111 -24.5 196t-96.5 146q-49 -39 -87 -107.5t-48 -156.5q53 -47 72.5 -126t19.5 -202q0 -72 -4 -152.5 t-24.5 -150.5t-62.5 -116t-116 -46q-96 0 -158.5 32t-98.5 85t-50 125t-14 151q0 129 20.5 290t36.5 351q-45 16 -74 17q-42 0 -71 -35q-29 -170 -48.5 -328.5t-19.5 -312.5zM279 1446q0 -4 4 -8l2 -2q8 -8 20 -10.5t25 -2.5h2q27 0 41 20.5t26 33.5l15 14q4 4 8 4h2 q8 -4 23.5 -25.5t19.5 -25.5l12 -12q14 -14 23 -15h8q4 2 11 4l7 2l13 7q2 2 4 2t6 2l4 4q2 2 4 2t4 2l8 8q14 14 15 31v6q0 2 -1 3t-1 3l-6 6q-23 37 -46.5 59.5t-42 37t-29.5 19.5t-9 5h-5q-10 0 -25 -14.5t-22 -18.5l-22 -22q-20 -20 -44.5 -48t-53.5 -65v-6z" />
<glyph unicode="&#xdc;" horiz-adv-x="925" d="M4 727q0 -170 31 -332t104 -317q16 -27 43 -40t58.5 -19.5t64.5 -9.5t62 -5h90q57 0 110.5 12.5t99.5 69.5t83.5 175t64.5 329q16 141 26.5 261t10.5 216q0 111 -24.5 196t-96.5 146q-49 -39 -87 -107.5t-48 -156.5q53 -47 72.5 -126t19.5 -202q0 -72 -4 -152.5 t-24.5 -150.5t-62.5 -116t-116 -46q-96 0 -158.5 32t-98.5 85t-50 125t-14 151q0 129 20.5 290t36.5 351q-45 16 -74 17q-42 0 -71 -35q-29 -170 -48.5 -328.5t-19.5 -312.5zM305 1483q4 0 9 -1t10 -1q14 0 28.5 2t26.5 2q4 0 8 -1t8 -1q20 25 28.5 51.5t20.5 54.5 q-14 2 -26 3t-23 1q-27 0 -47 -6q-12 -23 -22.5 -52.5t-20.5 -51.5zM475 1479h12q14 0 27.5 1t28.5 1q16 0 22 -2q20 25 28.5 51t20.5 55q-16 2 -28.5 3t-22.5 1q-27 0 -45 -6q-14 -23 -23.5 -52.5t-19.5 -51.5z" />
<glyph unicode="&#xdd;" horiz-adv-x="1017" d="M4 1176q0 -20 8 -31l418 -586q-16 -61 -37.5 -129t-45 -134.5t-49.5 -129t-52 -115.5v-6q0 -20 30.5 -32.5t71.5 -12.5q35 0 65.5 11.5t45.5 39.5q18 74 57 182.5t90 261t111.5 351t120.5 452.5q2 6 2 21q0 33 -23.5 50t-52.5 17q-47 0 -65.5 -26.5t-35 -86t-42 -156.5 t-82.5 -238l-326 432q-16 25 -47 24q-25 0 -53.5 -16t-53 -40t-40 -51.5t-15.5 -51.5zM436 1456q0 -4 6.5 -11t14.5 -15.5t16 -13.5t14 -5h2q4 0 15.5 16.5t23 38t19.5 41t8 23.5t-7 11t-16.5 15.5t-19.5 13.5t-14 5h-2q-4 -2 -13.5 -17.5t-19.5 -36t-18.5 -39t-8.5 -24.5 v-2z" />
<glyph unicode="&#xde;" horiz-adv-x="1005" d="M2 1321q10 -39 31.5 -154.5t49.5 -272.5t58.5 -337t55 -348t41 -305t18.5 -207v-31q0 -16 27.5 -29.5t56.5 -13.5q16 0 27.5 6t11.5 23q0 14 -5 65.5t-12.5 111.5t-14.5 114.5t-9 74.5q10 -14 53 -17t82 -3q121 0 205 49t135 140.5t73.5 219.5t22.5 287q0 154 -20.5 278 t-61.5 212t-102 135t-143 47q-66 0 -122.5 -20.5t-107.5 -52t-94 -70.5t-80 -78q-4 27 -26.5 107.5t-51.5 187.5q-6 14 -14 14q-10 0 -24.5 -17.5t-28 -40t-22.5 -44t-9 -29.5v-2zM227 913h29q27 35 63.5 61.5t77.5 44t82 27t72 9.5q49 0 85 -27t60.5 -68.5t35.5 -94 t11 -103.5q0 -53 -17 -124t-56 -134.5t-100.5 -107.5t-149.5 -44q-51 0 -113 13q-2 53 -10 121.5t-20.5 142t-26 147.5t-23.5 137z" />
<glyph unicode="&#xdf;" horiz-adv-x="929" d="M8 -207q0 -14 21 -14q14 0 33.5 7t37 17.5t29.5 24.5t12 27v2q14 217 20.5 490.5t22.5 623.5q10 68 74 105.5t143 37.5q61 0 111.5 -17.5t87.5 -42t57.5 -50t20.5 -43.5q0 -47 -92 -84t-303 -46q-18 0 -19 -32q0 -25 9.5 -63t23.5 -71.5t27.5 -58t23.5 -22.5h62 q47 0 84.5 1t68.5 1q78 0 116 -22.5t44 -106.5v-4q0 -35 -38 -57.5t-95.5 -38t-123 -27t-122.5 -22.5t-95 -24.5t-38 -35.5q0 -29 9 -72t22.5 -83t27 -68.5t21.5 -28.5q125 16 229.5 47t181 80t119.5 120.5t43 172.5q0 45 -10 94t-32.5 97t-61.5 91t-94 76q66 31 95.5 94.5 t29.5 137.5q0 106 -46.5 184t-113 130t-140 77.5t-131.5 25.5q-66 0 -123 -26.5t-100 -75.5t-68.5 -121t-27.5 -162q-2 -78 -6 -222t-9.5 -318t-9.5 -359.5t-8 -345.5z" />
<glyph unicode="&#xe0;" horiz-adv-x="622" d="M6 98q0 -4 1 -15t3 -15v-7q0 -12 4.5 -28.5t8.5 -20.5q16 -4 28 -4h31q25 0 37 21.5t18 52.5t8 61.5t9 49.5v2q8 25 28.5 40t43 24t41 12t22.5 3h2h-2q8 4 18 8.5t21 4.5l24 6q6 0 14.5 3t14.5 3q0 -96 11 -147.5t25.5 -74t25 -24.5t8.5 -2q14 -10 43 -10q10 0 22 2t19 8 l12 12q2 2 2 3q0 2 2 4v2q4 4 4 12v2q-12 121 -21.5 246t-18.5 242.5t-20.5 221t-27.5 180.5t-36.5 122t-49.5 45q-33 0 -66.5 -37t-66.5 -94.5t-62.5 -128t-54.5 -138t-42 -125t-26 -88.5q-23 -86 -40 -177t-17 -169v-65v-23zM203 477q0 49 11 94t24.5 80t24.5 54.5 t11 17.5q10 14 15.5 24.5t13.5 18.5q18 -18 25.5 -42t9.5 -46.5t1 -37.5t-1 -17v-33q0 -29 -15.5 -55.5t-41.5 -38.5l-31 -13q-10 0 -21.5 -3t-21.5 -3h-4zM301 1313q0 -4 8 -23.5t19.5 -41t22.5 -38t16 -16.5h2q6 0 14 5t16.5 13.5t14.5 15.5t6 11v2q0 8 -8.5 26.5 t-18.5 38t-19.5 35t-13.5 15.5h-2q-10 0 -32.5 -17.5t-24.5 -25.5z" />
<glyph unicode="&#xe1;" horiz-adv-x="622" d="M6 98q0 -4 1 -15t3 -15v-7q0 -12 4.5 -28.5t8.5 -20.5q16 -4 28 -4h31q25 0 37 21.5t18 52.5t8 61.5t9 49.5v2q8 25 28.5 40t43 24t41 12t22.5 3h2h-2q8 4 18 8.5t21 4.5l24 6q6 0 14.5 3t14.5 3q0 -96 11 -147.5t25.5 -74t25 -24.5t8.5 -2q14 -10 43 -10q10 0 22 2t19 8 l12 12q2 2 2 3q0 2 2 4v2q4 4 4 12v2q-12 121 -21.5 246t-18.5 242.5t-20.5 221t-27.5 180.5t-36.5 122t-49.5 45q-33 0 -66.5 -37t-66.5 -94.5t-62.5 -128t-54.5 -138t-42 -125t-26 -88.5q-23 -86 -40 -177t-17 -169v-65v-23zM203 477q0 49 11 94t24.5 80t24.5 54.5 t11 17.5q10 14 15.5 24.5t13.5 18.5q18 -18 25.5 -42t9.5 -46.5t1 -37.5t-1 -17v-33q0 -29 -15.5 -55.5t-41.5 -38.5l-31 -13q-10 0 -21.5 -3t-21.5 -3h-4zM313 1231q0 -4 6.5 -11.5t14.5 -15.5t16 -13t15 -5h2q4 0 15 16.5t22.5 38t19.5 40.5t8 24q0 4 -7 11t-16.5 15 t-19.5 13.5t-14 5.5h-2q-4 -2 -13.5 -17.5t-19.5 -36t-18.5 -39t-8.5 -24.5v-2z" />
<glyph unicode="&#xe2;" horiz-adv-x="622" d="M6 98q0 -4 1 -15t3 -15v-7q0 -12 4.5 -28.5t8.5 -20.5q16 -4 28 -4h31q25 0 37 21.5t18 52.5t8 61.5t9 49.5v2q8 25 28.5 40t43 24t41 12t22.5 3h2h-2q8 4 18 8.5t21 4.5l24 6q6 0 14.5 3t14.5 3q0 -96 11 -147.5t25.5 -74t25 -24.5t8.5 -2q14 -10 43 -10q10 0 22 2t19 8 l12 12q2 2 2 3q0 2 2 4v2q4 4 4 12v2q-12 121 -21.5 246t-18.5 242.5t-20.5 221t-27.5 180.5t-36.5 122t-49.5 45q-33 0 -66.5 -37t-66.5 -94.5t-62.5 -128t-54.5 -138t-42 -125t-26 -88.5q-23 -86 -40 -177t-17 -169v-65v-23zM176 1262q0 -4 4 -9l2 -2q8 -8 20.5 -10 t24.5 -2h2q27 0 41.5 20.5t26.5 32.5l14 15q4 4 8 4h3q8 -4 23 -25.5t20 -25.5l12 -13q14 -14 22 -14h9q4 2 11 4l7 2l12 6q2 2 4 2t7 2l4 4q2 2 4 2t4 2l8 9q14 14 14 30v7q0 2 -1 3t-1 3l-6 6q-23 37 -46 59.5t-41.5 36.5t-30 19.5t-9.5 5.5h-4q-10 0 -25.5 -14.5 t-21.5 -18.5l-23 -23q-20 -20 -44.5 -47.5t-53.5 -64.5v-6zM203 477q0 49 11 94t24.5 80t24.5 54.5t11 17.5q10 14 15.5 24.5t13.5 18.5q18 -18 25.5 -42t9.5 -46.5t1 -37.5t-1 -17v-33q0 -29 -15.5 -55.5t-41.5 -38.5l-31 -13q-10 0 -21.5 -3t-21.5 -3h-4z" />
<glyph unicode="&#xe3;" horiz-adv-x="622" d="M6 98q0 -4 1 -15t3 -15v-7q0 -12 4.5 -28.5t8.5 -20.5q16 -4 28 -4h31q25 0 37 21.5t18 52.5t8 61.5t9 49.5v2q8 25 28.5 40t43 24t41 12t22.5 3h2h-2q8 4 18 8.5t21 4.5l24 6q6 0 14.5 3t14.5 3q0 -96 11 -147.5t25.5 -74t25 -24.5t8.5 -2q14 -10 43 -10q10 0 22 2t19 8 l12 12q2 2 2 3q0 2 2 4v2q4 4 4 12v2q-12 121 -21.5 246t-18.5 242.5t-20.5 221t-27.5 180.5t-36.5 122t-49.5 45q-33 0 -66.5 -37t-66.5 -94.5t-62.5 -128t-54.5 -138t-42 -125t-26 -88.5q-23 -86 -40 -177t-17 -169v-65v-23zM203 477q0 49 11 94t24.5 80t24.5 54.5 t11 17.5q10 14 15.5 24.5t13.5 18.5q18 -18 25.5 -42t9.5 -46.5t1 -37.5t-1 -17v-33q0 -29 -15.5 -55.5t-41.5 -38.5l-31 -13q-10 0 -21.5 -3t-21.5 -3h-4zM231 1190q16 16 45 25.5t58 9.5q27 0 49.5 -11.5t40.5 -11.5q35 0 62.5 35t27.5 68v10q-27 -16 -44 -22.5t-32 -6.5 q-16 0 -27.5 6t-21.5 12.5t-20.5 12.5t-24.5 6q-35 0 -72 -35t-41 -98z" />
<glyph unicode="&#xe4;" horiz-adv-x="622" d="M6 98q0 -4 1 -15t3 -15v-7q0 -12 4.5 -28.5t8.5 -20.5q16 -4 28 -4h31q25 0 37 21.5t18 52.5t8 61.5t9 49.5v2q8 25 28.5 40t43 24t41 12t22.5 3h2h-2q8 4 18 8.5t21 4.5l24 6q6 0 14.5 3t14.5 3q0 -96 11 -147.5t25.5 -74t25 -24.5t8.5 -2q14 -10 43 -10q10 0 22 2t19 8 l12 12q2 2 2 3q0 2 2 4v2q4 4 4 12v2q-12 121 -21.5 246t-18.5 242.5t-20.5 221t-27.5 180.5t-36.5 122t-49.5 45q-33 0 -66.5 -37t-66.5 -94.5t-62.5 -128t-54.5 -138t-42 -125t-26 -88.5q-23 -86 -40 -177t-17 -169v-65v-23zM203 477q0 49 11 94t24.5 80t24.5 54.5 t11 17.5q10 14 15.5 24.5t13.5 18.5q18 -18 25.5 -42t9.5 -46.5t1 -37.5t-1 -17v-33q0 -29 -15.5 -55.5t-41.5 -38.5l-31 -13q-10 0 -21.5 -3t-21.5 -3h-4zM223 1237q4 0 9.5 -1t9.5 -1q14 0 28.5 2t26.5 2q4 0 8 -1t8 -1q20 25 28.5 51.5t20.5 54.5q-14 2 -26 3.5t-23 1.5 q-27 -1 -47 -7q-12 -23 -22.5 -52t-20.5 -52zM393 1233h13q14 0 27 1t28 1q16 0 22 -2q20 25 28.5 51.5t20.5 54.5q-16 2 -28 3t-23 1q-27 0 -45 -6q-14 -23 -23.5 -52.5t-19.5 -51.5z" />
<glyph unicode="&#xe5;" horiz-adv-x="497" d="M6 98q0 -4 1 -15t3 -15v-7q0 -12 4.5 -28.5t8.5 -20.5q16 -4 28 -4h31q25 0 37 21.5t18 52.5t8 61.5t9 49.5v2q8 25 28.5 40t43 24t41 12t22.5 3h2h-2q8 4 18 8.5t21 4.5l24 6q6 0 14.5 3t14.5 3q0 -96 11 -147.5t25.5 -74t25 -24.5t8.5 -2q14 -10 43 -10q10 0 22 2t19 8 l12 12q2 2 2 3q0 2 2 4v2q4 4 4 12v2q-12 121 -21.5 246t-18.5 242.5t-20.5 221t-27.5 180.5t-36.5 122t-49.5 45q-33 0 -66.5 -37t-66.5 -94.5t-62.5 -128t-54.5 -138t-42 -125t-26 -88.5q-23 -86 -40 -177t-17 -169v-65v-23zM184 1411q0 -59 17.5 -90t38 -45t39 -17.5 t22.5 -3.5l18 -4q6 -2 13.5 -4t13.5 -2h29q43 8 64.5 20.5t30.5 26t12 27.5t10 29v14q6 6 7 31.5t1 48.5v18q0 4 -1 9.5t-1 11.5v6q-4 41 -21.5 66.5t-38 41t-40 20.5t-25.5 5q-2 0 -3 -1l-1 -1l1 -1t3 -1h-8q-4 0 -5.5 1t-5.5 1q-12 0 -42 -6.5t-44 -20.5 q-47 -41 -65.5 -89t-18.5 -91zM203 477q0 49 11 94t24.5 80t24.5 54.5t11 17.5q10 14 15.5 24.5t13.5 18.5q18 -18 25.5 -42t9.5 -46.5t1 -37.5t-1 -17v-33q0 -29 -15.5 -55.5t-41.5 -38.5l-31 -13q-10 0 -21.5 -3t-21.5 -3h-4zM225 1434q0 27 18.5 53.5t63.5 44.5 q18 6 41 6q45 0 81 -26.5t36 -84.5q0 -43 -33 -69.5t-78 -26.5q-18 0 -39.5 6t-42 18.5t-34 32t-13.5 46.5z" />
<glyph unicode="&#xe6;" horiz-adv-x="940" d="M8 109q0 -55 11.5 -102.5t54.5 -47.5q20 0 35.5 5t15.5 13q0 70 1 124.5t7 105.5q14 6 35.5 13t45.5 16.5t47.5 19.5t41.5 18q6 -31 11 -66.5t11.5 -72.5t13.5 -71.5t15 -63.5q16 -2 33 -2h33q86 0 187.5 6t205.5 10q12 0 22.5 17.5t18.5 44t12 58.5t4 61q0 35 -7 58 t-23 23q-39 0 -87 -2t-96.5 -5t-90.5 -5t-68 -4q-6 23 -8.5 31t-3.5 13t-2 11.5t-3 22.5q35 12 78 23.5t80 30t62.5 47t25.5 75.5q0 25 -3 51.5t-8 48t-13.5 36t-18.5 14.5q-14 0 -43 -9.5t-63.5 -24t-72.5 -29.5t-71 -28q-8 35 -12 80t-6 87t-2 75v45q37 14 124 31.5 t250 26.5q8 0 15.5 15t11.5 39.5t7 54.5t3 60q0 47 -7 81t-23 34h-33q-53 0 -142.5 -7t-180.5 -21.5t-164.5 -36t-98.5 -50.5q-35 -70 -65.5 -181t-53 -245.5t-36 -277.5t-13.5 -274zM150 455q0 31 8 79t20 95t26.5 86t24.5 55q2 0 8.5 -29.5t12.5 -70.5t11 -85t7 -73 q-20 -10 -59 -28.5t-59 -28.5z" />
<glyph unicode="&#xe7;" horiz-adv-x="772" d="M2 485q0 -74 14.5 -158.5t54.5 -156.5t109.5 -119t179.5 -47q74 0 152 14t137 37q29 25 43.5 56.5t14.5 64.5q0 55 -37 96q-66 -18 -130.5 -25t-123.5 -7q-80 0 -132.5 14t-83 41t-42 64.5t-11.5 84.5q0 39 21.5 111t56.5 140.5t82 119.5t96 51q31 0 57.5 -39t50.5 -86 t45.5 -86t43.5 -39q27 0 42 20.5t23.5 49.5t10.5 58.5t2 48.5q0 166 -69.5 258t-168.5 92q-72 0 -148.5 -52.5t-141 -142.5t-106.5 -208.5t-42 -254.5zM293 -137q0 -14 13 -25.5t38 -11.5t47.5 11t40 26.5t27.5 34t10 32.5q0 20 -17.5 33.5t-56.5 16.5q4 6 7.5 14t7.5 16 l-50 -4q-4 -12 -17 -31.5t-13 -40.5q0 -25 16 -24q12 0 24.5 9t39.5 9q16 0 16 -6q0 -4 -11.5 -14t-39.5 -27h-17q-23 0 -22 8q0 6 -10 7h-4q-29 -10 -29 -33z" />
<glyph unicode="&#xe8;" horiz-adv-x="698" d="M6 432q0 -121 3 -232.5t11 -195.5q61 0 110.5 1t94.5 3t90 3t97 3q33 2 65.5 3t59 20.5t42 66t15.5 136.5q0 12 -12.5 20t-49.5 8h-20q-96 -4 -176 -11t-152 -7q-2 47 -4 74.5t-2 66.5q45 12 85 25.5t97 29.5q39 6 59.5 11.5t29 17.5t9.5 34.5t1 63.5v7q0 10 1 22t1 23 q0 20 -9.5 34.5t-41.5 14.5q-51 0 -114 -21.5t-120 -38.5q-2 33 -3 73t-1 75v31q0 16 2 28q29 23 68 29t82 6h71q45 0 86 6t73 31t51.5 72t19.5 131q0 20 -12.5 32.5t-51.5 12.5q-66 0 -158 -7.5t-176 -19.5t-143 -28.5t-59 -34.5q-4 -49 -7.5 -118t-6.5 -151t-4 -171 t-1 -179zM260 1313q0 -4 8 -23.5t19.5 -41t23 -38t15.5 -16.5h2q6 0 14 5t16.5 13.5t14.5 15.5t6 11v2q0 8 -8.5 26.5t-18.5 38t-19.5 35t-13.5 15.5h-2q-10 0 -32.5 -17.5t-24.5 -25.5z" />
<glyph unicode="&#xe9;" horiz-adv-x="698" d="M6 432q0 -121 3 -232.5t11 -195.5q61 0 110.5 1t94.5 3t90 3t97 3q33 2 65.5 3t59 20.5t42 66t15.5 136.5q0 12 -12.5 20t-49.5 8h-20q-96 -4 -176 -11t-152 -7q-2 47 -4 74.5t-2 66.5q45 12 85 25.5t97 29.5q39 6 59.5 11.5t29 17.5t9.5 34.5t1 63.5v7q0 10 1 22t1 23 q0 20 -9.5 34.5t-41.5 14.5q-51 0 -114 -21.5t-120 -38.5q-2 33 -3 73t-1 75v31q0 16 2 28q29 23 68 29t82 6h71q45 0 86 6t73 31t51.5 72t19.5 131q0 20 -12.5 32.5t-51.5 12.5q-66 0 -158 -7.5t-176 -19.5t-143 -28.5t-59 -34.5q-4 -49 -7.5 -118t-6.5 -151t-4 -171 t-1 -179zM252 1231q0 -4 6 -11.5t14.5 -15.5t16.5 -13t14 -5h2q4 0 15.5 16.5t22.5 38t19.5 40.5t8.5 24q0 4 -7.5 11t-16.5 15t-19.5 13.5t-14.5 5.5h-2q-4 -2 -13 -17.5t-19.5 -36t-18.5 -39t-8 -24.5v-2z" />
<glyph unicode="&#xea;" horiz-adv-x="698" d="M6 432q0 -121 3 -232.5t11 -195.5q61 0 110.5 1t94.5 3t90 3t97 3q33 2 65.5 3t59 20.5t42 66t15.5 136.5q0 12 -12.5 20t-49.5 8h-20q-96 -4 -176 -11t-152 -7q-2 47 -4 74.5t-2 66.5q45 12 85 25.5t97 29.5q39 6 59.5 11.5t29 17.5t9.5 34.5t1 63.5v7q0 10 1 22t1 23 q0 20 -9.5 34.5t-41.5 14.5q-51 0 -114 -21.5t-120 -38.5q-2 33 -3 73t-1 75v31q0 16 2 28q29 23 68 29t82 6h71q45 0 86 6t73 31t51.5 72t19.5 131q0 20 -12.5 32.5t-51.5 12.5q-66 0 -158 -7.5t-176 -19.5t-143 -28.5t-59 -34.5q-4 -49 -7.5 -118t-6.5 -151t-4 -171 t-1 -179zM176 1241q0 -4 4 -8l2 -2q8 -8 20.5 -10t24.5 -2h2q27 0 41.5 20.5t26.5 32.5l14 14q4 4 8 4h3q8 -4 23 -25.5t20 -25.5l12 -12q14 -14 22 -15h9q4 2 11 4l7 3l12 6q2 2 4 2t7 2l4 4q2 2 4 2t4 2l8 8q14 14 14 31v6q0 2 -1 3t-1 3l-6 6q-23 37 -46 59.5t-41.5 37 t-30 19.5t-9.5 5h-4q-10 0 -25.5 -14.5t-21.5 -18.5l-23 -22q-20 -20 -44.5 -48t-53.5 -65v-6z" />
<glyph unicode="&#xeb;" horiz-adv-x="698" d="M6 432q0 -121 3 -232.5t11 -195.5q61 0 110.5 1t94.5 3t90 3t97 3q33 2 65.5 3t59 20.5t42 66t15.5 136.5q0 12 -12.5 20t-49.5 8h-20q-96 -4 -176 -11t-152 -7q-2 47 -4 74.5t-2 66.5q45 12 85 25.5t97 29.5q39 6 59.5 11.5t29 17.5t9.5 34.5t1 63.5v7q0 10 1 22t1 23 q0 20 -9.5 34.5t-41.5 14.5q-51 0 -114 -21.5t-120 -38.5q-2 33 -3 73t-1 75v31q0 16 2 28q29 23 68 29t82 6h71q45 0 86 6t73 31t51.5 72t19.5 131q0 20 -12.5 32.5t-51.5 12.5q-66 0 -158 -7.5t-176 -19.5t-143 -28.5t-59 -34.5q-4 -49 -7.5 -118t-6.5 -151t-4 -171 t-1 -179zM182 1237q4 0 9.5 -1t9.5 -1q14 0 28.5 2t26.5 2q4 0 8 -1t8 -1q20 25 28.5 51.5t21.5 54.5q-14 2 -26.5 3.5t-23.5 1.5q-27 -1 -47 -7q-12 -23 -22 -52t-21 -52zM352 1233h13q14 0 27.5 1t27.5 1q16 0 22 -2q20 25 28.5 51.5t21.5 54.5q-16 2 -28.5 3t-23.5 1 q-27 0 -45 -6q-14 -23 -23.5 -52.5t-19.5 -51.5z" />
<glyph unicode="&#xec;" horiz-adv-x="301" d="M10 578q0 -94 3 -184.5t6.5 -167t7.5 -134t4 -88.5q20 -18 57 -18q35 0 55.5 12t31.5 32.5t14.5 47t3.5 55.5q0 147 -6.5 299t-6.5 303q0 84 4 163t15 155q-31 25 -74 24q-45 1 -76 -26q-23 -94 -31 -219t-8 -254zM55 1313q0 -4 8.5 -23.5t19.5 -41t22.5 -38t15.5 -16.5 h2q6 0 14 5t16.5 13.5t14.5 15.5t6 11v2q0 8 -8 26.5t-18.5 38t-19.5 35t-13 15.5h-2q-10 0 -33 -17.5t-25 -25.5z" />
<glyph unicode="&#xed;" horiz-adv-x="301" d="M10 578q0 -94 3 -184.5t6.5 -167t7.5 -134t4 -88.5q20 -18 57 -18q35 0 55.5 12t31.5 32.5t14.5 47t3.5 55.5q0 147 -6.5 299t-6.5 303q0 84 4 163t15 155q-31 25 -74 24q-45 1 -76 -26q-23 -94 -31 -219t-8 -254zM68 1190q0 -4 6 -11.5t14 -15.5t16.5 -13t14.5 -5h2 q4 0 15 16.5t22.5 38t19.5 41t8 23.5t-7 11t-16 15t-19.5 13.5t-14.5 5.5h-2q-4 -2 -13.5 -17.5t-19.5 -36t-18 -39t-8 -24.5v-2z" />
<glyph unicode="&#xee;" horiz-adv-x="301" d="M-20 1174l2 -11q12 -16 32 -16h19q18 0 33.5 11t26.5 23.5t19.5 24t12.5 11.5q2 0 27 -31l6 -6q2 -2 3 -4t3 -5l6 -6q8 -8 18.5 -18t10.5 -8h12q10 10 20.5 14t19.5 7t17 9.5t17 22.5v2v2q2 0 2 2v12q0 16 -15.5 35t-33 34t-31.5 25.5t-12 8.5q-6 6 -12.5 9t-10.5 7l-6 6 q-4 0 -8 3t-8 3q-31 0 -59 -23.5t-50.5 -52t-38.5 -56t-22 -35.5zM10 578q0 -94 3 -184.5t6.5 -167t7.5 -134t4 -88.5q20 -18 57 -18q35 0 55.5 12t31.5 32.5t14.5 47t3.5 55.5q0 147 -6.5 299t-6.5 303q0 84 4 163t15 155q-31 25 -74 24q-45 1 -76 -26q-23 -94 -31 -219 t-8 -254z" />
<glyph unicode="&#xef;" horiz-adv-x="301" d="M-23 1155q4 0 9.5 -1t9.5 -1q14 0 28.5 2t26.5 2q4 0 8 -1t9 -1q20 25 28 51.5t21 55.5q-14 2 -26.5 3t-22.5 1q-28 0 -48 -6q-12 -23 -22 -52.5t-21 -52.5zM10 578q0 -94 3 -184.5t6.5 -167t7.5 -134t4 -88.5q20 -18 57 -18q35 0 55.5 12t31.5 32.5t14.5 47t3.5 55.5 q0 147 -6.5 299t-6.5 303q0 84 4 163t15 155q-31 25 -74 24q-45 1 -76 -26q-23 -94 -31 -219t-8 -254zM147 1151h13q14 0 27.5 1t27.5 1q16 0 23 -2q20 25 28 51.5t21 54.5q-16 2 -28.5 3.5t-22.5 1.5q-28 -1 -46 -7q-14 -23 -23 -52t-20 -52z" />
<glyph unicode="&#xf0;" horiz-adv-x="577" d="M16 344q0 -59 4.5 -92t22.5 -70q14 -68 58 -117t104 -59h31q51 0 86.5 31t57 67.5t30 64.5t6.5 21q33 86 48 172.5t15 190.5v27q0 6 -1 11t-1 11v16q0 10 -2 21.5t-4 22.5v8l-43 215t-25.5 119.5t-13.5 51.5l-4 11q33 10 59.5 17.5t34.5 15.5l13 6q6 6 8 10l2 17 q-6 18 -16.5 48.5t-41.5 30.5q-10 0 -16 -2h-4q-10 -4 -34.5 -13t-43.5 -9q-20 20 -27.5 52t-33.5 50l-6 6q-6 0 -16.5 6.5t-20.5 6.5h-21q-23 -4 -46 -11.5t-23 -29.5v-6q4 -12 20 -37t27 -43l6 -13q4 -4 6 -11t6 -11l-18 -6q-27 -14 -46.5 -22.5t-31.5 -16.5t-17.5 -17.5 t-5.5 -23.5v-10q0 -20 13.5 -35t35.5 -15h19q20 2 65 17h2q6 4 12.5 5t14.5 5q0 -29 5 -48t11.5 -32.5t12.5 -20.5t8 -14l6 -18q0 -6 4 -14h-2q-4 4 -11 7t-9 3h-6q-2 0 -3.5 1t-3.5 1h-18q-39 0 -90 -34t-88 -109l-6 -13q-18 -43 -36 -105.5t-18 -135.5v-152zM135 408v36 q0 39 6 82t21.5 80t41 63.5t64.5 30.5h23q23 -29 38 -60.5t15 -66.5v-10q2 -8 2 -16v-17v-10q0 -72 -22 -135l-13 -37q-8 -16 -17 -34.5t-20.5 -36t-24.5 -28.5t-28 -11h-12q-6 0 -12 6l-7 6q-4 2 -8 10q-16 16 -25.5 39t-14.5 44.5t-6 38.5t-1 26z" />
<glyph unicode="&#xf1;" horiz-adv-x="849" d="M6 31q4 -16 20.5 -22.5t36.5 -6.5q27 0 50.5 10.5t25.5 26.5q4 63 5 130t1 128t1 111.5t6 83.5q43 -20 88 -67.5t100 -116t125 -157t162 -188.5q25 -10 65 -10q14 0 26.5 2t20.5 8q-4 80 -9 141.5t-8 114.5t-5 102.5t-2 104.5q0 53 2 116.5t8 144.5t15.5 184.5 t23.5 238.5q-23 25 -64 25q-35 0 -65 -21q-8 -51 -19.5 -109.5t-22.5 -126t-19.5 -146.5t-8.5 -171q0 -16 1 -33.5t1 -35.5q-137 162 -234 260t-138 139q6 33 8 58.5t2 45.5q-18 20 -58 21q-37 0 -63 -17q-29 -135 -44 -269t-22.5 -256t-9.5 -224.5t-2 -169.5v-49zM246 1188 q16 16 44.5 25.5t57.5 9.5q27 0 49.5 -11.5t40.5 -11.5q35 0 62.5 35t27.5 68v10q-27 -16 -44 -22.5t-31 -6.5q-16 0 -27.5 6t-22 12.5t-20.5 12.5t-25 6q-35 0 -71.5 -35t-40.5 -98z" />
<glyph unicode="&#xf2;" horiz-adv-x="712" d="M25 524q0 -139 19 -236.5t51 -161t74 -92t85 -28.5q78 0 134 37t95 94.5t61.5 128t36 137t17.5 122t4 83.5q0 104 -18.5 192.5t-52 154t-81 102.5t-102.5 37q-76 0 -149.5 -61.5t-120.5 -180.5q-31 -92 -42 -174t-11 -154zM164 537q0 61 13 120.5t42 100.5q29 25 54.5 35 t48.5 10q33 0 61.5 -19.5t49 -52.5t31.5 -75t11 -87q0 -80 -40 -155.5t-132 -110.5h-14q-33 0 -56.5 19.5t-39 52.5t-22.5 75t-7 87zM260 1292q0 -4 8 -23.5t19.5 -41t23 -37.5t15.5 -16h2q6 0 14 5t16.5 13t14.5 15t6 12v2q0 8 -8.5 26.5t-18.5 38t-19.5 34.5t-13.5 15h-2 q-10 0 -32.5 -17.5t-24.5 -25.5z" />
<glyph unicode="&#xf3;" horiz-adv-x="712" d="M25 524q0 -139 19 -236.5t51 -161t74 -92t85 -28.5q78 0 134 37t95 94.5t61.5 128t36 137t17.5 122t4 83.5q0 104 -18.5 192.5t-52 154t-81 102.5t-102.5 37q-76 0 -149.5 -61.5t-120.5 -180.5q-31 -92 -42 -174t-11 -154zM164 537q0 61 13 120.5t42 100.5q29 25 54.5 35 t48.5 10q33 0 61.5 -19.5t49 -52.5t31.5 -75t11 -87q0 -80 -40 -155.5t-132 -110.5h-14q-33 0 -56.5 19.5t-39 52.5t-22.5 75t-7 87zM272 1190q0 -4 6.5 -11.5t14.5 -15.5t16 -13t15 -5h2q4 0 15 16.5t22.5 38t19.5 41t8 23.5t-7 11t-16.5 15t-19.5 13.5t-14 5.5h-2 q-4 -2 -13.5 -17.5t-19.5 -36t-18.5 -39t-8.5 -24.5v-2z" />
<glyph unicode="&#xf4;" horiz-adv-x="712" d="M25 524q0 -139 19 -236.5t51 -161t74 -92t85 -28.5q78 0 134 37t95 94.5t61.5 128t36 137t17.5 122t4 83.5q0 104 -18.5 192.5t-52 154t-81 102.5t-102.5 37q-76 0 -149.5 -61.5t-120.5 -180.5q-31 -92 -42 -174t-11 -154zM164 537q0 61 13 120.5t42 100.5q29 25 54.5 35 t48.5 10q33 0 61.5 -19.5t49 -52.5t31.5 -75t11 -87q0 -80 -40 -155.5t-132 -110.5h-14q-33 0 -56.5 19.5t-39 52.5t-22.5 75t-7 87zM176 1200q0 -4 4 -8l2 -2q8 -8 20.5 -10t24.5 -2h2q27 0 41.5 20.5t26.5 32.5l14 14q4 4 8 4h3q8 -4 23 -25.5t20 -25.5l12 -12 q14 -14 22 -15h9q4 2 11 5l7 2l12 6q2 2 4 2t7 2l4 4q2 2 4 2t4 2l8 8q14 14 14 31v6q0 2 -1 3t-1 3l-6 6q-23 37 -46 59.5t-41.5 37t-30 19.5t-9.5 5h-4q-10 0 -25.5 -14t-21.5 -19l-23 -22q-20 -20 -44.5 -48t-53.5 -65v-6z" />
<glyph unicode="&#xf5;" horiz-adv-x="712" d="M25 524q0 -139 19 -236.5t51 -161t74 -92t85 -28.5q78 0 134 37t95 94.5t61.5 128t36 137t17.5 122t4 83.5q0 104 -18.5 192.5t-52 154t-81 102.5t-102.5 37q-76 0 -149.5 -61.5t-120.5 -180.5q-31 -92 -42 -174t-11 -154zM164 537q0 61 13 120.5t42 100.5q29 25 54.5 35 t48.5 10q33 0 61.5 -19.5t49 -52.5t31.5 -75t11 -87q0 -80 -40 -155.5t-132 -110.5h-14q-33 0 -56.5 19.5t-39 52.5t-22.5 75t-7 87zM195 1190q16 16 44.5 25.5t57.5 9.5q27 0 49.5 -11.5t40.5 -11.5q35 0 62.5 35t27.5 68v10q-27 -16 -44 -22.5t-32 -6.5q-16 0 -27.5 6 t-21.5 12.5t-20 12.5t-25 6q-35 0 -71.5 -35t-40.5 -98z" />
<glyph unicode="&#xf6;" horiz-adv-x="712" d="M25 524q0 -139 19 -236.5t51 -161t74 -92t85 -28.5q78 0 134 37t95 94.5t61.5 128t36 137t17.5 122t4 83.5q0 104 -18.5 192.5t-52 154t-81 102.5t-102.5 37q-76 0 -149.5 -61.5t-120.5 -180.5q-31 -92 -42 -174t-11 -154zM164 537q0 61 13 120.5t42 100.5q29 25 54.5 35 t48.5 10q33 0 61.5 -19.5t49 -52.5t31.5 -75t11 -87q0 -80 -40 -155.5t-132 -110.5h-14q-33 0 -56.5 19.5t-39 52.5t-22.5 75t-7 87zM203 1176q4 0 9 -1t9 -1q14 0 28.5 2t26.5 2q4 0 8.5 -1t8.5 -1q20 25 28.5 51t20.5 55q-14 2 -26.5 3t-22.5 1q-27 0 -47 -6 q-12 -23 -22.5 -52.5t-20.5 -51.5zM373 1171h12q14 0 27.5 1.5t27.5 1.5q16 0 23 -3q20 25 28.5 51.5t20.5 55.5q-16 2 -28.5 3t-22.5 1q-27 0 -45 -6q-14 -23 -23.5 -52.5t-19.5 -52.5z" />
<glyph unicode="&#xf8;" horiz-adv-x="1112" d="M-23 113q0 -16 14.5 -38t31.5 -22q23 0 66.5 32t137.5 116q47 -117 102.5 -164t114.5 -47t118 36.5t107 87t81.5 100.5t46.5 77q16 39 24 83t8 103q0 55 -8 129t-30 174q86 98 125.5 145.5t39.5 75.5q0 16 -20.5 38t-36.5 22q-23 0 -58.5 -36t-105.5 -122 q-47 113 -125 184.5t-164 71.5q-70 0 -135 -55t-116 -184q-20 -59 -29.5 -141.5t-9.5 -168.5t8 -160.5t20 -115.5q-55 -55 -94 -91t-63.5 -59.5t-37 -40t-12.5 -30.5zM289 569q0 70 11 150t40 133q37 -41 82 -41q37 0 63.5 30.5t26.5 88.5q35 -8 65.5 -41t51.5 -86 l-330 -352q-10 45 -10 118zM356 324l324 340q10 -51 10 -95q0 -74 -21.5 -140.5t-55 -116.5t-74.5 -79.5t-78 -29.5q-35 0 -63 27.5t-42 93.5z" />
<glyph unicode="&#xf9;" horiz-adv-x="815" d="M4 578q0 -135 25.5 -263.5t91.5 -253.5q14 -20 38.5 -31.5t52.5 -15.5t56.5 -6t53.5 -4h81q49 0 96.5 10.5t87.5 56.5t73.5 139t56.5 261q16 113 24.5 209t8.5 174q0 90 -22.5 156.5t-82.5 115.5q-45 -31 -77.5 -85t-43.5 -126q47 -39 64.5 -101t17.5 -161 q0 -53 -3 -118.5t-20.5 -122t-54 -94t-102.5 -37.5q-86 0 -140.5 24.5t-87 66.5t-45 98t-12.5 122q0 104 18.5 234t33.5 284q-37 12 -64 12q-37 1 -66 -28q-25 -135 -42 -264.5t-17 -251.5zM301 1313q0 -4 8 -23.5t19.5 -41t22.5 -38t16 -16.5h2q6 0 14 5t16.5 13.5 t14.5 15.5t6 11v2q0 8 -8.5 26.5t-18.5 38t-19.5 35t-13.5 15.5h-2q-10 0 -32.5 -17.5t-24.5 -25.5z" />
<glyph unicode="&#xfa;" horiz-adv-x="815" d="M4 578q0 -135 25.5 -263.5t91.5 -253.5q14 -20 38.5 -31.5t52.5 -15.5t56.5 -6t53.5 -4h81q49 0 96.5 10.5t87.5 56.5t73.5 139t56.5 261q16 113 24.5 209t8.5 174q0 90 -22.5 156.5t-82.5 115.5q-45 -31 -77.5 -85t-43.5 -126q47 -39 64.5 -101t17.5 -161 q0 -53 -3 -118.5t-20.5 -122t-54 -94t-102.5 -37.5q-86 0 -140.5 24.5t-87 66.5t-45 98t-12.5 122q0 104 18.5 234t33.5 284q-37 12 -64 12q-37 1 -66 -28q-25 -135 -42 -264.5t-17 -251.5zM334 1190q0 -4 6 -11.5t14 -15.5t16.5 -13t14.5 -5h2q4 0 15.5 16.5t22.5 38 t19.5 41t8.5 23.5t-7.5 11t-16.5 15t-19.5 13.5t-14.5 5.5h-2q-4 -2 -13 -17.5t-19.5 -36t-18.5 -39t-8 -24.5v-2z" />
<glyph unicode="&#xfb;" horiz-adv-x="815" d="M4 578q0 -135 25.5 -263.5t91.5 -253.5q14 -20 38.5 -31.5t52.5 -15.5t56.5 -6t53.5 -4h81q49 0 96.5 10.5t87.5 56.5t73.5 139t56.5 261q16 113 24.5 209t8.5 174q0 90 -22.5 156.5t-82.5 115.5q-45 -31 -77.5 -85t-43.5 -126q47 -39 64.5 -101t17.5 -161 q0 -53 -3 -118.5t-20.5 -122t-54 -94t-102.5 -37.5q-86 0 -140.5 24.5t-87 66.5t-45 98t-12.5 122q0 104 18.5 234t33.5 284q-37 12 -64 12q-37 1 -66 -28q-25 -135 -42 -264.5t-17 -251.5zM238 1241q0 -4 4 -8l2 -2q8 -8 20 -10t25 -2h2q27 0 41 20.5t26 32.5l15 14 q4 4 8 4h2q8 -4 23.5 -25.5t19.5 -25.5l12 -12q14 -14 23 -15h8q4 2 11 4l7 3l13 6q2 2 4 2t6 2l4 4q2 2 4 2t4 2l8 8q14 14 15 31v6q0 2 -1 3t-1 3l-6 6q-23 37 -46.5 59.5t-42 37t-29.5 19.5t-9 5h-4q-10 0 -25.5 -14.5t-22.5 -18.5l-22 -22q-20 -20 -44.5 -48t-53.5 -65 v-6z" />
<glyph unicode="&#xfc;" horiz-adv-x="815" d="M4 578q0 -135 25.5 -263.5t91.5 -253.5q14 -20 38.5 -31.5t52.5 -15.5t56.5 -6t53.5 -4h81q49 0 96.5 10.5t87.5 56.5t73.5 139t56.5 261q16 113 24.5 209t8.5 174q0 90 -22.5 156.5t-82.5 115.5q-45 -31 -77.5 -85t-43.5 -126q47 -39 64.5 -101t17.5 -161 q0 -53 -3 -118.5t-20.5 -122t-54 -94t-102.5 -37.5q-86 0 -140.5 24.5t-87 66.5t-45 98t-12.5 122q0 104 18.5 234t33.5 284q-37 12 -64 12q-37 1 -66 -28q-25 -135 -42 -264.5t-17 -251.5zM264 1217q4 0 9.5 -1.5t9.5 -1.5q14 0 28.5 2.5t26.5 2.5q4 0 8 -1t8 -1 q20 25 28.5 51t20.5 55q-14 2 -26 3t-23 1q-27 0 -47 -6q-12 -23 -22.5 -52.5t-20.5 -51.5zM434 1212h12q14 0 27.5 1t28.5 1q16 0 22 -2q20 25 28.5 51.5t20.5 55.5q-16 2 -28.5 3t-22.5 1q-27 0 -45 -6q-14 -23 -23.5 -52.5t-19.5 -52.5z" />
<glyph unicode="&#xfd;" horiz-adv-x="897" d="M25 942q0 -16 8 -24l334 -469q-29 -100 -67 -210t-81 -196v-4q0 -16 24.5 -26.5t57.5 -10.5q29 0 53.5 9t34.5 32q16 57 47 145t71 210t88 281t97 361q0 4 1 7.5t1 7.5q0 29 -18.5 43t-42.5 14q-37 0 -52.5 -21.5t-27.5 -69.5t-32.5 -126t-67.5 -190l-260 346 q-14 20 -37 20q-20 0 -43 -13.5t-42.5 -32.5t-32.5 -41.5t-13 -41.5zM375 1190q0 -4 6 -11.5t14 -15.5t16.5 -13t14.5 -5h2q4 0 15.5 16.5t22.5 38t19.5 41t8.5 23.5t-7.5 11t-16.5 15t-19.5 13.5t-14.5 5.5h-2q-4 -2 -13 -17.5t-19.5 -36t-18.5 -39t-8 -24.5v-2z" />
<glyph unicode="&#xfe;" horiz-adv-x="831" d="M14 1061q8 -31 25.5 -122t39 -216t46.5 -269.5t44 -278.5t32.5 -244t15.5 -167v-24q0 -14 22.5 -26.5t45.5 -12.5q12 0 21 6t9 19q0 12 -4 54t-9 90t-10 91t-7 57q10 -10 42.5 -12t65.5 -2q94 0 161 39t109 112.5t60 179t18 236.5q0 252 -66.5 390.5t-199.5 138.5 q-51 0 -97 -17.5t-86 -43t-74 -57.5t-62 -60q-4 20 -21.5 84.5t-40.5 150.5q-4 12 -12 12q-10 0 -21.5 -13t-21.5 -31.5t-17.5 -36t-7.5 -25.5v-2zM193 735h24q20 29 50 50.5t62.5 35t65.5 20.5t58 7q39 0 68.5 -20.5t48 -54.5t27.5 -76t9 -83q0 -43 -13 -99t-44 -107.5 t-79 -86t-118 -34.5q-43 0 -94 12q0 41 -7 95.5t-17.5 112.5t-21.5 117.5t-19 110.5z" />
<glyph unicode="&#xff;" horiz-adv-x="897" d="M25 942q0 -16 8 -24l334 -469q-29 -100 -67 -210t-81 -196v-4q0 -16 24.5 -26.5t57.5 -10.5q29 0 53.5 9t34.5 32q16 57 47 145t71 210t88 281t97 361q0 4 1 7.5t1 7.5q0 29 -18.5 43t-42.5 14q-37 0 -52.5 -21.5t-27.5 -69.5t-32.5 -126t-67.5 -190l-260 346 q-14 20 -37 20q-20 0 -43 -13.5t-42.5 -32.5t-32.5 -41.5t-13 -41.5zM250 1204q6 0 11 -1t11 -1q16 0 33 2t33 2q6 0 11 -1t9 -1q25 29 34 60.5t26 66.5q-37 6 -62 6q-32 0 -55 -8q-16 -29 -27.5 -63.5t-23.5 -61.5zM453 1200q6 0 11 -1t11 -1q16 0 32.5 2t33.5 2q6 0 11 -1 t9 -1q23 29 33 60.5t27 66.5q-37 6 -64 6q-30 0 -53 -8q-14 -29 -26.5 -63.5t-24.5 -61.5z" />
<glyph unicode="&#x152;" horiz-adv-x="1331" d="M4 662q0 -59 7 -136t22.5 -158t42 -159t64.5 -138.5t90.5 -97t117.5 -36.5q61 0 131 44t148 144q10 -25 15 -55.5t9 -63.5q45 2 109.5 4t138.5 4t152.5 3t150.5 1q12 2 22.5 18.5t16.5 43t10 58.5t4 63q0 53 -9 93t-32 40q-123 -4 -226 -11.5t-169 -7.5q-4 33 -7 74 t-15 98q55 18 126.5 43t135.5 43q16 4 24.5 38t8.5 77q0 55 -13.5 105.5t-36.5 50.5q-37 0 -80.5 -9.5t-83.5 -22.5t-73 -26.5t-45 -21.5q-4 25 -6 58.5t-4 70.5t-4.5 74t-4.5 67q33 20 84.5 31.5t109.5 16.5t116.5 6.5t107.5 1.5q14 0 24.5 20t18.5 51t12.5 69t4.5 75 q0 51 -8.5 88t-26.5 37q-86 0 -198 -3.5t-211 -15.5t-167.5 -38.5t-68.5 -74.5q0 -27 5 -47t11 -45q-55 53 -106.5 77t-98.5 24q-92 0 -158.5 -51.5t-107.5 -138.5t-60.5 -204.5t-19.5 -250.5zM170 678q0 57 11 109.5t38 93.5q61 -61 107 -62q61 0 106 142 q37 -18 65.5 -53.5t48 -79.5t31 -95t11.5 -100q0 -70 -20.5 -129.5t-53.5 -103.5t-73 -68.5t-76 -24.5q-37 0 -73 24.5t-62.5 72t-43 116t-16.5 158.5z" />
<glyph unicode="&#x153;" horiz-adv-x="1124" d="M20 535q0 -49 5.5 -111t18.5 -126.5t33.5 -125.5t51.5 -109.5t71 -78t93 -29.5q49 0 105.5 34.5t117.5 114.5q8 -23 11 -46t10 -50q33 2 84 4t109 4t119.5 3t119.5 1q20 2 30.5 47.5t10.5 96.5q0 41 -8.5 71.5t-24.5 30.5q-94 -2 -176 -8t-133 -6q-4 27 -7.5 60.5 t-13.5 76.5q31 10 71 18.5t76.5 23.5t62.5 41t26 71t-10.5 88t-30.5 43q-29 0 -64 -8.5t-66.5 -19.5t-57 -21.5t-38.5 -16.5q-2 18 -3 45t-3 56.5t-3 59.5t-3 54q25 16 66 25.5t87 13.5t92 5t83 1q12 0 21.5 16.5t15.5 41t9 54.5t3 58q0 39 -6 67t-23 28q-68 0 -142.5 -2.5 t-143 -9.5t-127 -20.5t-93.5 -35.5v-29q0 -23 2.5 -40t8.5 -35q-43 41 -84 58t-78 17q-72 0 -124 -40t-86 -108.5t-49.5 -159.5t-15.5 -193zM156 541q0 45 8 86.5t31 72.5q53 -49 81 -49q49 0 84 113q61 -33 92 -104.5t31 -147.5q0 -57 -17 -105.5t-43 -84t-57.5 -55 t-58.5 -19.5q-55 0 -103 73.5t-48 219.5z" />
<glyph unicode="&#x178;" horiz-adv-x="1017" d="M4 1176q0 -20 8 -31l418 -586q-16 -61 -37.5 -129t-45 -134.5t-49.5 -129t-52 -115.5v-6q0 -20 30.5 -32.5t71.5 -12.5q35 0 65.5 11.5t45.5 39.5q18 74 57 182.5t90 261t111.5 351t120.5 452.5q2 6 2 21q0 33 -23.5 50t-52.5 17q-47 0 -65.5 -26.5t-35 -86t-42 -156.5 t-82.5 -238l-326 432q-16 25 -47 24q-25 0 -53.5 -16t-53 -40t-40 -51.5t-15.5 -51.5zM346 1401q4 0 9 -1t10 -1q14 0 28.5 2t26.5 2q4 0 8 -1t8 -1q20 25 28.5 51.5t20.5 54.5q-14 2 -26.5 3t-22.5 1q-27 0 -47 -6q-12 -23 -22.5 -52.5t-20.5 -51.5zM516 1397h12 q14 0 27.5 1t28.5 1q16 0 22 -2q20 25 28.5 51.5t20.5 54.5q-16 2 -28.5 3t-22.5 1q-27 0 -45 -6q-14 -23 -23.5 -52.5t-19.5 -51.5z" />
<glyph unicode="&#x2c6;" horiz-adv-x="782" d="M18 1081q6 -16 22.5 -24t33.5 -13h4q6 -2 10 -2q6 0 12 -2h50q10 4 16 6.5t8 2.5v2q18 41 41 66.5t41 39.5t31.5 19.5t15.5 5.5h4q10 0 28.5 -22.5t32 -41t15.5 -22.5v2q35 -47 58.5 -59.5t27.5 -12.5l29 6q43 18 58 26.5t22.5 14.5t15.5 17.5t35 37.5q4 12 4 19v6 q0 25 -20.5 54.5t-47 56t-51.5 48t-31 27.5q-35 35 -57.5 53.5t-36.5 26.5t-20.5 10.5t-8.5 2.5h-2q-10 0 -22 -9.5t-31 -19.5l-6 -6q-39 -20 -86 -67.5t-89 -98.5t-72 -91t-34 -44v-15z" />
<glyph unicode="&#x2dc;" horiz-adv-x="704" d="M-2 1218q2 -20 14 -34l11 -11q2 -2 10 -6q23 39 46 60.5t54 35.5h4q18 6 37 7q33 0 70 -14.5t72.5 -31t70.5 -31t68 -14.5h22q27 4 44.5 14.5t33.5 24.5l25 25q35 35 52 81t21 75v14q0 2 -2 2v2v4q-4 8 -10 10h-6q-90 -33 -133 -64.5t-62 -31.5h-4q-20 0 -28 2h-7 q-27 6 -54.5 19.5t-54 25.5t-52 22.5t-50.5 10.5h-18q-4 0 -7 -1t-7 -1l-6 -2q-23 0 -35.5 -6t-17.5 -12.5t-7 -12.5t-6 -6l-27 -27q-10 -12 -19 -24.5t-17 -22.5l-7 -12q-4 -6 -6 -13.5t-6 -11.5v-2q-4 -8 -4 -14v-6q0 -2 -1 -3t-1 -3v-17z" />
<glyph unicode="&#x2000;" horiz-adv-x="930" />
<glyph unicode="&#x2001;" horiz-adv-x="1860" />
<glyph unicode="&#x2002;" horiz-adv-x="930" />
<glyph unicode="&#x2003;" horiz-adv-x="1860" />
<glyph unicode="&#x2004;" horiz-adv-x="620" />
<glyph unicode="&#x2005;" horiz-adv-x="465" />
<glyph unicode="&#x2006;" horiz-adv-x="310" />
<glyph unicode="&#x2007;" horiz-adv-x="310" />
<glyph unicode="&#x2008;" horiz-adv-x="232" />
<glyph unicode="&#x2009;" horiz-adv-x="372" />
<glyph unicode="&#x200a;" horiz-adv-x="103" />
<glyph unicode="&#x2010;" horiz-adv-x="729" d="M8 444q0 -23 10 -47h123t151 2t146.5 6.5t110.5 12.5q16 10 31.5 33.5t26.5 50t18.5 53.5t7.5 43q0 18 -8 18h-4q-10 -2 -51.5 -3t-98.5 -2t-122.5 -3t-122 -4t-97.5 -6t-47 -8q-29 -18 -51.5 -60.5t-22.5 -85.5z" />
<glyph unicode="&#x2011;" horiz-adv-x="729" d="M8 444q0 -23 10 -47h123t151 2t146.5 6.5t110.5 12.5q16 10 31.5 33.5t26.5 50t18.5 53.5t7.5 43q0 18 -8 18h-4q-10 -2 -51.5 -3t-98.5 -2t-122.5 -3t-122 -4t-97.5 -6t-47 -8q-29 -18 -51.5 -60.5t-22.5 -85.5z" />
<glyph unicode="&#x2012;" horiz-adv-x="729" d="M8 444q0 -23 10 -47h123t151 2t146.5 6.5t110.5 12.5q16 10 31.5 33.5t26.5 50t18.5 53.5t7.5 43q0 18 -8 18h-4q-10 -2 -51.5 -3t-98.5 -2t-122.5 -3t-122 -4t-97.5 -6t-47 -8q-29 -18 -51.5 -60.5t-22.5 -85.5z" />
<glyph unicode="&#x2013;" horiz-adv-x="964" d="M10 690q0 -27 15 -47h172q104 0 210.5 2t204 6t154.5 13q23 10 44 33.5t37.5 49t27 52t10.5 43.5q0 20 -15 20h-4q-12 -2 -70.5 -3t-138 -2t-171 -3t-171 -4t-136 -5t-66.5 -9q-41 -18 -72 -60.5t-31 -85.5z" />
<glyph unicode="&#x2014;" horiz-adv-x="1067" d="M4 717q0 -27 16 -49h197q119 0 242 2t233.5 6t175.5 12q27 10 51.5 33.5t44 49.5t31 52.5t11.5 42.5q0 20 -19 21h-4q-14 -2 -80.5 -3t-159 -2t-197 -3t-194.5 -4.5t-154.5 -6.5t-76.5 -8q-47 -18 -82 -59t-35 -84z" />
<glyph unicode="&#x2018;" horiz-adv-x="288" d="M2 1407q0 -49 15.5 -105.5t36 -104.5t36.5 -80t21 -32q29 -14 67.5 -20t63.5 -6q0 2 1 3t1 3v18q-6 29 -11.5 53.5t-13.5 53.5l-18 67q-8 16 -12.5 33t-8.5 33l-6 18q-6 20 -11 37t-15.5 29t-30 18.5t-54.5 6.5h-10q-25 -4 -41 -15l-6 -6q-2 0 -2 -2h-2v-2z" />
<glyph unicode="&#x2019;" horiz-adv-x="268" d="M12 1094q6 -20 18.5 -26.5t29 -9.5t37 -8.5t44.5 -21.5v2q8 8 14.5 35t12.5 57.5t9 57t5 34.5q4 29 11.5 59t11.5 58v4q0 10 3 23.5t7 23.5q-8 12 -27.5 31t-60.5 19h-8q-12 0 -27.5 -3.5t-19.5 -7.5q-10 -31 -17.5 -74.5t-13.5 -90t-12 -90.5t-17 -72z" />
<glyph unicode="&#x201a;" horiz-adv-x="268" d="M12 -133q6 -20 18.5 -26.5t29 -9.5t37 -8.5t44.5 -21.5v2q8 8 14.5 35t12.5 57.5t9 57t5 34.5q4 29 11.5 59t11.5 58v4q0 10 3 23.5t7 23.5q-8 12 -27.5 31t-60.5 19h-8q-12 0 -27.5 -3.5t-19.5 -7.5q-10 -31 -17.5 -74.5t-13.5 -90t-12 -90.5t-17 -72z" />
<glyph unicode="&#x201c;" horiz-adv-x="454" d="M0 1389q8 -39 15.5 -82t16.5 -84t22.5 -78t37.5 -64l6 -6q20 -20 38 -25.5t40 -5.5q20 0 25.5 9.5t9.5 25.5v21q-27 47 -34 75.5t-7 49.5q0 12 1 20t1 17q0 8 -2 29.5t-7 43t-15.5 41t-26.5 25.5l-19 6h-2q0 2 -2 2h-4q-20 4 -31 4h-12q-12 0 -31.5 -9t-19.5 -15z M186 1401q0 -47 9.5 -94t19.5 -85t19 -62l10 -25q23 -53 60.5 -67.5t57.5 -14.5h11l4 2t6 4l2 2q6 6 6 24l-6 95q-14 111 -49 182.5t-100 71.5q-12 0 -31 -8.5t-19 -24.5z" />
<glyph unicode="&#x201d;" horiz-adv-x="403" d="M2 1108q45 -49 69.5 -60.5t30.5 -11.5q20 0 32.5 47t21 106.5t11.5 114t5 68.5q-20 20 -46 40t-60 20h-9l-1 -1t-3 -1h-4q-4 0 -9 -3.5t-9 -5.5q-14 -72 -21.5 -151.5t-7.5 -153.5v-8zM176 1059q29 -29 54.5 -48.5t39.5 -23.5h11q12 0 22 28.5t16.5 69.5t11.5 89.5 t9 87.5v18q0 10 1 24.5t3 18.5q-6 6 -10 13t-10 12l-25 24q-4 0 -19.5 10.5t-25.5 10.5h-10q-10 0 -18.5 -6.5t-12.5 -10.5q-2 -27 -8 -63.5t-12.5 -75.5t-11.5 -76t-5 -65v-37z" />
<glyph unicode="&#x201e;" horiz-adv-x="403" d="M2 -70v-8q45 -49 69.5 -60.5t30.5 -11.5q20 0 32.5 47t21 106.5t11.5 114t5 68.5q-20 20 -46 40t-60 20h-9l-1 -1t-3 -1h-4q-4 0 -9 -3.5t-9 -5.5q-14 -72 -21.5 -151.5t-7.5 -153.5zM176 -90v-37q29 -29 54.5 -48.5t39.5 -23.5h11q12 0 22 28.5t16.5 69.5t11.5 89.5 t9 87.5v18q0 10 1 24.5t3 18.5q-6 6 -10 13t-10 12l-25 24q-4 0 -19.5 10.5t-25.5 10.5h-10q-10 0 -18.5 -6.5t-12.5 -10.5q-2 -27 -8 -63.5t-12.5 -75.5t-11.5 -76t-5 -65z" />
<glyph unicode="&#x2022;" horiz-adv-x="724" d="M4 748q0 -68 21.5 -130.5t62.5 -109.5t100.5 -74.5t137.5 -27.5q29 0 60.5 4t57.5 16l19 10q29 14 44 33.5t38 42.5l8 18q16 51 32.5 102.5t16.5 123.5q0 68 -12 111.5t-33.5 79.5t-54.5 66.5t-72 71.5l-27 7q-6 6 -17 8t-23.5 4t-24.5 2h-14q-37 0 -64 -8t-65 -25 l-19 -10q-4 -2 -7 -4t-7 -4q-31 -45 -54.5 -76t-42 -61.5t-33 -69.5t-28.5 -100z" />
<glyph unicode="&#x2026;" horiz-adv-x="1073" d="M10 4q16 -2 30.5 -3t31.5 -1q31 0 60.5 2t55.5 2q39 45 56.5 98.5t46.5 108.5q-35 4 -61.5 7t-51.5 3q-45 0 -86 -10q-23 -45 -44 -106.5t-38 -100.5zM350 -4h4q6 -2 13 -2h14h20t21 2h16q8 0 14.5 1t12.5 1h57l1 -1t3 -1q18 23 28.5 52.5t20 59t19.5 57.5t29 46 q-10 0 -19.5 2t-19.5 4h-9q-8 0 -16 2t-16 2h-17q-29 0 -55 -6h-4q-10 -2 -20.5 -7t-14.5 -5q-20 -20 -32.5 -48t-20.5 -55.5t-12.5 -50t-8.5 -31.5l-6 -18q-2 0 -2 -4zM705 4q2 0 2 -2h2h84q16 2 32.5 3t32.5 1h19q4 0 6 -1t6 -1q0 6 10 22.5t23.5 38t23.5 44t10 38.5 q6 18 13.5 38t15.5 32q-12 0 -18 2h-11q-16 4 -36 4h-33q-29 0 -49.5 -5t-42.5 -7h-2q-37 -51 -47.5 -74.5t-10.5 -34.5q0 -6 2 -8t2 -4q-10 -23 -17 -44t-17 -42z" />
<glyph unicode="&#x202f;" horiz-adv-x="372" />
<glyph unicode="&#x2039;" horiz-adv-x="567" d="M4 328q0 -10 27.5 -35t71.5 -56.5t96.5 -66.5t100.5 -67.5t87 -59.5t53 -41q23 6 35 23.5t29 74.5v4q0 12 -21.5 35t-52.5 49.5t-68.5 54t-68.5 53.5t-52.5 46.5t-21.5 30.5q0 14 36 42.5t79 59.5t79 59.5t36 47.5q0 14 -10.5 33.5t-27 39t-36 36t-37.5 22.5 q-12 -4 -42 -31t-66.5 -67t-76.5 -86t-73 -88t-54.5 -73.5t-21.5 -39.5z" />
<glyph unicode="&#x203a;" horiz-adv-x="608" d="M8 115q14 -57 27.5 -74.5t36.5 -24.5q14 14 53 48t89 78t104.5 93.5t99.5 92.5t73.5 74.5t28.5 41.5q0 8 -22.5 33t-56 54.5t-75.5 63.5t-81 61.5t-70 47t-43 23.5q-18 -6 -37.5 -22.5t-36 -36t-27 -39t-10.5 -33.5q1 -6 5 -14q20 -18 59 -46t76 -56.5t64.5 -53.5 t27.5 -39q0 -10 -21.5 -29.5t-52.5 -45t-68.5 -54.5t-68.5 -55.5t-52.5 -49t-21.5 -34.5v-4z" />
<glyph unicode="&#x205f;" horiz-adv-x="465" />
<glyph unicode="&#x2122;" horiz-adv-x="884" d="M113 1182q0 -10 1 -17.5t1 -15.5h2q23 10 46 23.5t58 29.5q-4 -74 -5 -153.5t-5 -190.5q16 0 31.5 11.5t17.5 7.5h6l4 2t6 2v32q0 35 -1 69t-1 67q0 45 2.5 85t14.5 70.5t36.5 50t69.5 25.5h13q2 0 2 -2h2q-2 29 -3 57.5t-1 53.5v32l1 1t1 3q-31 -4 -70 -17t-78 -30.5 t-76.5 -37t-66.5 -33.5q-4 -23 -6 -49.5t-2 -51.5v-24zM477 926q0 -23 10.5 -28t18.5 -5h16q12 0 22.5 17.5t17.5 39t10 42t3 26.5q0 2 -2 2v-2q0 4 5 16q10 -16 27.5 -25.5t31.5 -17.5h4q4 -2 12 -2h13q20 0 37.5 14.5t32 35t26.5 44t22 43.5v-39q0 -25 2 -54t6.5 -58 t8.5 -50.5t8 -29.5h51q0 18 -3 46t-7 38v10q-2 14 -2 27q0 12 -2 24v127q0 39 7 88.5t7 67.5v6q4 18 4 37q0 20 4 41q-4 10 -14 15l-20 10h-7q-31 -74 -52 -127.5t-38.5 -88t-36 -51t-43.5 -16.5q-16 0 -28.5 12.5t-19.5 28.5t-12 32.5t-7 26.5l-6 19q-10 53 -27.5 94 t-36.5 47h-10q-10 -2 -14 -6v-57v-41q0 -20 -2 -41v-23q-4 -68 -10.5 -137.5t-6.5 -116.5v-61z" />
<glyph unicode="&#x25fc;" horiz-adv-x="1095" d="M0 0v1096h1096v-1096h-1096z" />
</font>
</defs>
</svg>
